<?xml version="1.0" encoding="UTF-8" standalone="no"?>
<svg
   xmlns:dc="http://purl.org/dc/elements/1.1/"
   xmlns:cc="http://creativecommons.org/ns#"
   xmlns:rdf="http://www.w3.org/1999/02/22-rdf-syntax-ns#"
   xmlns:svg="http://www.w3.org/2000/svg"
   xmlns="http://www.w3.org/2000/svg"
   xmlns:sodipodi="http://sodipodi.sourceforge.net/DTD/sodipodi-0.dtd"
   xmlns:inkscape="http://www.inkscape.org/namespaces/inkscape"
   version="1.1"
   id="Layer_1"
   x="0px"
   y="0px"
   width="500"
   height="475.69501"
   viewBox="0 0 500 475.69501"
   enable-background="new 0 0 100 95.139"
   xml:space="preserve"
   inkscape:version="0.48.0 r9654"
   sodipodi:docname="developpment_white.svg"><metadata
   id="metadata27"><rdf:RDF><cc:Work
       rdf:about=""><dc:format>image/svg+xml</dc:format><dc:type
         rdf:resource="http://purl.org/dc/dcmitype/StillImage" /><dc:title></dc:title></cc:Work></rdf:RDF></metadata><defs
   id="defs25" /><sodipodi:namedview
   pagecolor="#ffffff"
   bordercolor="#666666"
   borderopacity="1"
   objecttolerance="10"
   gridtolerance="10"
   guidetolerance="10"
   inkscape:pageopacity="0"
   inkscape:pageshadow="2"
   inkscape:window-width="1920"
   inkscape:window-height="1028"
   id="namedview23"
   showgrid="false"
   inkscape:zoom="3.0586826"
   inkscape:cx="50"
   inkscape:cy="47.5695"
   inkscape:window-x="1912"
   inkscape:window-y="-8"
   inkscape:window-maximized="1"
   inkscape:current-layer="Layer_1"
   fit-margin-top="0"
   fit-margin-left="0"
   fit-margin-right="0"
   fit-margin-bottom="0" />
<polygon
   points="68.056,77.083 68.056,68.75 31.944,68.75 31.944,77.083 37.5,77.083 62.5,77.083 "
   id="polygon3"
   style="fill:#ffffff"
   transform="scale(5,5)" />
<path
   d="m 229.165,281.25 c 0,-3.84 -3.105,-6.945 -6.945,-6.945 -3.065,0 -5.585,2.01 -6.505,4.77 l -0.085,-0.025 -12.305,36.92 h -36.66 c -3.84,0 -6.945,3.105 -6.945,6.945 0,3.84 3.105,6.945 6.945,6.945 h 46.67 l 15.47,-46.41 -0.085,-0.03 c 0.245,-0.69 0.445,-1.4 0.445,-2.17 z"
   id="path5"
   style="fill:#ffffff"
   inkscape:connector-curvature="0" />
<g
   id="g7"
   style="fill:#ffffff"
   transform="scale(5,5)">
	<path
   d="M 36.111,54.861 H 24.146 l -3.503,-9.584 -0.019,0.007 c -0.531,-1.689 -2.091,-2.924 -3.957,-2.924 -0.67,0 -1.295,0.174 -1.856,0.455 L 14.804,42.801 C 5.257,47.574 0,58.27 0,72.917 c 0,2.301 1.865,4.166 4.167,4.166 h 12.5 v 13.889 c 0,2.302 1.865,4.167 4.167,4.167 2.302,0 4.166,-1.866 4.166,-4.167 V 72.917 C 25,70.615 23.135,68.75 20.833,68.75 H 8.51 C 9.016,62.761 10.784,56.3 15.473,52.294 l 4.265,6.587 0.01,-0.005 c 0.457,0.91 1.388,1.541 2.475,1.541 h 13.889 c 1.534,0 2.777,-1.244 2.777,-2.778 0,-1.534 -1.244,-2.778 -2.778,-2.778 z"
   id="path9"
   style="fill:#ffffff"
   inkscape:connector-curvature="0" />
	<circle
   cx="27.778"
   cy="39.583"
   r="6.25"
   id="circle11"
   style="fill:#ffffff"
   sodipodi:cx="27.778"
   sodipodi:cy="39.583"
   sodipodi:rx="6.25"
   sodipodi:ry="6.25"
   d="m 34.028,39.583 c 0,3.45178 -2.79822,6.25 -6.25,6.25 -3.45178,0 -6.25,-2.79822 -6.25,-6.25 0,-3.45178 2.79822,-6.25 6.25,-6.25 3.45178,0 6.25,2.79822 6.25,6.25 z" />
</g>
<path
   d="M 333.335,315.97 H 296.67 l -12.305,-36.92 -0.08,0.025 c -0.925,-2.76 -3.44,-4.77 -6.51,-4.77 -3.84,0 -6.945,3.105 -6.945,6.945 0,0.77 0.2,1.48 0.44,2.17 l -0.085,0.03 15.47,46.41 h 46.675 c 3.84,0 6.945,-3.105 6.945,-6.945 0,-3.84 -3.1,-6.945 -6.94,-6.945 z"
   id="path13"
   style="fill:#ffffff"
   inkscape:connector-curvature="0" />
<circle
   cx="72.223"
   cy="39.583"
   r="6.25"
   id="circle15"
   style="fill:#ffffff"
   sodipodi:cx="72.223"
   sodipodi:cy="39.583"
   sodipodi:rx="6.25"
   sodipodi:ry="6.25"
   transform="scale(5,5)" />
<path
   d="m 425.985,214.005 -0.035,0.07 c -2.81,-1.405 -5.94,-2.275 -9.285,-2.275 -9.32,0 -17.13,6.17 -19.78,14.62 l -0.1,-0.035 -17.515,47.92 h -59.825 c -7.67,0 -13.885,6.215 -13.885,13.885 0,7.67 6.215,13.89 13.885,13.89 h 69.445 c 5.435,0 10.095,-3.155 12.38,-7.705 l 0.05,0.025 21.33,-32.935 c 23.44,20.03 32.28,52.335 34.81,82.28 h -61.625 c -11.51,0 -20.835,9.325 -20.835,20.835 v 90.275 c 0,11.51 9.325,20.835 20.835,20.835 11.51,0 20.83,-9.325 20.83,-20.835 v -69.44 h 62.5 c 11.51,0 20.835,-9.325 20.835,-20.83 0,-73.235 -26.285,-126.715 -74.015,-150.58 z"
   id="path17"
   style="fill:#ffffff"
   inkscape:connector-curvature="0" />
<path
   d="m 250,145.835 c -40.21,0 -72.915,-32.71 -72.915,-72.915 C 177.085,32.715 209.79,0 250,0 c 40.21,0 72.915,32.71 72.915,72.915 0,40.205 -32.705,72.92 -72.915,72.92 z M 250,13.89 c -32.545,0 -59.03,26.475 -59.03,59.025 0,32.55 26.485,59.03 59.03,59.03 32.545,0 59.03,-26.48 59.03,-59.03 0,-32.55 -26.485,-59.025 -59.03,-59.025 z"
   id="path19"
   style="fill:#ffffff"
   inkscape:connector-curvature="0" />
<path
   d="m 284.72,45.14 c 0,-3.84 -3.105,-6.945 -6.945,-6.945 -1.93,0 -3.66,0.785 -4.915,2.045 L 256.94,56.155 V 31.25 c 0,-3.84 -3.105,-6.945 -6.945,-6.945 -3.84,0 -6.945,3.11 -6.945,6.945 v 41.665 c 0,3.84 3.105,6.945 6.945,6.945 1.925,0 3.66,-0.785 4.915,-2.045 L 282.675,50.06 c 1.265,-1.26 2.045,-3 2.045,-4.92 z"
   id="path21"
   style="fill:#ffffff"
   inkscape:connector-curvature="0" />
</svg>