<svg version="1.1" viewBox="0.0 0.0 552.4540682414698 575.3359580052494" fill="none" stroke="none" stroke-linecap="square" stroke-miterlimit="10" xmlns:xlink="http://www.w3.org/1999/xlink" xmlns="http://www.w3.org/2000/svg"><clipPath id="p.0"><path d="m0 0l552.45404 0l0 575.33594l-552.45404 0l0 -575.33594z" clip-rule="nonzero"/></clipPath><g clip-path="url(#p.0)"><path fill="#000000" fill-opacity="0.0" d="m0 0l552.45404 0l0 575.33594l-552.45404 0z" fill-rule="evenodd"/><path fill="#b45f06" d="m545.71246 269.4942c-0.06506348 106.62494 -51.176178 205.0809 -134.01904 258.1624c-82.842865 53.081482 -184.78386 52.693604 -267.3006 -1.0171509c-82.51672 -53.710754 -133.0253 -152.5534 -132.43909 -259.17636l266.87686 1.8282471z" fill-rule="evenodd"/><path fill="#e69138" d="m467.1996 453.2766l0 0c-104.507935 101.611694 -273.94876 101.611694 -378.4567 0c-104.50793 -101.611725 -104.50793 -266.3568 0 -367.9685c104.50793 -101.611694 273.94876 -101.611694 378.4567 0l-189.22833 183.98427z" fill-rule="evenodd"/><path fill="#e06666" d="m465.16943 83.363976l0 0c51.068176 48.609795 80.01721 115.06071 80.396545 184.5459c0.3793335 69.48517 -27.84259 136.23111 -78.3772 185.36526l-189.22833 -183.98425z" fill-rule="evenodd"/></g></svg>