<?xml version="1.0" encoding="UTF-8" standalone="no"?>
<!-- Generator: Adobe Illustrator 15.0.0, SVG Export Plug-In . SVG Version: 6.00 Build 0)  -->

<svg
   xmlns:dc="http://purl.org/dc/elements/1.1/"
   xmlns:cc="http://creativecommons.org/ns#"
   xmlns:rdf="http://www.w3.org/1999/02/22-rdf-syntax-ns#"
   xmlns:svg="http://www.w3.org/2000/svg"
   xmlns="http://www.w3.org/2000/svg"
   xmlns:sodipodi="http://sodipodi.sourceforge.net/DTD/sodipodi-0.dtd"
   xmlns:inkscape="http://www.inkscape.org/namespaces/inkscape"
   version="1.0"
   id="Layer_1"
   x="0px"
   y="0px"
   width="554.64398"
   height="641.30798"
   viewBox="0 0 554.64399 641.30797"
   enable-background="new 0 0 566.93 850.39"
   xml:space="preserve"
   inkscape:version="0.47 r22583"
   sodipodi:docname="ZZ.svg"><metadata
   id="metadata50"><rdf:RDF><cc:Work
       rdf:about=""><dc:format>image/svg+xml</dc:format><dc:type
         rdf:resource="http://purl.org/dc/dcmitype/StillImage" /></cc:Work></rdf:RDF></metadata><defs
   id="defs48"><inkscape:perspective
     sodipodi:type="inkscape:persp3d"
     inkscape:vp_x="0 : 425.19501 : 1"
     inkscape:vp_y="0 : 1000 : 0"
     inkscape:vp_z="566.92999 : 425.19501 : 1"
     inkscape:persp3d-origin="283.465 : 283.46334 : 1"
     id="perspective52" /></defs><sodipodi:namedview
   pagecolor="#ffffff"
   bordercolor="#666666"
   borderopacity="1"
   objecttolerance="10"
   gridtolerance="10"
   guidetolerance="10"
   inkscape:pageopacity="0"
   inkscape:pageshadow="2"
   inkscape:window-width="1280"
   inkscape:window-height="1004"
   id="namedview46"
   showgrid="false"
   inkscape:zoom="0.27751972"
   inkscape:cx="277.087"
   inkscape:cy="287.564"
   inkscape:window-x="-8"
   inkscape:window-y="-8"
   inkscape:window-maximized="1"
   inkscape:current-layer="Layer_1" />
<path
   clip-rule="evenodd"
   d="m 2.864,33.581987 c 0,-16.652 14.158,-30.7309998 30.913,-30.7309998 H 520.87 c 17.051,0 30.912,13.7929998 30.912,30.7309998 V 607.72399 c 0,16.929 -13.861,30.724 -30.912,30.724 H 33.777 c -16.755,0 -30.913,-14.065 -30.913,-30.724 V 33.581987 m -2.864,0 V 607.72399 c 0,18.2 15.468,33.584 33.776,33.584 h 487.093 c 18.633,0 33.775,-15.069 33.775,-33.584 V 33.581987 c 0,-18.522 -15.143,-33.581999817351 -33.775,-33.581999817351 H 33.777 C 15.143,-1.2817351e-5 0,15.059987 0,33.581987 z"
   id="path3"
   style="fill:#e52629;fill-rule:evenodd" />
<path
   clip-rule="evenodd"
   d="m 21.576,39.290987 c 0,-8.559 7.112,-15.849 15.834,-15.849 131.949,0 347.52,0 479.625,0 8.734,0 16.035,7.29 16.035,15.849 0,187.521003 0,375.215003 0,562.918003 0,8.714 -7.301,15.657 -16.035,15.657 -131.926,0 -347.49,0 -479.625,0 -8.723,0 -15.834,-6.943 -15.834,-15.657 0,-187.524 0,-375.219 0,-562.918003"
   id="path5"
   style="fill:#e52629;fill-rule:evenodd" />
<g
   id="XMLID_15_"
   transform="translate(-6.378,-71.451013)">
	<g
   id="g8">
		<path
   d="m 519.759,279.281 c -17.715,0 -35.417,0 -53.125,0 0,-50.698 0,-101.396 0,-152.088 -0.007,-0.296 0.124,-0.441 0.331,-0.503 16.439,0 33.086,0 49.649,0 1.028,0 2.146,-0.131 3.145,0.166 0,6.675 0,13.343 0,20.025 -11.806,0 -23.611,0 -35.417,0 -0.303,0.083 -0.158,0.828 -0.165,1.331 -0.228,14.15 0.172,29.238 0,43.685 10.427,0 20.853,0 31.279,0 0,6.889 0,13.785 0,20.688 -10.371,0 -20.742,0 -31.114,0 -0.296,0.083 -0.158,0.821 -0.165,1.317 -0.187,14.026 0.138,28.962 0,43.202 0.241,0.317 0.724,0.152 0.993,0.166 11.144,0.283 23.225,-0.221 34.589,0 0,7.336 0,14.667 0,22.011 z"
   id="path10"
   style="fill:#ffffff" />
		<path
   d="m 379.249,236.582 c -0.075,-1.269 -0.31,-79.123 -0.165,-80.095 0.021,-0.166 -0.041,-0.358 0,-0.503 0.193,-0.634 0.469,-2.103 0.662,-2.979 0.021,-0.124 -0.083,-0.572 0,-0.655 0.014,-0.021 0.165,0.007 0.165,0 0.028,-0.125 -0.082,-0.586 0,-0.669 0.014,-0.007 0.159,0.014 0.159,0 0.117,-0.51 0.062,-0.986 0.172,-1.483 0.007,-0.041 0.159,-0.034 0.159,-0.166 0.027,-0.427 0.151,-0.441 0.172,-0.841 0.014,-0.22 0.076,-0.427 0.159,-0.655 0.082,-0.193 0.089,-0.386 0.172,-0.662 0.063,-0.207 0.352,-1.014 0.497,-1.497 1.117,-3.606 2.551,-6.73 4.137,-9.261 0.09,-0.138 0.324,-0.317 0.331,-0.503 0.014,-0.207 0.27,-0.207 0.331,-0.324 0.035,-0.083 -0.048,-0.262 0,-0.338 0.042,-0.055 0.311,-0.104 0.331,-0.159 0.035,-0.076 -0.055,-0.269 0,-0.324 0.11,-0.151 0.394,-0.2 0.49,-0.338 0.048,-0.062 -0.049,-0.29 0,-0.331 0.206,-0.166 0.413,-0.352 0.669,-0.662 0.676,-0.814 1.572,-1.689 2.482,-2.483 0.145,-0.131 0.345,-0.2 0.496,-0.324 0.138,-0.125 0.193,-0.4 0.331,-0.503 0.056,-0.048 0.283,0.055 0.331,0 0.158,-0.2 0.187,-0.297 0.496,-0.497 0.18,-0.117 0.304,-0.214 0.497,-0.331 0.186,-0.124 0.345,-0.186 0.496,-0.338 0.027,-0.021 0.766,-0.483 0.993,-0.497 0.069,0 0.248,-0.117 0.331,-0.159 1.448,-0.717 29.659,-2.703 34.259,-1.331 1.117,0.338 2.179,0.807 3.145,1.331 0.097,0.055 0.379,0.083 0.496,0.159 0.069,0.055 0.097,0.296 0.166,0.338 0.062,0.035 0.289,-0.055 0.331,0 0.014,0.014 -0.021,0.152 0,0.159 0.062,0.035 0.289,-0.042 0.323,0 0.028,0.027 -0.021,0.152 0,0.166 0.125,0.083 0.373,0.069 0.504,0.172 0.083,0.062 0.09,0.276 0.165,0.331 0.173,0.124 0.497,0.2 0.662,0.331 0.139,0.104 0.159,0.221 0.331,0.331 0.572,0.352 1.387,1.22 1.986,1.82 0.579,0.579 1.075,1.131 1.655,1.813 0.158,0.2 0.379,0.345 0.496,0.503 0.117,0.145 0.041,0.373 0.166,0.503 0.062,0.055 0.282,0.09 0.33,0.159 0.104,0.152 0.083,0.352 0.166,0.497 0.048,0.083 0.158,-0.021 0.165,0.166 0.007,0.145 0.249,0.365 0.331,0.497 0.063,0.103 0.09,0.221 0.166,0.331 0.117,0.172 0.386,0.338 0.496,0.503 0.104,0.152 0.083,0.331 0.166,0.49 0.082,0.159 0.317,0.296 0.331,0.49 0.014,0.262 0.455,0.8 0.662,1.166 0.786,1.448 1.675,3.427 2.482,5.296 0.269,0.627 0.559,1.269 0.827,1.986 0.021,0.055 -0.041,0.29 0,0.331 0.138,0.11 0.117,0.124 0.165,0.331 0,0 0.152,0.483 0.166,0.49 0.234,0.193 0.531,1.248 0.662,1.668 0.221,0.669 1.772,24.163 1.647,32.093 -0.338,0.2 -11.412,0 -16.377,0 -0.248,-0.572 -1.655,-25.825 -2.317,-27.135 -0.317,-0.621 -0.62,-1.283 -0.993,-1.828 -0.158,-0.228 -0.455,-0.393 -0.662,-0.662 -0.228,-0.283 -0.31,-0.641 -0.503,-0.82 -0.083,-0.09 -0.345,-0.324 -0.489,-0.331 -0.221,-0.014 -0.518,-0.469 -0.828,-0.662 -0.179,-0.11 -0.311,-0.214 -0.496,-0.338 -0.056,-0.027 -0.455,-0.11 -0.497,-0.152 -0.014,-0.027 0.021,-0.166 0,-0.166 -0.062,-0.041 -0.289,0.042 -0.331,0 -0.014,-0.027 0.021,-0.166 0,-0.172 -0.062,-0.034 -0.289,0.048 -0.33,0 -0.015,-0.021 0.021,-0.158 0,-0.166 -0.063,-0.034 -0.29,0.048 -0.331,0 -0.117,-0.131 -0.125,-0.117 -0.331,-0.166 -0.38,-0.089 -0.821,-0.255 -1.49,-0.338 -0.048,0 -0.303,0.035 -0.331,0 -0.007,-0.007 0.008,-0.158 0,-0.166 -2.289,-0.248 -5.461,0 -8.44,0 -4.468,0 -8.84,-0.407 -11.585,0.834 -0.275,0.125 -0.758,0.379 -1.158,0.655 -0.117,0.083 -0.228,0.255 -0.331,0.338 -0.2,0.145 -0.703,0.483 -0.993,0.828 -0.11,0.131 -0.062,0.345 -0.165,0.503 -0.056,0.062 -0.283,0.083 -0.331,0.166 -0.131,0.207 -0.056,0.42 -0.166,0.655 -0.041,0.076 -0.158,-0.021 -0.165,0.159 -0.007,0.09 -0.124,0.234 -0.166,0.338 -0.303,0.731 -0.517,1.51 -0.662,2.482 -0.041,0.269 0.049,0.559 0,0.828 -0.027,0.152 -0.151,0.248 -0.165,0.49 -0.138,1.875 0,4.02 0,6.289 0,12.674 0,25.5 0,37.575 0,14.005 0,23.956 0,37.562 0,4.731 -0.055,9.11 1.324,12.254 0.034,0.069 0.158,-0.014 0.165,0.159 0.014,0.234 0.076,0.331 0.166,0.503 1.145,2.179 3.124,3.758 5.627,4.296 0.097,0.034 0.228,-0.014 0.331,0 1.014,0.255 3.469,0.172 5.296,0.172 3.213,0 6.931,0 10.261,0 2.041,0 4.034,0.166 5.462,-0.331 0.282,-0.104 0.669,-0.29 0.993,-0.503 0.082,-0.055 0.11,-0.124 0.158,-0.159 0.876,-0.565 1.372,-1.138 1.993,-2.151 0.068,-0.11 0.082,-0.221 0.165,-0.338 0.09,-0.152 0.331,-0.752 0.497,-1.152 0.158,-0.393 0.523,-1.489 0.661,-2.151 0.035,-0.152 -0.048,-0.352 0,-0.497 0.049,-0.151 0.118,-0.476 0.166,-0.993 0.559,-6.289 -0.214,-17.102 0.331,-23.667 0.655,-0.393 16.356,-0.724 17.039,0 0,4.241 0,10.792 0,14.895 0,4.372 0.214,8.689 0,12.578 -0.138,2.6 -0.724,5.193 -1.482,7.448 -0.138,0.414 -0.186,0.793 -0.331,1.158 -0.021,0.048 -0.131,0.035 -0.172,0.166 -0.021,0.097 0.048,0.242 0,0.331 -0.042,0.097 -0.29,0.255 -0.324,0.338 -0.11,0.255 -0.09,0.455 -0.166,0.655 -0.075,0.186 -0.316,0.4 -0.33,0.662 -0.008,0.076 -0.125,0.241 -0.166,0.331 -0.076,0.165 -0.317,0.4 -0.331,0.662 0,0.055 -0.124,0.269 -0.165,0.331 -0.083,0.124 -0.27,0.228 -0.331,0.331 -0.124,0.2 -0.035,0.455 -0.166,0.662 -0.083,0.124 -0.234,0.179 -0.331,0.331 -0.068,0.104 -0.097,0.214 -0.165,0.331 -0.049,0.076 -0.138,0.124 -0.166,0.166 -0.068,0.117 -0.068,0.352 -0.165,0.496 -0.104,0.145 -0.4,0.193 -0.497,0.324 -0.11,0.166 -0.055,0.366 -0.165,0.503 -0.041,0.048 -0.311,0.11 -0.331,0.166 -0.104,0.221 -0.124,0.386 -0.338,0.655 -0.165,0.221 -0.476,0.448 -0.655,0.662 -0.234,0.29 -0.421,0.544 -0.662,0.834 -0.221,0.255 -0.42,0.586 -0.662,0.828 -0.462,0.462 -1.138,0.862 -1.654,1.324 -0.256,0.221 -0.414,0.6 -0.669,0.827 -0.049,0.048 -0.276,-0.062 -0.324,0 -0.117,0.145 -0.255,0.476 -0.497,0.662 -0.055,0.042 -0.282,-0.055 -0.331,0 -0.11,0.131 -0.262,0.483 -0.496,0.662 -0.145,0.104 -0.352,0.083 -0.496,0.172 -0.124,0.062 -0.228,0.255 -0.331,0.317 -0.524,0.379 -1.187,0.765 -1.828,1.165 -0.082,0.055 0.035,0.152 -0.158,0.166 -0.055,0 -0.269,0.125 -0.331,0.166 -0.241,0.159 -0.462,0.29 -0.827,0.49 -0.146,0.083 -0.228,0.276 -0.331,0.338 -0.214,0.124 -0.435,0.042 -0.662,0.166 -0.11,0.055 -0.234,0.276 -0.331,0.331 -0.593,0.331 -1.269,0.627 -1.986,1 -0.138,0.062 -0.324,0.062 -0.496,0.158 -0.076,0.035 -0.276,0.311 -0.331,0.331 -0.462,0.145 -18.102,0.704 -19.701,0.49 -0.352,-0.042 -0.538,-0.083 -1.152,-0.166 -0.255,-0.021 -0.282,-0.124 -0.496,-0.159 -1.565,-0.255 -3.075,-0.462 -4.476,-0.827 -0.683,-0.187 -1.352,-0.462 -1.985,-0.662 -2.572,-0.834 -5.09,-1.883 -7.275,-3.303 -0.255,-0.179 -0.593,-0.338 -0.828,-0.51 -0.255,-0.179 -0.413,-0.462 -0.661,-0.662 -0.152,-0.11 -0.359,-0.055 -0.497,-0.159 -0.117,-0.089 -0.2,-0.234 -0.331,-0.331 -1.062,-0.841 -2.31,-2.138 -3.31,-3.31 -0.207,-0.242 -0.476,-0.435 -0.662,-0.662 -0.11,-0.138 -0.049,-0.366 -0.166,-0.497 -0.062,-0.069 -0.282,-0.097 -0.331,-0.159 -0.117,-0.166 -0.075,-0.358 -0.165,-0.503 -0.069,-0.11 -0.269,-0.234 -0.331,-0.331 -0.104,-0.179 -0.069,-0.345 -0.165,-0.497 -0.063,-0.103 -0.276,-0.234 -0.331,-0.338 -0.104,-0.179 -0.063,-0.331 -0.173,-0.482 -0.055,-0.11 -0.275,-0.249 -0.324,-0.338 -0.179,-0.338 -0.193,-0.683 -0.331,-0.993 -0.055,-0.104 -0.282,-0.234 -0.331,-0.338 -0.186,-0.338 -0.296,-0.958 -0.496,-1.489 -0.09,-0.221 -0.255,-0.352 -0.338,-0.655 -0.076,-0.345 -0.228,-0.607 -0.324,-0.993 -0.151,-0.621 -0.428,-1.572 -0.662,-2.324 -0.117,-0.345 0.034,-0.517 -0.165,-0.821 -0.159,-0.228 -0.359,-0.641 -0.497,-1.158 -0.2,-0.745 -0.221,-1.565 -0.331,-2.324 -0.7,-4.935 -0.982,-11.445 -1.328,-17.203 z"
   id="path12"
   style="fill:#ffffff" />
		<path
   d="m 404.088,465.145 c 0.008,0.014 0.008,0.021 -0.014,-0.007 0,0 0.007,0.007 0.014,0.007 z"
   id="path14"
   style="fill:#ffffff" />
		<path
   d="m 404.088,465.145 c -0.007,0 -0.014,-0.007 -0.014,-0.007 -0.007,-0.014 -0.007,-0.014 -0.007,-0.021 0,0 0.014,0.014 0.021,0.028 z"
   id="path16"
   style="fill:#ffffff" />
		<path
   d="m 425.135,336.558 c -1.049,1.262 -2.4,104.396 -1.104,106.196 1.151,0.296 3.192,0.399 4.53,0.399 2.772,0 6.027,0 8.627,0 1.476,0 2.958,-0.186 4.138,0 0.379,0.063 0.8,-0.089 0.993,0 0.269,0.117 0.117,0.104 0.496,0 0.386,0.786 0.455,0.076 1.145,0 0.518,-0.062 0.448,-0.6 0.828,-0.689 0.124,-0.034 0.131,-0.158 0.165,-0.165 0.372,-0.139 0.841,-0.166 1.158,-0.331 0.069,-0.042 0.241,-0.263 0.331,-0.324 0.304,-0.241 0.601,-0.331 0.828,-0.497 0.138,-0.117 0.206,-0.379 0.323,-0.503 0.235,-0.221 0.47,-0.407 0.669,-0.669 0.214,-0.262 0.228,-0.435 0.331,-0.648 0.028,-0.068 0.29,-0.11 0.331,-0.165 0.166,-0.283 0.187,-0.718 0.331,-1 0.042,-0.09 0.276,-0.234 0.331,-0.331 0.117,-0.228 0.063,-0.428 0.166,-0.655 0.034,-0.083 0.124,-0.007 0.165,-0.165 0.063,-0.249 0.063,-0.338 0.166,-0.504 0.228,-0.338 0.303,-0.751 0.331,-1.165 0.007,-0.145 0.151,-0.117 0.165,-0.152 0.2,-0.71 0.345,-1.544 0.496,-2.316 0.911,-4.641 0.662,-10.047 0.662,-15.571 0,-24.467 0,-50.988 0,-74.799 -0.517,-0.841 -1.068,-1.758 -1.489,-2.317 -0.124,-0.172 -0.207,-0.338 -0.331,-0.497 -0.248,-0.317 -0.559,-0.545 -0.827,-0.821 -0.993,-1.076 -2.007,-2.055 -3.807,-2.655 -2.145,-0.724 -18.157,0.014 -19.653,-0.145 -0.324,-0.021 -0.193,0.317 -0.331,0.49 -0.02,0.033 -0.144,-0.022 -0.164,-0.001 z m -22.55,119.319 c 0,-8.931 0.82,-124.478 0.82,-137.876 0,-1.014 -0.158,-2.172 0,-2.972 0.063,-0.276 0.49,-2.345 0.58,-2.489 0.165,-0.276 39.686,0.696 42.126,0.841 3.469,0.179 6.6,1.234 9.269,2.807 0.09,0.048 -0.021,0.151 0.165,0.166 0.29,0.021 0.4,0.317 0.662,0.496 0.063,0.035 0.29,-0.048 0.331,0 0.048,0.055 0.11,0.29 0.166,0.331 0.124,0.083 0.352,0.062 0.496,0.166 0.138,0.104 0.187,0.393 0.331,0.503 0.158,0.104 0.352,0.048 0.496,0.152 0.139,0.11 0.193,0.407 0.331,0.503 0.159,0.11 0.358,0.042 0.497,0.159 0.269,0.241 0.372,0.538 0.662,0.827 0.627,0.635 1.62,1.373 2.316,2.159 0.049,0.055 -0.055,0.29 0,0.338 0.2,0.152 0.407,0.345 0.662,0.655 0.041,0.048 0.311,0.118 0.331,0.159 0.097,0.228 0.117,0.393 0.331,0.669 0.221,0.296 0.435,0.517 0.662,0.821 0.124,0.172 0.193,0.331 0.331,0.503 0.151,0.193 0.311,0.365 0.496,0.662 0.042,0.083 0.138,0.124 0.166,0.165 0.075,0.125 0.068,0.345 0.165,0.503 0.041,0.048 0.311,0.104 0.331,0.152 0.097,0.234 0.138,0.373 0.331,0.662 0.117,0.193 0.221,0.303 0.331,0.503 0.069,0.124 0.069,0.338 0.165,0.497 0.042,0.062 0.304,0.104 0.324,0.172 0.049,0.083 -0.041,0.248 0,0.317 0.069,0.11 0.283,0.235 0.338,0.338 0.187,0.317 0.297,0.635 0.497,0.993 0.104,0.186 0.221,0.296 0.331,0.503 0.082,0.145 0.317,0.407 0.331,0.655 0.007,0.076 0.124,0.234 0.165,0.324 0.076,0.173 0.317,0.414 0.331,0.669 0,0.048 0.117,0.269 0.158,0.338 0.069,0.083 0.297,0.235 0.338,0.317 0.166,0.331 0.173,0.793 0.331,1.166 0.035,0.076 0.159,-0.007 0.166,0.166 0.007,0.083 0.124,0.241 0.165,0.338 0.076,0.166 0.311,0.393 0.331,0.655 0.007,0.076 0.124,0.235 0.166,0.324 0.068,0.159 0.083,0.311 0.165,0.503 0.166,0.366 0.421,0.676 0.49,0.986 0.186,0.738 0.158,1.938 0.338,2.648 0.11,0.448 1.427,94.963 0.455,101.624 -0.097,0.655 -0.187,1.186 -0.331,1.807 -0.021,0.11 0.027,0.228 0,0.345 -0.104,0.407 -0.311,1.572 -0.504,2.304 -0.041,0.158 -0.083,0.42 -0.158,0.661 -0.049,0.166 -0.11,0.29 -0.166,0.504 -0.034,0.124 -0.158,0.124 -0.165,0.165 -0.097,0.38 -0.056,0.779 -0.166,1.159 -0.007,0.021 -0.145,0.048 -0.165,0.165 -0.083,0.338 -0.234,0.601 -0.331,1 -0.021,0.09 0.041,0.228 0,0.331 -0.041,0.09 -0.304,0.255 -0.331,0.331 -0.11,0.269 -0.083,0.435 -0.165,0.648 -0.056,0.145 -0.09,0.31 -0.166,0.503 -0.048,0.124 -0.083,0.338 -0.165,0.504 -0.056,0.089 -0.29,0.234 -0.331,0.317 -0.11,0.234 -0.049,0.434 -0.166,0.661 -0.048,0.104 -0.289,0.249 -0.331,0.338 -0.131,0.27 -0.192,0.738 -0.331,0.986 -0.048,0.09 -0.158,-0.021 -0.165,0.18 0,0.041 -0.124,0.262 -0.166,0.324 -0.158,0.241 -0.275,0.469 -0.496,0.827 -0.069,0.117 -0.262,0.228 -0.338,0.338 -0.041,0.048 0.063,0.275 0,0.317 -0.048,0.048 -0.283,0.11 -0.324,0.165 -0.09,0.131 -0.062,0.359 -0.165,0.504 -0.173,0.241 -0.47,0.413 -0.662,0.662 -0.131,0.165 -0.2,0.331 -0.331,0.503 -0.552,0.731 -1.524,1.731 -2.317,2.469 -0.262,0.248 -0.545,0.421 -0.827,0.662 -0.214,0.187 -0.441,0.489 -0.662,0.669 -0.104,0.083 -0.214,0.083 -0.331,0.165 -0.104,0.063 -0.297,0.353 -0.504,0.49 -0.145,0.11 -0.345,0.075 -0.489,0.179 -0.11,0.063 -0.228,0.263 -0.331,0.324 -0.289,0.193 -0.71,0.331 -0.993,0.497 -0.104,0.055 -0.248,0.282 -0.338,0.331 -0.179,0.096 -0.324,0.082 -0.489,0.165 -0.642,0.331 -1.745,1.407 -2.441,1.662 -0.669,0.234 -1.42,-0.228 -2.151,0 -0.207,0.069 -0.545,-0.076 -0.827,0 -0.338,0.083 -46.375,0 -46.506,0 -0.752,-0.034 -0.862,0.559 -1.324,0 -0.041,-0.041 -0.269,0.027 -0.317,0.007 -0.007,-0.014 -0.021,-0.027 -0.021,-0.027 -0.007,-0.007 -0.007,-0.007 0,0 0,0.007 0,0.007 0.007,0.021 -0.427,-0.524 -1.303,0.752 -1.489,0 -0.283,-1.104 -0.001,-7.524 -0.001,-9.261 z"
   id="path18"
   style="fill:#ffffff" />
		<path
   d="m 404.067,465.117 c -0.006,-0.007 -0.006,-0.007 0,0 l 0,0 z"
   id="path20"
   style="fill:#ffffff" />
		<path
   d="m 331.751,556.501 c -0.635,-5.406 -1.331,-10.985 -1.986,-16.551 -0.262,-2.262 -0.545,-4.592 -0.827,-6.957 -0.324,-2.745 -0.628,-5.51 -1,-8.275 -0.021,-0.214 0.034,-0.448 0,-0.662 -0.173,-1.289 -0.462,-3.544 -0.655,-5.131 -0.289,-2.393 -0.531,-4.695 -0.827,-7.123 -0.435,-3.545 -0.986,-7.813 -1.324,-11.751 -0.214,-0.027 -0.214,-0.489 0,-0.489 6.233,0 12.468,0 18.701,0 0.242,0.91 0.249,1.883 0.331,2.813 0.27,3.097 0.655,6.73 0.986,10.096 0.034,0.269 -0.034,0.559 0,0.82 0.248,1.683 0.504,4.324 0.669,6.296 0.063,0.696 0.09,1.241 0.166,2.151 0.007,0.11 -0.028,0.228 0,0.331 0.138,0.552 0.234,2.131 0.33,3.151 0.324,3.511 0.801,7.689 1.159,11.406 0.228,2.358 0.399,4.744 0.662,7.123 0.027,0.27 -0.042,0.559 0,0.828 0.523,3.654 0.779,8.089 1.158,12.074 0.358,3.766 0.786,7.496 1.158,11.261 0.097,0.979 0.069,2.014 0.166,2.986 0.014,0.158 0.138,0.372 0.165,0.655 0.104,1.131 0.2,2.386 0.331,3.634 0.027,0.275 -0.041,0.559 0,0.827 0.034,0.256 0.145,0.297 0.159,0.497 0.104,0.972 0.075,1.999 0.165,2.979 0.379,3.759 0.793,7.523 1.165,11.261 0.228,-0.055 0.132,-0.42 0.166,-0.662 1.027,-7.067 2.345,-14.867 3.476,-22.177 1.737,-11.392 3.496,-22.839 5.296,-34.259 0.076,-0.482 0.083,-1.007 0.158,-1.489 0.083,-0.448 0.27,-0.876 0.338,-1.324 0.152,-0.958 0.18,-1.992 0.331,-2.979 0.035,-0.228 0.263,-0.952 0.331,-1.324 0.138,-0.862 0.166,-1.931 0.331,-2.985 0.027,-0.159 0.117,-0.387 0.166,-0.655 0.021,-0.11 -0.028,-0.234 0,-0.331 0.207,-0.821 0.496,-2.689 0.654,-3.807 0.028,-0.158 -0.034,-0.352 0,-0.496 0.076,-0.214 0.249,-1.069 0.339,-1.655 0.345,-2.173 0.689,-4.372 0.992,-6.448 0.021,-0.165 -0.041,-0.358 0,-0.503 0.063,-0.214 0.228,-1.069 0.331,-1.648 0.069,-0.496 0.09,-1.014 0.159,-1.496 0.082,-0.469 0.269,-0.89 0.331,-1.324 0.151,-0.965 0.186,-1.985 0.338,-2.985 0.068,-0.441 0.262,-0.896 0.331,-1.324 0.075,-0.462 -0.042,-0.917 0.165,-1.317 4.413,0 8.827,0 13.233,0 4.675,30.528 9.558,60.835 14.239,91.356 0.338,-0.124 0.104,-0.938 0.166,-1.489 0.014,0 0.151,-0.063 0.165,-0.166 0.09,-1.717 0.311,-3.676 0.49,-5.454 0.034,-0.283 -0.035,-0.565 0,-0.835 0.041,-0.255 0.151,-0.296 0.172,-0.496 0.104,-0.952 0.069,-2 0.166,-2.986 0.372,-3.771 0.82,-7.605 1.158,-11.412 0.579,-6.552 1.345,-13.303 1.986,-20.025 1.523,-15.923 3.082,-32.321 4.634,-48.492 6.233,0 12.468,0 18.701,0 -0.552,6.358 -1.434,12.675 -2.151,19.032 -1.42,12.6 -2.89,25.309 -4.303,38.059 -0.358,3.158 -0.82,6.275 -1.158,9.44 -0.256,2.365 -0.552,4.724 -0.828,7.109 -0.221,1.91 -0.42,3.848 -0.662,5.8 -0.034,0.214 0.028,0.441 0,0.662 -0.496,3.771 -1.027,8.427 -1.489,12.419 -0.069,0.601 -0.11,1.027 -0.165,1.807 -0.014,0.11 0.027,0.234 0,0.345 -0.297,1.173 -0.497,3.496 -0.662,4.958 -0.27,2.38 -0.559,4.724 -0.828,7.117 -0.221,1.958 -0.406,3.931 -0.662,5.958 -0.027,0.207 0.049,0.455 0,0.669 -0.289,1.228 -0.489,3.551 -0.661,5.116 -0.808,6.985 -1.683,14.254 -2.482,21.35 -0.263,2.345 -0.552,4.724 -0.828,7.124 -0.117,1.014 -0.262,2.034 -0.331,2.979 -0.041,0.552 0.056,1.034 -0.331,1.482 -4.931,-0.131 -10.24,0.18 -15.398,0 -0.165,0 -0.724,0.152 -0.82,-0.158 -0.496,-0.007 -0.4,-0.648 -0.496,-1.166 -0.097,-0.469 -0.097,-1.055 -0.166,-1.482 -0.069,-0.448 -0.248,-0.854 -0.331,-1.331 -0.083,-0.476 -0.09,-1.007 -0.172,-1.482 -0.242,-1.565 -0.511,-3.275 -0.821,-4.965 -0.027,-0.151 0.049,-0.352 0,-0.489 -0.234,-0.786 -0.496,-2.696 -0.662,-3.813 -0.021,-0.159 0.042,-0.352 0,-0.497 -0.186,-0.627 -0.316,-2.131 -0.496,-3.151 -0.083,-0.496 -0.255,-0.854 -0.338,-1.323 -0.151,-1.007 -0.158,-1.959 -0.331,-2.973 0,-0.014 -0.151,-0.034 -0.158,-0.165 -0.014,-0.159 0.021,-0.338 0,-0.497 -0.207,-1.406 -0.572,-3.352 -0.828,-4.965 -0.338,-2.124 -0.689,-4.352 -0.993,-6.454 -0.021,-0.159 0.042,-0.352 0,-0.497 -0.062,-0.221 -0.234,-1.055 -0.33,-1.662 -0.076,-0.462 -0.09,-1.007 -0.166,-1.482 -0.076,-0.462 -0.262,-0.89 -0.331,-1.331 -0.289,-1.854 -0.538,-3.751 -0.834,-5.627 -0.718,-4.489 -1.476,-8.992 -2.151,-13.563 -0.015,-0.159 0.041,-0.352 0,-0.497 -0.021,-0.09 -0.159,-0.179 -0.159,-0.165 -0.151,-0.966 -0.172,-1.993 -0.331,-2.979 -0.068,-0.448 -0.248,-0.861 -0.331,-1.331 -0.158,-0.896 -0.158,-1.931 -0.331,-2.972 0,-0.014 -0.158,-0.034 -0.165,-0.158 -0.007,-0.173 0.021,-0.345 0,-0.504 -0.407,-2.765 -1.021,-6.316 -1.489,-9.268 -0.076,-0.483 -0.083,-1.014 -0.166,-1.49 -0.083,-0.469 -0.262,-0.882 -0.331,-1.33 -0.158,-0.993 -0.172,-1.959 -0.331,-2.979 -0.068,-0.441 -0.248,-0.855 -0.331,-1.324 -0.082,-0.42 -0.09,-1.027 -0.172,-1.482 -0.283,-1.848 -0.676,-3.765 -0.821,-5.627 -0.316,0.365 -0.262,0.869 -0.331,1.324 -0.075,0.462 -0.089,1.021 -0.165,1.496 0,0 -0.158,0.027 -0.165,0.151 -0.008,0.166 0.021,0.338 0,0.504 -0.276,1.883 -0.684,4.282 -0.993,6.447 -0.069,0.483 -0.083,1 -0.166,1.49 0,0.021 -0.158,0.041 -0.165,0.172 -0.083,1.613 -0.559,3.683 -0.828,5.462 -0.323,2.124 -0.683,4.344 -0.992,6.454 -0.021,0.151 0.041,0.345 0,0.504 -0.187,0.6 -0.317,2.116 -0.497,3.13 -0.076,0.448 -0.255,0.862 -0.331,1.331 -0.151,0.959 -0.172,1.986 -0.331,2.979 -0.075,0.441 -0.248,0.854 -0.331,1.317 -0.151,0.882 -0.158,1.951 -0.331,2.985 0,0.007 -0.158,0.041 -0.172,0.166 0,0.165 0.027,0.338 0,0.496 -0.049,0.324 -0.131,0.435 -0.159,0.662 -0.145,0.986 -0.186,2 -0.331,2.979 0,0.007 -0.158,0.042 -0.165,0.159 -0.041,0.737 -0.193,1.737 -0.331,2.654 -0.076,0.455 -0.083,0.973 -0.165,1.49 0,0.007 -0.159,0.041 -0.166,0.158 -0.007,0.158 0.027,0.352 0,0.504 -0.317,1.689 -0.669,4.247 -0.993,6.281 -0.228,1.428 -0.435,2.725 -0.662,4.311 -0.068,0.496 -0.089,0.979 -0.165,1.496 0,0 -0.158,0.027 -0.166,0.158 -0.082,1.614 -0.559,3.731 -0.827,5.462 -0.855,5.551 -1.751,11.392 -2.647,17.047 -0.311,1.944 -0.531,3.882 -0.828,5.792 -0.068,0.462 -0.255,0.849 -0.331,1.324 -0.138,0.862 -0.165,1.924 -0.338,2.972 -0.021,0.166 -0.11,0.394 -0.158,0.676 -0.035,0.214 0.068,0.463 -0.173,0.49 -1.241,0.296 -2.613,0.165 -3.972,0.158 -2.669,0 -5.42,0.007 -8.275,0 -1.352,0 -2.717,0.138 -3.972,-0.158 -0.248,-0.745 -0.228,-1.524 -0.331,-2.311 -0.62,-5.227 -1.317,-11.144 -1.979,-16.55 -0.345,-2.772 -0.647,-5.496 -0.992,-8.282 -0.028,-0.221 0.027,-0.448 0,-0.662 -0.283,-2.096 -0.711,-5.199 -1,-7.612 -0.828,-7.199 -1.669,-15.033 -2.642,-22.35 -0.027,-0.214 0.027,-0.435 0,-0.655 -0.034,-0.262 -0.145,-0.282 -0.165,-0.496 -0.193,-1.607 -0.297,-3.173 -0.497,-4.8 -0.345,-2.869 -0.807,-6.337 -1.158,-9.434 -0.785,-6.831 -1.668,-14.182 -2.488,-21.181 z"
   id="path22"
   style="fill:#ffffff" />
		<path
   d="m 386.366,465.138 c -17.709,0 -35.424,0 -53.126,0 0,-50.705 0,-101.396 0,-152.095 -0.014,-0.242 -0.027,-0.469 0.166,-0.503 17.653,0 35.307,0 52.96,0 0,6.744 0,13.467 0,20.198 -11.806,0 -23.611,0 -35.424,0 -0.29,0.083 -0.152,0.821 -0.159,1.324 -0.186,14.136 0.146,29.176 0,43.526 0.193,0.331 0.552,0.152 0.828,0.166 8.578,0.29 17.963,0 26.811,0 1.262,0 2.586,-0.131 3.807,0.166 -0.056,5.889 0.076,12.013 0,18.033 -0.007,0.724 0.131,1.593 -0.165,2.324 -1.228,0.296 -2.572,0.166 -3.813,0.166 -8.751,0 -18.426,0 -27.467,0 0,14.895 0,29.791 0,44.692 11.861,0 23.722,0 35.583,0 -0.001,7.328 -0.001,14.666 -0.001,22.003 z"
   id="path24"
   style="fill:#ffffff" />
		<path
   d="m 284.252,249.815 c -0.317,-2.6 0.297,-122.87 -0.165,-123.953 0.262,-0.255 15.681,-0.213 19.025,0 0.545,1.386 0.345,122.326 0.835,123.629 0.021,0.055 -0.042,0.29 0,0.324 0.007,0.014 0.158,-0.007 0.165,0 0.138,0.379 0.18,0.841 0.331,1.165 0.041,0.076 0.158,-0.021 0.165,0.159 0.015,0.242 0.317,0.359 0.324,0.662 0.021,0.248 0.324,0.366 0.331,0.669 0,0.042 -0.014,0.131 0,0.159 0.124,0.2 0.38,0.31 0.504,0.503 0.041,0.055 -0.056,0.283 0,0.331 0.158,0.131 0.207,0.151 0.331,0.324 0.131,0.193 0.352,0.304 0.496,0.503 0.042,0.055 -0.055,0.29 0,0.331 0.159,0.131 0.207,0.159 0.331,0.331 0.365,0.49 34.424,0.607 34.755,0.324 0.131,-0.117 0.373,0.117 0.497,0 0.289,-0.269 0.758,-1.014 1.158,-1.49 0.117,-0.131 0.221,-0.145 0.331,-0.324 0.131,-0.214 0.304,-0.352 0.496,-0.662 0.063,-0.11 0.09,-0.228 0.166,-0.331 0.117,-0.166 0.393,-0.338 0.489,-0.497 0.11,-0.172 0.083,-0.345 0.173,-0.497 0.041,-0.089 0.158,0.021 0.158,-0.166 0.021,-0.234 0.324,-0.358 0.338,-0.655 0,-0.042 -0.021,-0.145 0,-0.179 0.049,-0.104 0.276,-0.235 0.331,-0.324 0.034,-0.062 -0.048,-0.29 0,-0.338 0.021,-0.007 0.151,0.034 0.166,0 0.034,-0.055 -0.049,-0.29 0,-0.324 0.021,-0.014 0.158,0.021 0.165,0 0.027,-0.062 -0.048,-0.296 0,-0.338 0.269,-0.214 0.345,-6.413 0.331,-7.613 -0.255,-24.57 0,-50.105 0,-74.965 0,-7.089 -0.407,-40.003 -0.166,-40.713 0.58,-0.503 18.923,-0.166 19.033,0 0.104,0.152 0.255,-0.221 0.324,0 0.296,0.855 0.269,123.229 -0.159,125.118 -0.021,0.104 0.028,0.228 0,0.331 -0.027,0.11 -0.165,0.145 -0.165,0.166 -0.152,0.752 -0.159,1.565 -0.331,2.31 0,0 -0.151,0.076 -0.166,0.166 -0.104,0.421 -0.179,1.048 -0.331,1.662 -0.034,0.124 -0.151,0.124 -0.165,0.166 -0.165,0.614 -0.145,1.048 -0.338,1.648 0,0.028 -0.131,0.055 -0.166,0.172 -0.075,0.338 -0.228,0.6 -0.33,0.993 -0.069,0.31 0.014,0.42 -0.159,0.821 -0.041,0.103 -0.304,0.269 -0.331,0.338 -0.034,0.089 0.027,0.234 0,0.324 -0.041,0.172 -0.214,0.373 -0.331,0.669 -0.131,0.324 -0.2,0.689 -0.331,0.993 -0.048,0.11 -0.282,0.234 -0.331,0.324 -0.172,0.331 -0.138,0.551 -0.338,1.007 -0.027,0.062 -0.151,-0.021 -0.158,0.166 -0.014,0.303 -0.642,0.613 -0.662,0.979 -0.014,0.29 -0.489,0.338 -0.496,0.669 -0.014,0.241 -0.448,0.4 -0.662,0.662 -0.11,0.138 -0.049,0.365 -0.173,0.496 -0.172,0.193 -0.559,0.503 -0.82,0.828 -0.276,0.345 -0.559,0.552 -0.827,0.993 -0.173,0.269 -0.524,0.51 -0.835,0.828 -1.11,1.179 -2.165,2.365 -3.469,3.475 -0.221,0.187 -0.435,0.317 -0.662,0.497 -0.158,0.131 -0.345,0.373 -0.496,0.49 -0.11,0.09 -0.234,0.269 -0.331,0.338 -0.063,0.048 -0.29,-0.055 -0.331,0 -0.104,0.124 -0.207,0.407 -0.338,0.49 -0.055,0.048 -0.282,-0.048 -0.324,0 -0.021,0.027 0.027,0.151 0,0.172 -0.131,0.083 -0.358,0.062 -0.496,0.166 -0.076,0.062 -0.097,0.283 -0.166,0.324 -0.165,0.118 -0.338,0.083 -0.496,0.173 -0.09,0.048 0.021,0.158 -0.166,0.165 -0.282,0.014 -0.53,0.331 -0.827,0.497 -0.269,0.152 -0.559,0.179 -0.827,0.331 -0.11,0.055 -0.234,0.276 -0.331,0.331 -0.063,0.028 -0.29,-0.055 -0.331,0 -0.173,0.207 -0.482,0.352 -0.835,0.49 -0.352,0.159 -0.834,0.324 -1.316,0.503 -0.056,0.027 -0.297,-0.048 -0.331,0 -0.2,0.241 -0.966,0.345 -1.49,0.497 -0.055,0.014 -0.296,-0.042 -0.33,0 -0.27,0.324 -37.624,0.538 -38.728,0.172 -0.269,-0.097 -0.518,-0.207 -0.827,-0.338 -0.249,-0.097 -0.594,-0.235 -0.835,-0.331 -0.275,-0.124 -0.696,-0.476 -0.986,-0.503 -0.034,0 -0.399,-0.117 -0.496,-0.159 -0.11,-0.062 -0.234,-0.276 -0.338,-0.331 -0.055,-0.027 -0.282,0.055 -0.331,0 -0.007,-0.021 0.027,-0.152 0,-0.172 -0.055,-0.027 -0.282,0.062 -0.324,0 -0.021,-0.014 0.021,-0.152 0,-0.159 -0.062,-0.034 -0.289,0.048 -0.331,0 -0.165,-0.2 -0.296,-0.482 -0.662,-0.497 -0.034,0 -0.138,0.014 -0.165,0 -0.18,-0.117 -0.297,-0.358 -0.497,-0.496 -0.124,-0.083 -0.358,-0.069 -0.496,-0.173 -0.083,-0.048 -0.09,-0.262 -0.165,-0.324 -0.125,-0.097 -0.359,-0.062 -0.497,-0.166 -0.083,-0.069 -0.083,-0.276 -0.165,-0.331 -0.131,-0.097 -0.352,-0.062 -0.497,-0.159 -0.097,-0.083 -0.303,-0.655 -0.662,-0.669 -0.323,-0.021 -0.834,-0.841 -1.158,-1.166 -0.655,-0.648 -1.413,-1.124 -1.986,-1.986 -0.062,-0.09 -0.151,0.028 -0.165,-0.159 -0.014,-0.241 -0.448,-0.407 -0.662,-0.662 -0.151,-0.193 -0.187,-0.469 -0.331,-0.668 -0.117,-0.138 -0.489,-0.166 -0.496,-0.49 -0.007,-0.124 -0.304,-0.393 -0.497,-0.662 -0.282,-0.407 -0.552,-0.896 -0.827,-1.324 -0.076,-0.124 -0.255,-0.228 -0.331,-0.331 -0.138,-0.193 -0.297,-0.662 -0.496,-0.993 -0.063,-0.11 -0.276,-0.241 -0.331,-0.338 -0.035,-0.048 0.041,-0.283 0,-0.324 -0.146,-0.117 -0.297,-0.317 -0.504,-0.655 -0.545,-0.952 -1.068,-1.848 -1.482,-2.821 -0.655,-1.558 -1.138,-3.468 -1.655,-5.461 -0.014,-0.034 -0.158,-0.021 -0.165,-0.159 0,-0.076 0.041,-0.462 0,-0.503 -0.221,-0.186 -0.049,-0.29 -0.166,-0.827 -0.007,-0.028 -0.158,-0.021 -0.165,-0.172 -0.027,-0.565 -0.207,-1.234 -0.331,-1.979 -0.08,-0.49 -0.08,-0.766 -0.17,-1.497 z"
   id="path26"
   style="fill:#ffffff" />
		<path
   d="m 262.406,539.619 c 0,19.074 -0.745,79.068 -0.662,79.269 0.035,0.082 0.29,0.228 0.331,0.338 0.042,0.089 -0.034,0.221 0,0.324 0.035,0.138 0.138,0.11 0.166,0.165 0.366,0.917 0.642,1.538 1.159,2.311 0.469,0.71 0.813,1.007 1.324,1.489 0.428,0.406 1.117,1.296 1.655,1.324 0.303,0.021 0.42,0.331 0.662,0.338 0.317,0.014 0.503,0.248 0.827,0.338 0.249,0.055 0.297,0.138 0.662,0.151 0.131,0.021 0.138,0.165 0.166,0.172 0.207,0.035 0.448,-0.014 0.662,0 0.11,0 0.166,0.173 0.166,0.173 1.283,0.151 2.944,0 4.634,0 2.965,0 6.475,0 9.268,0 2.2,0 4.517,0.2 5.131,-0.173 0.316,-0.192 0.613,-0.323 0.827,-0.489 0.097,-0.083 0.221,-0.248 0.331,-0.338 0.207,-0.187 0.455,-0.455 0.662,-0.662 0.255,-0.262 0.517,-0.496 0.662,-0.662 0.228,-0.269 0.331,-0.572 0.496,-0.827 0.069,-0.104 0.262,-0.214 0.331,-0.331 0.104,-0.165 0.063,-0.317 0.166,-0.503 0.055,-0.09 0.269,-0.214 0.323,-0.317 0.097,-0.18 0.104,-0.373 0.173,-0.497 0.158,-0.316 0.241,-0.689 0.496,-0.834 0.104,-3.158 1.09,-87.025 0.828,-89.701 0,-0.007 -0.152,0.007 -0.166,0 -0.034,-0.027 0.007,-0.283 0,-0.331 -0.097,-0.807 -0.31,-1.565 -0.331,-1.993 -0.007,-0.158 -0.145,-0.104 -0.165,-0.158 -0.18,-0.538 -0.145,-0.849 -0.331,-0.993 -0.048,-0.034 0.027,-0.275 0,-0.331 -0.007,-0.021 -0.145,0.014 -0.173,0 -0.041,-0.034 0.042,-0.275 0,-0.331 -0.007,-0.027 -0.138,0.014 -0.158,0 -0.055,-0.041 0.034,-0.275 0,-0.331 -0.055,-0.097 -0.269,-0.228 -0.331,-0.331 -0.014,-0.027 0,-0.131 0,-0.172 -0.014,-0.304 -0.358,-0.38 -0.496,-0.483 -0.063,-0.055 0.041,-0.282 0,-0.345 -0.063,-0.068 -0.256,-0.241 -0.331,-0.324 -0.166,-0.179 -0.676,-0.572 -0.835,-0.661 -0.269,-0.173 -0.441,-0.49 -0.655,-0.497 -0.303,-0.021 -0.42,-0.317 -0.661,-0.324 -0.18,-0.021 -0.083,-0.131 -0.166,-0.172 -0.482,-0.228 -1.083,-0.4 -1.489,-0.497 -0.345,-0.082 -0.689,-0.241 -1.158,-0.331 -1.076,-0.221 -2.18,-0.165 -3.476,-0.165 -3.241,0 -6.786,0 -9.93,0 -1.924,0 -4.379,-0.2 -5.462,0.165 -0.565,0.193 -1.262,0.441 -1.82,0.828 -0.028,0.014 0.021,0.138 0,0.172 -0.042,0.042 -0.269,-0.055 -0.331,0 -0.083,0.049 -0.241,0.241 -0.331,0.324 -0.104,0.09 -0.234,0.228 -0.331,0.331 -0.255,0.248 -0.221,0.407 -0.331,0.662 -0.027,0.048 -0.29,0.104 -0.331,0.165 -0.048,0.083 0.041,0.249 0,0.324 -0.035,0.063 -0.29,0.097 -0.331,0.173 -0.083,0.145 -0.117,0.386 -0.166,0.489 -0.138,0.365 -0.269,0.676 -0.331,0.828 -0.124,0.331 -0.269,0.758 -0.331,1.007 -0.131,0.517 -0.145,0.744 -0.166,1.151 -0.007,0.131 -0.166,0.151 -0.166,0.165 -0.048,0.263 0.035,0.552 0,0.828 -0.359,2.929 -0.166,6.68 -0.166,10.1 z m -18.867,85.896 c -0.145,-0.869 -0.193,-1.428 -0.331,-2.324 -0.089,-0.559 -0.275,-1.372 -0.331,-2.145 -0.207,-2.896 0,-5.848 0,-8.944 0,-26.287 0,-53.622 0,-80.102 0,-2.89 0.014,-5.489 0.331,-8.109 0.007,-0.056 -0.034,-0.304 0,-0.338 0.228,-0.18 0.228,-1.11 0.331,-1.648 0.014,-0.056 -0.034,-0.304 0,-0.338 0.166,-0.131 0.276,-0.71 0.331,-0.979 0.124,-0.62 0.228,-1.482 0.497,-2.158 0.021,-0.063 -0.048,-0.29 0,-0.331 0.186,-0.158 0.159,-0.489 0.331,-0.993 0.021,-0.062 0.159,-0.007 0.166,-0.158 0.021,-0.358 0.186,-0.621 0.331,-1.007 0.021,-0.049 -0.042,-0.29 0,-0.324 0.152,-0.124 0.255,-0.304 0.331,-0.496 0.021,-0.063 -0.042,-0.297 0,-0.324 0.145,-0.124 0.255,-0.311 0.331,-0.497 0.021,-0.068 -0.048,-0.296 0,-0.338 0.021,-0.021 0.158,0.014 0.166,0 0.021,-0.055 -0.048,-0.296 0,-0.331 0.021,-0.021 0.158,0.014 0.166,0 0.027,-0.055 -0.048,-0.296 0,-0.338 0.234,-0.192 0.427,-0.786 0.662,-1.316 0.035,-0.076 0.159,0.007 0.166,-0.173 0.007,-0.138 0.249,-0.365 0.331,-0.489 0.11,-0.18 0.159,-0.394 0.331,-0.655 0.062,-0.104 0.159,0.014 0.166,-0.18 0.014,-0.262 0.31,-0.559 0.497,-0.82 0.096,-0.145 0.248,-0.214 0.331,-0.331 0.034,-0.055 -0.055,-0.29 0,-0.338 0.124,-0.097 0.407,-0.2 0.497,-0.324 0.041,-0.062 -0.055,-0.282 0,-0.331 0.138,-0.117 0.482,-0.193 0.496,-0.496 0.014,-0.256 0.435,-0.373 0.662,-0.662 0.048,-0.056 -0.055,-0.29 0,-0.331 0.779,-0.642 1.813,-1.648 2.648,-2.476 0.373,-0.379 0.586,-0.827 0.993,-1.165 0.131,-0.118 0.373,-0.049 0.497,-0.166 0.076,-0.076 0.089,-0.269 0.166,-0.331 0.131,-0.104 0.352,-0.062 0.497,-0.165 0.083,-0.063 0.083,-0.276 0.165,-0.338 0.379,-0.276 0.917,-0.531 1.324,-0.821 0.131,-0.089 0.166,-0.234 0.331,-0.331 0.104,-0.068 0.221,-0.096 0.331,-0.172 0.117,-0.076 0.228,-0.248 0.331,-0.324 0.11,-0.083 0.213,-0.09 0.331,-0.166 0.455,-0.296 0.875,-0.565 1.324,-0.827 0.931,-0.552 1.855,-1.075 2.813,-1.496 0.704,-0.304 2.669,-0.166 3.972,-0.166 5.275,0.014 11.274,0 16.881,0 2.828,0.014 5.799,-0.248 7.944,0.338 0.421,0.11 0.883,0.193 1.324,0.331 0.241,0.069 0.662,0.2 0.993,0.331 0.104,0.035 0.131,0.159 0.165,0.166 0.435,0.158 0.938,0.179 1.324,0.331 0.069,0.021 -0.007,0.151 0.159,0.165 0.131,0 0.683,0.187 0.999,0.338 0.076,0.021 -0.014,0.145 0.166,0.151 0.083,0.015 0.234,0.125 0.331,0.18 0.406,0.173 1.041,0.365 1.489,0.648 0.18,0.124 0.311,0.214 0.497,0.338 0.055,0.034 0.151,0.158 0.158,0.165 0.228,0.104 0.455,0.042 0.669,0.166 0.069,0.034 0.11,0.304 0.165,0.338 0.324,0.138 0.518,0.124 0.828,0.317 0.09,0.062 -0.028,0.158 0.165,0.172 0.221,0.014 0.263,0.317 0.497,0.331 0.048,0 0.275,0.124 0.331,0.159 0.062,0.041 0.117,0.31 0.165,0.338 0.083,0.034 0.248,-0.049 0.331,0 0.063,0.034 0.11,0.303 0.165,0.33 0.076,0.042 0.263,-0.048 0.331,0 0.304,0.235 0.552,0.587 0.828,0.835 1.228,1.062 2.352,2.158 3.31,3.303 0.993,1.193 1.835,2.559 2.648,3.973 0.399,0.696 0.82,1.399 1.158,2.151 0.097,0.234 0.048,0.42 0.166,0.662 0.041,0.075 0.158,-0.021 0.165,0.158 0.007,0.187 0.372,1.027 0.496,1.324 0.117,0.296 0.317,0.931 0.49,1.489 0.083,0.248 0.317,0.614 0.338,1 0.021,0.331 0.062,0.518 0.165,0.986 0,0.034 0.159,0.027 0.166,0.172 0.027,0.455 0.041,0.621 0.165,1.159 0.007,0.027 0.159,0.021 0.166,0.172 0.007,0.145 -0.035,0.331 0,0.482 0.386,1.842 0.647,3.648 0.82,5.8 0.345,4.068 0.503,86.474 -0.324,93.508 -0.779,6.654 -2.703,12.778 -5.627,17.708 -0.827,1.394 -1.841,2.8 -2.979,4.145 -0.338,0.387 -0.786,0.766 -1.166,1.152 -0.358,0.379 -0.737,0.786 -1.151,1.151 -0.221,0.2 -0.469,0.324 -0.662,0.503 -0.2,0.18 -0.317,0.511 -0.496,0.662 -0.139,0.11 -0.366,0.041 -0.497,0.173 -0.075,0.055 -0.09,0.262 -0.165,0.324 -0.152,0.11 -0.366,0.041 -0.497,0.165 -0.075,0.063 -0.097,0.275 -0.165,0.324 -0.152,0.11 -0.352,0.09 -0.497,0.172 -0.089,0.049 0.021,0.152 -0.172,0.166 -0.193,0.014 -0.531,0.372 -0.82,0.496 -0.497,0.207 -0.932,0.193 -1.49,0.331 -0.034,0.007 -0.021,0.152 -0.165,0.166 -0.441,0.021 -0.635,0.027 -1.158,0.172 -0.042,0 -0.015,0.146 -0.166,0.166 -0.062,0 -0.462,-0.056 -0.503,0 -0.152,0.179 -0.49,0 -0.655,0.158 -0.021,0.014 0.014,0.159 0,0.159 -0.124,0.034 -0.572,-0.083 -0.662,0 -0.014,0.014 0.014,0.165 0,0.172 -0.124,0.027 -0.579,-0.09 -0.662,0 -0.014,0.014 0.014,0.159 0,0.173 -0.262,0.062 -0.545,0.082 -0.827,0.158 -0.565,0.145 -1.27,0.324 -1.986,0.496 -0.441,0.097 -6.537,0.421 -6.786,0.497 -0.151,0.041 -0.276,0.11 -0.497,0.172 -0.11,0.021 -0.151,0.152 -0.166,0.159 -0.896,0.165 -1.71,0.021 -2.648,0 -2.303,-0.063 -4.772,-0.104 -6.951,-0.331 -3.758,-0.4 -7.792,-1.09 -11.089,-2.151 -0.338,-0.11 -0.82,-0.221 -1.158,-0.331 -0.242,-0.083 -0.531,-0.255 -0.828,-0.338 -0.345,-0.083 -0.538,-0.193 -0.828,-0.324 -0.676,-0.311 -1.696,-0.759 -2.482,-1.151 -0.138,-0.083 -0.324,-0.083 -0.497,-0.173 -0.11,-0.062 -0.234,-0.275 -0.331,-0.338 -0.317,-0.172 -0.683,-0.297 -0.993,-0.489 -0.09,-0.056 0.027,-0.159 -0.166,-0.159 -0.193,-0.021 -0.428,-0.338 -0.662,-0.503 -0.172,-0.124 -0.324,-0.2 -0.497,-0.338 -0.255,-0.187 -0.469,-0.387 -0.828,-0.662 -0.558,-0.414 -1.248,-1.158 -1.82,-1.813 -0.221,-0.255 -0.455,-0.579 -0.662,-0.828 -0.179,-0.228 -0.51,-0.44 -0.662,-0.654 -0.042,-0.069 0.055,-0.29 0,-0.331 -0.249,-0.214 -0.269,-0.317 -0.497,-0.669 -0.035,-0.063 -0.11,-0.455 -0.166,-0.504 -0.249,-0.192 -0.269,-0.303 -0.497,-0.662 -0.104,-0.151 -0.166,-0.559 -0.331,-0.985 -0.027,-0.063 -0.159,0 -0.166,-0.166 0,-0.048 0.014,-0.131 0,-0.165 -0.108,-0.28 -3.549,-8.803 -3.97,-11.25 z"
   id="path28"
   style="fill:#ffffff" />
		<path
   d="m 225.5,150.032 c -0.544,0.648 -1.634,104.031 -0.324,105.638 1.096,0.296 24.101,-0.731 24.983,-2.041 0.172,-0.255 0.324,-0.518 0.497,-0.828 0.09,-0.172 0.448,-0.71 0.497,-0.828 0.124,-0.262 0.207,-0.51 0.331,-0.834 0.365,-0.945 0.786,-2.476 0.993,-3.303 0.028,-0.097 -0.027,-0.235 0,-0.331 1.104,-4 0.662,-9.848 0.662,-14.729 0,-24.143 0,-49.147 0,-73.482 0,-0.972 0.159,-2.151 0,-2.807 -0.089,-0.393 -0.324,-0.531 -0.497,-0.669 -0.055,-0.048 0.042,-0.276 0,-0.331 -0.034,-0.055 -0.276,-0.124 -0.331,-0.172 -0.055,-0.041 0.042,-0.262 0,-0.324 -0.034,-0.055 -0.275,-0.125 -0.331,-0.166 -0.055,-0.048 0.041,-0.276 0,-0.338 -0.042,-0.055 -0.269,-0.11 -0.331,-0.152 -0.055,-0.055 0.048,-0.283 0,-0.338 -0.11,-0.138 -0.379,-0.193 -0.497,-0.331 -0.296,-0.352 -0.435,-0.766 -0.662,-0.993 -0.214,-0.221 -0.531,-0.434 -0.828,-0.662 -0.427,-0.338 -0.903,-0.669 -1.158,-0.834 -0.221,-0.138 -0.517,-0.317 -0.662,-0.324 -0.179,-0.014 -0.083,-0.131 -0.166,-0.166 -0.241,-0.11 -0.42,-0.069 -0.662,-0.172 -0.048,-0.014 -0.055,-0.11 -0.166,-0.166 -0.041,-0.014 -0.131,0.007 -0.166,0 -0.151,-0.007 -0.131,-0.152 -0.166,-0.152 -1.055,-0.29 -2.365,-0.166 -3.641,-0.166 -1.338,0 -2.676,0 -3.972,0 -2.786,0 -5.593,0.228 -7.944,0 -0.435,-0.055 -0.586,0.021 -0.993,0 -0.145,-0.007 -0.131,0 -0.166,0 -0.476,-0.117 -0.924,0.083 -1.324,0 -0.034,-0.007 -0.048,0.021 -0.166,0 -0.103,-0.034 -0.228,0.014 -0.331,0 -0.766,-0.172 -1.311,0.138 -1.986,0 -0.317,-0.027 -0.193,-0.186 -0.331,0 -0.017,0.015 -0.141,-0.033 -0.162,0.001 z M 204.15,274.64 c -0.283,-1.131 0.827,-129.125 0.827,-142.489 0,-0.993 -0.159,-2.213 0,-2.986 0.028,-0.138 -0.062,-0.365 0,-0.49 0.042,-0.096 0.283,-0.096 0.331,-0.172 0.042,-0.048 -0.055,-0.283 0,-0.324 0.166,-0.138 0.607,-0.379 0.828,-0.662 0.048,-0.062 -0.055,-0.283 0,-0.324 0.29,-0.241 0.338,-0.303 0.828,-0.669 3.938,0 42.981,1.303 43.857,1.49 0.552,0.11 1.124,0.166 1.655,0.324 0.055,0.021 0.007,0.166 0.166,0.166 0.262,0.014 0.297,0.104 0.497,0.172 0.359,0.11 0.71,0.138 0.993,0.331 0.062,0.042 0.448,0.104 0.497,0.159 0.069,0.097 1.103,0.655 1.324,0.662 0.214,0.014 0.214,0.241 0.331,0.338 0.062,0.042 0.283,-0.055 0.331,0 0.021,0.027 -0.021,0.152 0,0.166 0.062,0.034 0.29,-0.055 0.331,0 0.131,0.159 0.138,0.214 0.331,0.331 0.207,0.117 0.462,0.2 0.662,0.331 0.172,0.11 0.31,0.379 0.496,0.503 0.235,0.145 0.49,0.186 0.662,0.317 0.145,0.117 0.172,0.49 0.497,0.503 0.124,0 0.455,0.324 0.662,0.497 0.331,0.276 0.641,0.669 0.993,0.986 0.359,0.338 0.662,0.648 0.993,1 0.311,0.331 0.689,0.642 0.993,0.993 1.234,1.435 2.414,2.993 3.476,4.634 0.276,0.428 0.524,0.841 0.827,1.331 0.09,0.131 0.324,0.304 0.331,0.483 0.014,0.214 0.242,0.214 0.331,0.338 0.042,0.062 -0.055,0.283 0,0.324 0.021,0.021 0.152,-0.014 0.166,0 0.035,0.062 -0.048,0.29 0,0.338 0.021,0.014 0.159,-0.014 0.166,0 0.028,0.055 -0.048,0.29 0,0.331 0.152,0.125 0.303,0.317 0.497,0.655 0.172,0.317 0.269,0.648 0.497,1 0.062,0.089 0.159,-0.028 0.166,0.166 0.014,0.234 0.317,0.352 0.331,0.669 0.014,0.228 0.317,0.345 0.331,0.655 0.014,0.235 0.317,0.359 0.331,0.662 0.014,0.234 0.317,0.352 0.331,0.669 0.014,0.228 0.317,0.345 0.331,0.655 0.021,0.414 0.441,0.986 0.662,1.496 0.027,0.048 -0.048,0.283 0,0.317 0.021,0.021 0.159,-0.014 0.166,0 0.027,0.062 -0.048,0.296 0,0.338 0.283,0.234 0.241,1.586 0.331,2.476 0.076,0.759 0.255,1.552 0.331,2.324 0.145,1.552 0.145,3.559 0.496,4.972 0.048,0.172 -0.034,0.593 0,0.979 0.09,0.979 0.09,76.323 0,81.599 -0.007,0.559 0.131,1.048 0,1.655 -0.228,1.034 -0.172,3.179 -0.331,4.634 -0.021,0.145 -0.152,0.269 -0.166,0.497 -0.055,0.51 0.014,1.234 -0.166,1.986 -0.055,0.221 -0.104,0.317 -0.166,0.828 -0.007,0.048 0.034,0.303 0,0.331 -0.276,0.228 0.104,0.772 -0.166,0.993 -0.214,0.172 -0.352,1.345 -0.497,1.986 -0.09,0.4 -0.255,0.676 -0.331,0.993 -0.076,0.311 -0.104,0.435 -0.166,0.662 -0.152,0.572 -0.138,0.903 -0.331,1.49 -0.021,0.055 -0.159,0 -0.166,0.159 -0.014,0.324 -0.331,0.889 -0.497,1.331 -0.021,0.055 0.048,0.296 0,0.338 -0.151,0.117 -0.255,0.296 -0.331,0.483 -0.021,0.062 0.041,0.296 0,0.338 -0.221,0.186 -0.593,1.014 -0.828,1.489 -0.131,0.262 -0.2,0.573 -0.331,0.821 -0.055,0.117 -0.276,0.248 -0.331,0.338 -0.035,0.055 0.048,0.29 0,0.331 -0.2,0.166 -0.476,0.296 -0.497,0.662 0,0.034 0.021,0.138 0,0.158 -0.11,0.193 -0.365,0.29 -0.497,0.497 -0.11,0.172 -0.041,0.373 -0.166,0.503 -0.062,0.069 -0.283,0.097 -0.331,0.166 -0.104,0.152 -0.083,0.345 -0.166,0.503 -0.048,0.083 -0.159,-0.034 -0.166,0.159 -0.014,0.255 -0.435,0.365 -0.662,0.662 -0.048,0.055 0.055,0.283 0,0.331 -0.228,0.193 -0.704,0.496 -0.993,0.834 -0.11,0.125 -0.048,0.338 -0.166,0.483 -0.069,0.104 -0.248,0.083 -0.331,0.172 -0.2,0.2 -0.296,0.497 -0.496,0.662 -0.055,0.042 -0.283,-0.055 -0.331,0 -0.187,0.234 -0.49,0.703 -0.828,0.993 -0.131,0.11 -0.352,0.048 -0.497,0.158 -0.09,0.069 -0.083,0.269 -0.166,0.338 -0.407,0.317 -0.855,0.503 -1.324,0.828 -0.118,0.076 -0.228,0.249 -0.331,0.331 -0.172,0.124 -0.393,0.152 -0.662,0.338 -0.09,0.048 0.027,0.145 -0.166,0.159 -0.035,0 -0.138,-0.021 -0.166,0 -0.104,0.062 -0.234,0.276 -0.331,0.331 -0.062,0.027 -0.296,-0.055 -0.331,0 -0.51,0.621 -1.944,0.931 -2.979,1.324 -0.055,0.021 -0.296,-0.041 -0.331,0 -0.234,0.297 -0.91,0.304 -1.489,0.49 -0.055,0.021 0,0.159 -0.166,0.172 -0.2,0.014 -0.669,0.228 -0.993,0.331 -0.593,0.193 -47.388,0.255 -47.664,-0.166 -0.201,-0.335 -1.029,-1.156 -1.153,-1.666 z"
   id="path30"
   style="fill:#ffffff" />
		<path
   d="m 307.415,465.138 c -17.701,0 -35.41,0 -53.118,0 -0.29,-1.524 -0.166,-3.075 -0.166,-4.627 0,-48.781 0,-98.487 0,-147.468 0.145,-0.131 0.097,-0.455 0.331,-0.503 17.653,0 35.306,0 52.953,0 0,6.744 0,13.467 0,20.198 -11.86,0 -23.714,0 -35.575,0 0,14.957 0,29.9 0,44.851 0.193,0.331 0.552,0.152 0.828,0.166 9.737,0.331 20.425,-0.255 30.445,0 -0.048,6 0.083,12.24 0,18.371 0,0.717 0.138,1.579 -0.158,2.317 -10.316,0 -20.633,0 -30.949,0 -0.296,0.083 -0.159,0.828 -0.166,1.331 -0.186,14.04 0.138,29.018 0,43.361 11.861,0 23.715,0 35.575,0 0,7.328 0,14.666 0,22.003 z"
   id="path32"
   style="fill:#ffffff" />
		<path
   d="m 189.751,335.882 c -0.944,1.2 -0.827,36.748 -0.827,40.706 0,2.779 -0.187,5.482 0,7.958 0.055,0.717 0.041,1.551 0.497,2.151 0.655,0.352 1.827,0.062 2.151,0 0.159,-0.042 0.338,0.007 0.497,0 1.048,-0.124 10.647,-0.455 12.412,-0.834 0.421,-0.096 1.124,-0.42 1.324,-0.497 0.373,-0.145 0.683,-0.193 0.993,-0.338 0.331,-0.145 0.676,-0.317 0.993,-0.482 0.304,-0.179 0.586,-0.497 0.828,-0.503 0.193,-0.014 0.069,-0.11 0.166,-0.166 0.145,-0.097 0.338,-0.055 0.497,-0.166 0.138,-0.097 0.193,-0.393 0.331,-0.497 0.069,-0.055 0.248,0.035 0.331,0 0.048,-0.021 0.117,-0.296 0.166,-0.338 0.158,-0.131 0.345,-0.193 0.496,-0.317 0.304,-0.269 0.565,-0.586 0.828,-0.834 0.138,-0.138 0.373,-0.179 0.497,-0.331 0.131,-0.152 0.138,-0.414 0.331,-0.503 0.352,-0.552 0.669,-0.586 0.828,-1.152 0.179,-0.648 0.579,-36.168 0.662,-37.237 -0.393,-0.676 -0.517,-1.455 -0.827,-2.151 -0.035,-0.083 -0.125,0 -0.166,-0.166 -0.062,-0.242 -0.062,-0.338 -0.166,-0.497 -0.069,-0.117 -0.11,-0.221 -0.166,-0.338 -0.166,-0.311 -0.483,-0.565 -0.497,-0.814 -0.007,-0.2 -0.104,-0.083 -0.166,-0.172 -0.228,-0.358 -0.269,-0.482 -0.497,-0.662 -0.055,-0.048 0.048,-0.269 0,-0.338 -0.2,-0.255 -0.565,-0.393 -0.828,-0.662 -0.228,-0.228 -0.427,-0.635 -0.662,-0.821 -0.269,-0.214 -0.524,-0.2 -0.828,-0.331 -0.062,-0.027 -0.09,-0.296 -0.166,-0.338 -0.095,-0.033 -18.314,-0.247 -19.032,0.67 z m -19.859,129.145 c 0,0 -0.8,-0.014 -1.324,0 -0.42,-0.497 1.655,-152.488 1.655,-152.488 h 0.331 c 0,0 41.223,-0.924 42.368,-0.662 0.124,0.035 0.579,-0.083 0.662,0 0.125,0.124 0.125,0.117 0.331,0.172 0.159,0.035 0.414,0.09 0.662,0.166 0.152,0.042 0.276,0.11 0.497,0.166 0.159,0.035 0.414,0.09 0.662,0.159 0.151,0.048 0.276,0.124 0.497,0.172 0.138,0.034 0.103,0.145 0.165,0.166 0.379,0.124 0.772,0.172 1.159,0.324 0.345,0.138 0.655,0.352 0.993,0.503 0.234,0.104 0.427,0.042 0.662,0.159 0.103,0.055 0.241,0.29 0.331,0.338 0.228,0.11 0.421,0.042 0.662,0.166 0.11,0.055 0.234,0.276 0.331,0.324 0.145,0.083 0.311,0.083 0.497,0.172 0.11,0.055 0.234,0.269 0.331,0.331 0.303,0.179 0.696,0.296 0.993,0.503 0.09,0.048 -0.034,0.145 0.166,0.152 0.18,0.021 0.421,0.317 0.662,0.503 0.586,0.427 1.145,0.841 1.655,1.331 0.262,0.234 0.358,0.524 0.662,0.821 0.483,0.476 0.979,0.883 1.49,1.482 0.221,0.269 0.49,0.441 0.662,0.669 0.034,0.062 -0.055,0.283 0,0.331 0.228,0.179 0.262,0.303 0.497,0.662 0.062,0.089 0.158,-0.028 0.165,0.172 0,0.042 0.125,0.262 0.166,0.317 0.069,0.11 0.269,0.234 0.331,0.338 0.18,0.29 0.338,0.703 0.497,0.993 0.104,0.187 0.221,0.296 0.331,0.503 0.138,0.249 0.193,0.462 0.331,0.821 0.062,0.151 0.207,0.365 0.331,0.662 0.076,0.165 0.062,0.42 0.166,0.668 0.042,0.09 0.303,0.255 0.331,0.331 0.103,0.262 0.096,0.441 0.166,0.648 1.069,3.117 1.882,7.337 1.986,11.585 0.228,9.578 0.104,38.61 0,39.396 -0.2,1.538 -0.028,4.234 -0.166,6.289 -0.104,1.407 -0.455,2.938 -0.828,4.31 -0.131,0.462 -0.2,0.91 -0.331,1.317 -0.021,0.062 -0.158,0 -0.166,0.166 -0.021,0.31 -0.255,1.104 -0.496,1.489 -0.131,0.2 -0.269,0.8 -0.497,1.159 -0.055,0.083 -0.483,0.724 -0.497,0.993 -0.007,0.151 -0.186,0.441 -0.331,0.655 -0.035,0.062 -0.11,0.462 -0.166,0.51 -0.021,0.007 -0.159,-0.027 -0.166,0 -0.027,0.048 0.048,0.29 0,0.324 -0.021,0.014 -0.159,-0.021 -0.166,0 -0.104,0.228 -0.042,0.435 -0.166,0.655 -0.041,0.076 -0.303,0.117 -0.331,0.172 -0.145,0.324 -0.138,0.51 -0.331,0.828 -0.055,0.089 -0.158,-0.028 -0.165,0.172 -0.014,0.213 -0.304,0.524 -0.497,0.82 -0.283,0.441 -0.524,0.848 -0.828,1.331 -0.062,0.083 -0.152,-0.035 -0.166,0.152 -0.014,0.241 -0.317,0.255 -0.497,0.503 -0.042,0.062 0.055,0.283 0,0.331 -0.055,0.041 -0.296,0.11 -0.331,0.165 -0.041,0.063 0.055,0.283 0,0.324 -0.303,0.255 -0.634,0.689 -0.993,1.172 -0.125,0.152 -0.2,0.331 -0.331,0.49 -0.042,0.048 -0.311,0.117 -0.331,0.166 -0.028,0.076 0.048,0.283 0,0.324 -0.048,0.055 -0.283,-0.048 -0.331,0 -0.331,0.407 -0.724,0.745 -1.324,1.166 -0.103,0.069 -0.241,0.269 -0.331,0.331 -0.255,0.152 -0.518,0.255 -0.828,0.49 -0.104,0.083 -0.249,0.29 -0.331,0.338 -0.276,0.166 -0.662,0.145 -0.993,0.324 -0.11,0.069 -0.179,0.248 -0.331,0.345 -0.186,0.096 -0.379,0.248 -0.662,0.324 -0.097,0.021 -0.242,-0.042 -0.331,0 -0.097,0.041 -0.249,0.29 -0.331,0.331 -0.29,0.125 -0.704,0.214 -0.993,0.324 -0.758,0.304 -1.8,0.717 -2.813,1.007 -0.6,0.166 -1.007,0.193 -1.655,0.331 -0.055,0.007 -0.304,-0.048 -0.331,0 -0.007,0.007 0.014,0.152 0,0.152 -0.359,0.076 -0.759,0.096 -1.159,0.172 -0.717,0.131 -1.482,0.248 -2.317,0.331 -0.09,0.007 -0.89,-0.131 -0.993,0 -0.007,0.007 0.007,0.158 0,0.158 -2.241,0.207 -6.013,0.173 -10.261,0.173 -1.627,0 -3.427,-0.069 -4.965,0.165 -0.793,0.125 -1.593,0.214 -2.151,0.49 -0.11,0.055 -0.248,0.283 -0.331,0.345 -0.276,0.138 -0.6,0.172 -0.828,0.49 -0.041,0.062 0.055,0.283 0,0.324 -0.31,0.262 -0.269,0.138 -0.496,1.172 0.048,0.386 1.427,51.491 -0.249,52.843 -2.875,0.51 -10.509,0 -10.509,0 h -0.662 -3.31 -4.467 z"
   id="path34"
   style="fill:#ffffff" />
		<path
   d="m 175.519,650.987 c -2.896,0 -5.875,0.007 -8.937,0 -1.455,0 -2.944,0.138 -4.303,-0.158 -0.297,-1.338 -0.166,-2.938 -0.166,-4.627 0,-48.319 0,-97.549 0,-146.151 -0.007,-0.275 0.124,-0.427 0.331,-0.489 5.517,0 11.033,0 16.55,0 0.4,1.966 1.076,3.89 1.655,5.793 0.118,0.386 0.228,0.779 0.331,1.158 0.014,0.055 -0.041,0.297 0,0.331 0.242,0.193 0.331,0.924 0.497,1.489 0.131,0.441 0.366,0.89 0.497,1.324 0.159,0.518 0.186,0.986 0.331,1.482 0.152,0.524 0.331,0.959 0.497,1.504 0.11,0.345 0.193,0.807 0.331,1.151 0.103,0.255 0.331,1.097 0.496,1.654 0.069,0.242 0.076,0.538 0.166,0.828 0.014,0.048 0.159,0.007 0.166,0.172 0,0.042 -0.014,0.124 0,0.159 0.131,0.324 0.441,1.441 0.662,1.985 0.021,0.056 -0.048,0.29 0,0.331 0.193,0.152 0,0.497 0.166,0.662 0.014,0.021 0.159,-0.014 0.166,0 0.179,0.621 0.276,1.263 0.497,1.813 0.021,0.063 -0.048,0.297 0,0.338 0.193,0.152 0,0.497 0.166,0.662 0.104,0.097 0.221,0.421 0.331,0.828 0.076,0.31 0.076,0.559 0.166,0.827 0.014,0.048 0.158,0 0.166,0.158 0.021,0.373 0.179,0.662 0.331,1.166 1.021,3.413 2.2,7.109 3.145,10.758 0.014,0.034 0.152,0.021 0.166,0.165 0.035,0.606 0.283,1.124 0.497,1.813 0.11,0.365 0.193,0.827 0.331,1.158 0.09,0.242 0.324,1.069 0.497,1.662 0.11,0.387 0.193,0.813 0.331,1.151 0.097,0.242 0.317,1.076 0.497,1.662 0.083,0.276 0.089,0.565 0.166,0.828 0.014,0.048 0.158,0 0.166,0.165 0,0.041 -0.014,0.124 0,0.158 0.034,0.09 0.165,0.166 0.165,0.173 0.152,0.503 0.18,1.145 0.331,1.655 0.014,0.048 0.159,0.007 0.166,0.165 0.021,0.338 0.2,0.725 0.331,1.159 0.807,2.668 1.621,5.62 2.482,8.447 0.152,0.482 0.359,1 0.497,1.476 0.152,0.523 0.186,1.007 0.331,1.489 0.014,0.056 0.159,0.014 0.166,0.173 0.007,0.068 -0.042,0.462 0,0.489 0.358,0.304 0.448,1.435 0.662,2.158 0.014,0.049 0.159,0.007 0.166,0.166 0.021,0.345 0.207,0.724 0.331,1.151 0.089,0.296 0.096,0.559 0.166,0.834 0.014,0.035 0.158,0.014 0.166,0.166 0.034,0.606 0.283,1.131 0.496,1.82 0.11,0.352 0.193,0.813 0.331,1.158 0.076,0.193 0.207,0.518 0.331,0.993 0.179,0.662 0.435,1.393 0.662,2.151 0.138,0.455 0.193,1.049 0.331,1.489 0.014,0.049 0.159,0 0.166,0.159 0,0.068 -0.042,0.462 0,0.503 0.083,0.063 0.228,0.324 0.331,0.662 0.565,1.876 1.096,3.738 1.655,5.634 0.11,0.353 0.234,0.786 0.331,1.152 0.014,0.055 -0.042,0.296 0,0.324 0.221,0.186 0.331,0.931 0.497,1.489 0.131,0.448 0.365,0.89 0.497,1.324 0.145,0.503 0.186,1.014 0.331,1.489 0.014,0.055 0.158,0.014 0.165,0.172 0.007,0.063 -0.041,0.462 0,0.49 0.359,0.296 0.448,1.427 0.662,2.151 0.014,0.055 0.159,0.014 0.166,0.172 0.007,0.063 -0.042,0.47 0,0.49 0.311,0.255 0.531,1.455 0.662,2.158 0.303,-0.09 0.159,-0.82 0.166,-1.324 0.234,-14.405 0,-29.521 0,-44.188 0,-14.227 -0.076,-28.501 0,-42.871 0.007,-0.896 -0.131,-1.793 0.166,-2.642 5.848,0 11.695,0 17.543,0 0,48.795 0,97.948 0,146.965 0,1.434 0.124,3.034 -0.166,4.461 -4.958,-0.124 -10.144,0.18 -15.226,0 -0.228,-0.007 -0.641,0.166 -0.828,-0.158 -0.641,-0.076 -0.517,-0.903 -0.662,-1.324 -0.159,-0.469 -0.366,-0.896 -0.497,-1.324 -0.152,-0.503 -0.187,-1.007 -0.331,-1.489 -0.021,-0.055 -0.159,-0.007 -0.166,-0.165 0,-0.069 0.042,-0.463 0,-0.497 -0.083,-0.068 -0.228,-0.331 -0.331,-0.662 -0.331,-1.082 -0.579,-2.255 -0.993,-3.303 -0.021,-0.069 0.048,-0.304 0,-0.338 -0.193,-0.159 0,-0.504 -0.166,-0.662 -0.193,-0.193 -0.324,-0.91 -0.496,-1.489 -0.152,-0.524 -0.331,-0.959 -0.497,-1.497 -0.11,-0.352 -0.193,-0.813 -0.331,-1.151 -0.104,-0.262 -0.324,-1.075 -0.497,-1.662 -0.083,-0.275 -0.09,-0.565 -0.166,-0.827 -0.014,-0.048 -0.159,0 -0.166,-0.158 0,-0.049 0.014,-0.132 0,-0.166 -0.034,-0.083 -0.159,-0.151 -0.166,-0.172 -0.159,-0.524 -0.172,-1.104 -0.331,-1.648 -0.021,-0.056 -0.158,-0.014 -0.166,-0.158 -0.027,-0.353 -0.2,-0.738 -0.331,-1.166 -0.29,-0.965 -0.552,-1.89 -0.828,-2.813 -0.145,-0.482 -0.352,-1.007 -0.497,-1.489 -0.152,-0.511 -0.186,-0.979 -0.331,-1.489 -0.021,-0.056 -0.159,-0.007 -0.166,-0.166 0,-0.062 0.042,-0.462 0,-0.496 -0.352,-0.297 -0.448,-1.435 -0.662,-2.151 -0.014,-0.056 -0.158,-0.015 -0.166,-0.173 -0.021,-0.407 -0.296,-1.145 -0.496,-1.648 -0.021,-0.062 0.048,-0.296 0,-0.331 -0.193,-0.151 0,-0.503 -0.166,-0.661 -0.221,-0.221 -0.324,-0.911 -0.497,-1.497 -0.131,-0.428 -0.366,-0.876 -0.497,-1.316 -0.117,-0.407 -0.166,-0.752 -0.331,-1.159 -0.021,-0.062 0.048,-0.296 0,-0.338 -0.152,-0.11 -0.338,-0.958 -0.497,-1.489 -0.503,-1.662 -1.014,-3.282 -1.489,-5.117 -0.014,-0.041 -0.159,-0.027 -0.166,-0.172 -0.035,-0.614 -0.283,-1.131 -0.497,-1.82 -0.11,-0.358 -0.193,-0.821 -0.331,-1.166 -0.055,-0.131 -0.221,-0.572 -0.331,-0.979 -0.124,-0.47 -0.214,-0.745 -0.331,-1.166 -0.014,-0.062 0.042,-0.303 0,-0.331 -0.083,-0.062 -0.228,-0.331 -0.331,-0.662 -0.276,-0.91 -0.544,-1.882 -0.827,-2.813 -0.117,-0.386 -0.228,-0.771 -0.331,-1.158 -0.021,-0.062 0.042,-0.304 0,-0.331 -0.242,-0.2 -0.331,-0.924 -0.497,-1.489 -0.131,-0.448 -0.366,-0.89 -0.497,-1.331 -0.152,-0.496 -0.193,-1.007 -0.331,-1.482 -0.151,-0.518 -0.331,-0.959 -0.497,-1.489 -0.11,-0.359 -0.193,-0.821 -0.331,-1.166 -0.104,-0.255 -0.324,-1.062 -0.497,-1.647 -0.083,-0.283 -0.09,-0.572 -0.166,-0.828 -0.014,-0.055 -0.159,-0.007 -0.166,-0.172 0,-0.042 0.014,-0.124 0,-0.159 -0.035,-0.09 -0.159,-0.151 -0.166,-0.165 -0.159,-0.531 -0.166,-1.11 -0.331,-1.655 -0.014,-0.055 -0.159,-0.014 -0.166,-0.172 -0.021,-0.338 -0.2,-0.725 -0.331,-1.152 -0.29,-0.965 -0.552,-1.889 -0.828,-2.813 -0.151,-0.503 -0.352,-1.007 -0.496,-1.496 -0.152,-0.504 -0.18,-0.973 -0.331,-1.482 -0.014,-0.056 -0.159,0 -0.166,-0.159 0,-0.075 0.034,-0.469 0,-0.51 -0.352,-0.29 -0.448,-1.428 -0.662,-2.151 -0.021,-0.049 -0.159,-0.007 -0.166,-0.159 -0.027,-0.379 -0.296,-1.165 -0.497,-1.654 -0.021,-0.063 0.048,-0.297 0,-0.331 -0.193,-0.159 0,-0.504 -0.166,-0.662 -0.2,-0.2 -0.338,-0.959 -0.497,-1.49 -0.151,-0.503 -0.358,-0.861 -0.496,-1.316 -0.125,-0.435 -0.173,-0.766 -0.331,-1.173 -0.028,-0.055 0.048,-0.289 0,-0.324 -0.166,-0.138 -0.338,-0.979 -0.497,-1.489 -0.8,-2.647 -1.751,-5.571 -2.482,-8.447 -0.304,0.09 -0.159,0.834 -0.166,1.324 -0.234,14.509 0,29.528 0,44.36 0,15.192 0,30.528 0,45.679 -1.356,0.293 -2.845,0.162 -4.3,0.155 z"
   id="path36"
   style="fill:#ffffff" />
		<path
   d="m 101.54,439.65 c -0.083,-0.248 -0.2,-0.662 -0.331,-0.993 -0.166,-0.42 -0.255,-1.868 -0.331,-2.82 -0.117,-1.365 -0.214,-2.62 -0.331,-3.972 -0.021,-0.214 0.028,-0.435 0,-0.662 -0.303,-2.269 -0.338,-11.896 -0.338,-11.896 h 18.212 0.166 c 0,0 -0.055,3.117 -0.055,5.717 0,1.297 0.014,2.462 0.055,3.041 0.007,0.097 -0.027,0.228 0,0.331 0.11,0.435 0.249,1.696 0.49,2.489 0.186,0.552 0.545,1.158 0.834,1.648 0.248,0.406 0.552,0.717 0.827,1.158 0.09,0.138 0.269,0.49 0.497,0.662 0.117,0.09 0.373,0.056 0.497,0.166 0.228,0.186 0.296,0.517 0.497,0.668 0.145,0.097 0.352,0.076 0.497,0.152 0.089,0.062 -0.021,0.158 0.166,0.172 0.255,0.014 0.462,0.455 0.827,0.49 1.249,-0.241 2.869,0.324 4.303,0 0.373,-0.076 0.669,-0.297 1.159,-0.662 0.166,-0.117 0.338,-0.187 0.497,-0.317 0.041,-0.041 0.117,-0.324 0.165,-0.338 0.076,-0.034 0.269,0.048 0.331,0 0.29,-0.248 0.497,-0.538 0.828,-0.834 1.31,-1.146 2.869,-3 3.807,-4.628 0.896,-1.572 1.503,-15.26 1.324,-15.722 -0.021,-0.062 0.042,-0.296 0,-0.338 -0.021,-0.014 -0.158,0.035 -0.166,0 -0.027,-0.048 0.042,-0.29 0,-0.324 -0.021,-0.014 -0.158,0.021 -0.166,0 -0.027,-0.055 0.042,-0.296 0,-0.338 -0.021,-0.014 -0.158,0.028 -0.165,0 -0.028,-0.055 0.048,-0.29 0,-0.317 -0.021,-0.028 -0.159,0.014 -0.166,0 -0.028,-0.069 0.048,-0.304 0,-0.338 -0.021,-0.021 -0.159,0.021 -0.166,0 -0.028,-0.062 0.048,-0.29 0,-0.331 -0.021,-0.021 -0.152,0.021 -0.166,0 -0.035,-0.055 0.048,-0.297 0,-0.338 -0.021,-0.014 -0.159,0.027 -0.166,0 -0.028,-0.048 0.048,-0.29 0,-0.324 -0.159,-0.138 -0.214,-0.145 -0.331,-0.338 -0.035,-0.055 -0.11,-0.448 -0.166,-0.483 -0.296,-0.248 -0.379,-0.551 -0.662,-1.007 -0.062,-0.083 -0.159,0.028 -0.166,-0.158 -0.014,-0.214 -0.241,-0.214 -0.331,-0.331 -0.041,-0.062 0.055,-0.29 0,-0.324 -0.055,-0.055 -0.29,-0.117 -0.331,-0.166 -0.041,-0.069 0.055,-0.296 0,-0.345 -0.158,-0.124 -0.207,-0.152 -0.331,-0.324 -0.125,-0.179 -0.366,-0.31 -0.497,-0.503 -0.159,-0.207 -0.2,-0.469 -0.331,-0.655 -0.042,-0.063 -0.311,-0.11 -0.331,-0.159 -0.035,-0.09 0.055,-0.276 0,-0.338 -0.214,-0.283 -0.683,-0.621 -0.993,-0.993 -0.159,-0.2 -0.186,-0.483 -0.331,-0.662 -0.172,-0.221 -0.338,-0.303 -0.496,-0.497 -0.083,-0.103 -0.814,-0.71 -0.828,-0.993 -0.021,-0.304 -0.704,-0.655 -0.993,-1 -0.048,-0.055 0.055,-0.276 0,-0.317 -0.42,-0.338 -0.917,-0.8 -1.324,-1.331 -0.456,-0.607 -1.255,-1.241 -1.821,-1.986 -1.089,-1.441 -2.924,-2.931 -4.303,-4.303 -1.945,-1.952 -3.689,-3.855 -5.792,-5.792 -0.669,-0.621 -1.317,-1.2 -1.993,-1.821 -0.614,-0.579 -1.345,-1.234 -1.979,-1.82 -0.345,-0.324 -0.627,-0.662 -0.993,-0.993 -0.317,-0.296 -0.765,-0.524 -0.993,-0.82 -0.138,-0.2 -0.048,-0.462 -0.166,-0.669 -0.042,-0.076 -0.304,-0.104 -0.331,-0.172 -0.145,-0.324 -0.131,-0.51 -0.331,-0.828 -0.055,-0.09 -0.159,0.027 -0.166,-0.152 0,-0.069 -0.124,-0.276 -0.166,-0.338 -0.407,-0.676 -0.8,-1.303 -1.159,-1.979 -0.055,-0.117 -0.096,-0.221 -0.166,-0.338 -0.055,-0.083 -0.482,-0.731 -0.496,-0.993 -0.007,-0.083 -0.125,-0.234 -0.166,-0.338 -0.076,-0.166 -0.317,-0.4 -0.331,-0.655 -0.007,-0.152 -0.187,-0.441 -0.331,-0.669 -0.131,-0.207 -0.296,-0.855 -0.503,-1.324 -0.028,-0.069 -0.152,0.014 -0.159,-0.159 -0.007,-0.131 -0.186,-0.634 -0.331,-0.993 -0.027,-0.076 -0.159,0.014 -0.166,-0.172 0,-0.042 0.014,-0.125 0,-0.166 -0.875,-2.172 -1.924,-5.427 -2.317,-8.275 -0.531,-3.834 -0.331,-8.199 -0.331,-12.412 0,-6.262 0.531,-11.703 1.82,-16.875 0.035,-0.138 0.152,-0.131 0.166,-0.158 0.235,-0.869 0.379,-1.642 0.662,-2.483 0.083,-0.255 0.2,-0.669 0.331,-1.007 0.042,-0.096 0.152,-0.124 0.166,-0.165 0.152,-0.393 0.186,-0.814 0.331,-1.152 0.027,-0.076 0.159,0.007 0.166,-0.166 0.007,-0.173 0.482,-0.869 0.497,-1.151 0.007,-0.159 0.186,-0.448 0.331,-0.669 0.055,-0.083 0.482,-0.731 0.496,-1 0.007,-0.138 0.187,-0.435 0.331,-0.662 0.048,-0.069 0.138,-0.117 0.159,-0.152 0.09,-0.151 0.324,-0.427 0.338,-0.668 0.014,-0.214 0.317,-0.255 0.331,-0.503 0.014,-0.2 0.296,-0.552 0.497,-0.828 0.166,-0.221 0.296,-0.345 0.497,-0.655 0.283,-0.441 0.738,-0.972 1.158,-1.482 1.014,-1.248 1.986,-2.317 3.145,-3.324 0.297,-0.255 0.538,-0.58 0.828,-0.814 0.048,-0.048 0.283,0.048 0.331,0 0.11,-0.151 0.255,-0.489 0.497,-0.669 0.062,-0.041 0.29,0.048 0.331,0 0.048,-0.062 0.11,-0.296 0.166,-0.331 0.062,-0.041 0.29,0.048 0.331,0 0.159,-0.2 0.187,-0.303 0.497,-0.496 0.076,-0.055 0.124,-0.145 0.166,-0.166 0.138,-0.09 0.428,-0.317 0.662,-0.338 0.221,-0.007 0.262,-0.317 0.497,-0.317 0.248,-0.021 0.517,-0.338 0.828,-0.503 0.151,-0.083 0.414,-0.324 0.662,-0.338 0.145,0 0.441,-0.186 0.662,-0.324 0.062,-0.041 0.145,-0.151 0.159,-0.166 0.241,-0.096 0.428,-0.041 0.669,-0.166 0.097,-0.055 0.248,-0.296 0.331,-0.331 0.29,-0.131 0.662,-0.117 0.993,-0.324 0.207,-0.145 0.855,-0.331 1.324,-0.503 0.751,-0.283 1.538,-0.607 2.317,-0.828 0.979,-0.276 2.055,0.076 3.145,0.331 0.807,0.193 9.964,1.634 10.261,1.82 0.083,0.062 -0.028,0.152 0.166,0.166 0.276,0.021 0.338,0.476 0.662,0.497 0.269,0.014 0.848,0.751 1.159,0.986 0.207,0.172 0.497,0.193 0.662,0.338 0.2,0.158 0.255,0.469 0.497,0.662 0.055,0.042 0.283,-0.048 0.331,0 0.379,0.462 0.979,1.234 1.655,1.655 0.207,0.124 0.559,0.386 0.828,0.662 0.131,0.131 0.372,0.338 0.497,0.503 0.179,0.213 0.165,0.476 0.331,0.655 0.345,0.373 0.841,0.635 1.159,0.993 0.166,0.186 0.193,0.483 0.331,0.669 0.172,0.2 0.365,0.324 0.497,0.49 0.303,0.365 0.641,0.689 0.993,1.158 0.131,0.172 0.2,0.49 0.331,0.655 0.152,0.221 0.359,0.296 0.497,0.503 0.083,0.117 0.062,0.365 0.166,0.497 0.062,0.076 0.283,0.089 0.331,0.166 0.042,0.055 -0.055,0.29 0,0.331 0.248,0.2 0.269,0.304 0.497,0.669 0.062,0.09 0.151,-0.034 0.166,0.159 0.014,0.234 0.317,0.359 0.331,0.662 0.007,0.138 0.241,0.373 0.331,0.497 0.324,0.531 0.8,1.565 1.158,2.324 1.738,3.641 2.993,8.068 3.476,13.075 0.255,2.586 0.166,5.427 0.166,8.109 0,1.269 0,4.138 0,4.138 l -16.385,0.482 -0.166,-0.151 -0.165,-0.331 c 0,0 -1.676,-11.075 -2.483,-13.254 -0.089,-0.234 -0.048,-0.421 -0.166,-0.662 -0.055,-0.097 -0.283,-0.234 -0.331,-0.317 -0.035,-0.069 0.048,-0.303 0,-0.345 -0.048,-0.027 -0.304,-0.11 -0.331,-0.166 -0.11,-0.172 -0.055,-0.338 -0.166,-0.489 -0.062,-0.09 -0.152,0.021 -0.166,-0.166 -0.021,-0.228 -0.717,-0.793 -0.993,-0.986 -0.593,-0.448 -1.738,-1.089 -2.979,-1.331 -0.262,-0.055 -0.565,0.035 -0.828,0 -0.414,-0.055 -1.517,-0.29 -2.317,-0.165 -0.717,0.103 -1.31,0.496 -1.986,1 -0.097,0.055 0.027,0.145 -0.166,0.152 -0.29,0.021 -1.007,0.869 -1.324,1.166 -0.552,0.503 -1.041,0.979 -1.489,1.489 -0.042,0.042 -0.311,0.117 -0.331,0.159 -0.104,0.234 -0.117,0.4 -0.331,0.662 -0.193,0.234 -0.503,0.427 -0.662,0.662 -0.11,0.158 -0.083,0.352 -0.166,0.51 -0.069,0.096 -0.269,0.221 -0.331,0.317 -0.103,0.18 -0.069,0.345 -0.166,0.503 -0.062,0.097 -0.29,0.249 -0.331,0.331 -0.118,0.228 -0.076,0.4 -0.166,0.669 -0.021,0.028 -0.131,0.035 -0.166,0.159 -0.117,0.482 -0.311,0.807 -0.497,1.324 -0.49,1.386 -0.793,2.766 -0.993,4.641 -0.324,2.958 0.145,5.365 1.159,7.771 0.048,0.125 0.083,0.338 0.166,0.503 0.055,0.09 0.29,0.234 0.331,0.331 0.138,0.269 0.179,0.683 0.331,0.979 0.055,0.11 0.283,0.248 0.331,0.338 0.172,0.317 0.138,0.544 0.331,0.986 0.035,0.076 0.159,-0.007 0.166,0.172 0.007,0.152 0.249,0.359 0.331,0.49 0.152,0.262 0.304,0.503 0.497,0.841 0.145,0.255 0.255,0.503 0.497,0.82 0.179,0.235 0.276,0.469 0.497,0.828 0.069,0.117 0.262,0.228 0.331,0.324 0.359,0.538 0.607,1.117 0.993,1.662 0.166,0.228 0.497,0.434 0.662,0.668 0.11,0.145 0.042,0.352 0.166,0.483 0.069,0.076 0.276,0.097 0.331,0.172 0.11,0.152 0.062,0.358 0.166,0.49 0.089,0.124 0.228,0.207 0.331,0.338 0.2,0.248 0.476,0.427 0.662,0.669 0.11,0.131 0.062,0.352 0.166,0.489 0.09,0.11 0.228,0.2 0.331,0.331 0.187,0.234 0.462,0.407 0.662,0.662 0.214,0.262 0.276,0.538 0.497,0.821 0.172,0.234 0.469,0.427 0.662,0.669 0.096,0.11 0.248,0.228 0.331,0.331 0.083,0.118 0.062,0.373 0.165,0.49 0.166,0.2 0.497,0.304 0.662,0.51 0.214,0.242 0.304,0.586 0.497,0.814 0.193,0.248 0.455,0.427 0.655,0.669 0.42,0.469 0.91,0.848 1.331,1.324 0.221,0.249 0.304,0.593 0.497,0.828 0.414,0.503 1.214,0.931 1.655,1.655 0.276,0.448 0.993,1.166 1.489,1.655 0.448,0.448 0.89,0.848 1.324,1.331 1.827,1.986 3.965,3.827 5.792,5.958 0.234,0.255 0.462,0.42 0.662,0.662 0.22,0.255 0.31,0.58 0.496,0.821 0.11,0.145 0.476,0.166 0.497,0.497 0.007,0.159 0.476,0.565 0.662,0.834 0.2,0.262 0.324,0.565 0.497,0.82 0.076,0.11 0.269,0.228 0.331,0.331 0.151,0.248 0.303,0.497 0.497,0.834 0.145,0.248 0.303,0.482 0.496,0.821 0.152,0.255 0.304,0.496 0.497,0.834 0.083,0.131 0.069,0.317 0.166,0.497 0.062,0.104 0.269,0.221 0.331,0.317 0.09,0.145 0.069,0.324 0.166,0.503 0.062,0.104 0.276,0.241 0.331,0.331 0.035,0.055 -0.048,0.29 0,0.338 0.172,0.131 0.303,0.565 0.497,0.979 0.048,0.104 0.296,0.255 0.331,0.338 0.034,0.09 -0.021,0.234 0,0.324 0.034,0.172 0.131,0.089 0.166,0.172 0.248,0.572 0.414,1.221 0.662,1.813 0.021,0.055 0.131,0.042 0.166,0.172 0.028,0.097 -0.041,0.234 0,0.338 0.042,0.083 0.304,0.249 0.331,0.317 0.035,0.104 -0.027,0.234 0,0.345 0.035,0.138 0.11,0.276 0.166,0.49 0.035,0.151 0.11,0.283 0.166,0.489 0.042,0.173 0.234,0.359 0.331,0.669 0.172,0.559 0.152,0.896 0.331,1.49 0.007,0.021 0.138,0.048 0.166,0.166 0.152,0.607 0.476,1.559 0.662,2.324 0.248,1.014 0.427,2.069 0.662,3.303 0.11,0.572 0.304,1.041 0.331,1.648 0.021,0.565 0.276,1.393 0.331,2.152 0.159,2.241 0.559,5.137 0.662,7.792 0.069,1.772 0.062,3.551 0,5.282 -0.11,2.883 -0.373,5.606 -0.828,8.275 -0.131,0.751 -0.331,1.406 -0.497,2.158 -0.166,0.759 -0.303,1.399 -0.496,2.151 -0.152,0.593 -0.352,1.09 -0.497,1.655 -0.083,0.338 -0.234,0.606 -0.331,0.993 -0.083,0.338 -0.234,0.6 -0.331,0.992 -0.028,0.104 0.035,0.235 0,0.324 -0.035,0.104 -0.303,0.256 -0.331,0.338 -0.042,0.09 0.028,0.228 0,0.331 -0.048,0.18 -0.324,0.731 -0.497,1.159 -0.089,0.228 -0.255,0.358 -0.331,0.661 -0.021,0.097 0.042,0.242 0,0.331 -0.048,0.117 -0.283,0.235 -0.331,0.338 -0.096,0.173 -0.083,0.317 -0.166,0.497 -0.22,0.441 -0.414,0.724 -0.662,1.151 -0.083,0.138 -0.069,0.331 -0.166,0.504 -0.062,0.103 -0.269,0.221 -0.331,0.331 -0.09,0.131 -0.062,0.316 -0.166,0.482 -0.069,0.117 -0.269,0.241 -0.331,0.338 -0.083,0.131 -0.062,0.331 -0.166,0.496 -0.076,0.117 -0.269,0.228 -0.331,0.338 -0.076,0.124 -0.069,0.338 -0.166,0.497 -0.166,0.234 -0.476,0.393 -0.662,0.654 -0.2,0.276 -0.296,0.573 -0.496,0.835 -0.18,0.228 -0.483,0.428 -0.662,0.662 -0.104,0.117 -0.055,0.345 -0.166,0.489 -0.069,0.09 -0.262,0.083 -0.331,0.166 -0.766,0.917 -1.503,1.91 -2.482,2.813 -0.262,0.234 -0.538,0.255 -0.828,0.503 -0.228,0.18 -0.435,0.455 -0.662,0.655 -0.213,0.18 -0.441,0.482 -0.662,0.662 -0.228,0.179 -0.428,0.317 -0.662,0.503 -0.242,0.173 -0.531,0.263 -0.828,0.497 -0.241,0.179 -0.42,0.482 -0.662,0.655 -0.159,0.117 -0.358,0.055 -0.497,0.165 -0.131,0.097 -0.172,0.221 -0.331,0.331 -0.118,0.083 -0.366,0.063 -0.497,0.165 -0.076,0.056 -0.097,0.29 -0.166,0.331 -0.166,0.104 -0.345,0.069 -0.497,0.173 -0.11,0.055 -0.234,0.262 -0.331,0.324 -0.172,0.104 -0.338,0.062 -0.497,0.158 -0.104,0.069 -0.234,0.283 -0.331,0.338 -0.255,0.138 -0.683,0.159 -0.993,0.324 -0.125,0.076 -0.228,0.255 -0.331,0.338 -0.276,0.2 -1.303,0.379 -1.986,0.497 -0.42,0.068 -0.738,0.096 -1.324,0.172 -0.048,0 -0.304,-0.034 -0.331,0 -0.207,0.241 -1.221,0.221 -1.82,0.317 -0.014,0.007 -0.035,0.165 -0.166,0.165 -0.503,0.028 -0.945,0.159 -1.49,0.173 -1.014,0.027 -2.083,-0.187 -3.145,-0.338 -0.931,-0.124 -1.972,-0.27 -2.813,-0.489 -0.042,-0.015 -0.014,-0.159 -0.166,-0.159 -0.379,-0.027 -0.489,-0.041 -0.828,-0.172 -0.151,-0.063 -0.469,-0.207 -0.827,-0.338 -0.311,-0.104 -0.821,-0.353 -1.159,-0.49 -0.296,-0.131 -0.855,-0.311 -1.158,-0.496 -0.269,-0.159 -0.483,-0.276 -0.828,-0.497 -0.186,-0.117 -0.345,-0.186 -0.497,-0.331 -0.138,-0.138 -0.358,-0.199 -0.497,-0.338 -0.138,-0.124 -0.358,-0.192 -0.497,-0.323 -0.138,-0.139 -0.358,-0.2 -0.503,-0.338 -0.138,-0.139 -0.317,-0.214 -0.489,-0.317 -0.104,-0.076 -0.097,-0.117 -0.166,-0.166 -0.614,-0.455 -1.214,-0.89 -1.821,-1.496 -0.627,-0.628 -1.317,-1.352 -1.986,-2.158 -0.042,-0.049 -0.311,-0.117 -0.331,-0.166 -0.035,-0.075 0.055,-0.262 0,-0.317 -0.138,-0.172 -0.641,-0.316 -0.662,-0.668 0,-0.042 -0.131,-0.29 -0.166,-0.339 -0.041,-0.041 -0.31,-0.117 -0.331,-0.158 -0.034,-0.083 0.055,-0.262 0,-0.331 -0.11,-0.138 -0.4,-0.187 -0.496,-0.331 -0.042,-0.062 0.055,-0.289 0,-0.324 -0.055,-0.055 -0.297,-0.117 -0.331,-0.172 -0.042,-0.063 0.055,-0.283 0,-0.324 -0.048,-0.049 -0.297,-0.124 -0.331,-0.173 -0.035,-0.062 0.055,-0.289 0,-0.331 -0.042,-0.041 -0.311,-0.124 -0.331,-0.165 -0.117,-0.221 -0.035,-0.455 -0.166,-0.662 -0.042,-0.062 -0.303,-0.11 -0.331,-0.158 -0.145,-0.331 -0.145,-0.518 -0.338,-0.835 -0.042,-0.083 -0.152,0.021 -0.159,-0.172 -0.007,-0.146 -0.186,-0.428 -0.331,-0.662 -0.117,-0.18 -0.213,-0.304 -0.331,-0.482 -0.055,-0.09 -0.483,-0.738 -0.497,-1 -0.007,-0.152 -0.187,-0.435 -0.331,-0.669 -0.131,-0.2 -0.255,-0.772 -0.503,-1.152 -0.09,-0.158 -0.338,-0.758 -0.49,-1.158 -0.076,-0.193 -0.331,-0.745 -0.497,-1.158 -0.041,-0.11 -0.151,-0.131 -0.166,-0.166 -0.151,-0.399 -0.179,-0.917 -0.331,-1.316 -0.027,-0.076 -0.158,0 -0.165,-0.166 -0.007,-0.165 -0.2,-0.627 -0.331,-1.007 -0.09,-0.248 -0.2,-0.648 -0.331,-0.979 -0.091,-0.238 -0.319,-0.934 -0.498,-1.493 z"
   id="path38"
   style="fill:#ffffff" />
		<path
   d="m 187.931,279.281 c -17.708,0 -35.417,0 -53.125,0 0,-50.698 0,-101.396 0,-152.088 -0.007,-0.296 0.124,-0.441 0.331,-0.503 16.439,0 33.086,0 49.65,0 1.027,0 2.145,-0.131 3.145,0.166 0,6.675 0,13.343 0,20.025 -11.806,0 -23.611,0 -35.417,0 -0.304,0.083 -0.159,0.828 -0.166,1.331 -0.228,14.15 0.172,29.238 0,43.685 10.426,0 20.853,0 31.279,0 0,6.889 0,13.785 0,20.688 -10.371,0 -20.743,0 -31.114,0 -0.304,0.083 -0.159,0.821 -0.166,1.317 -0.186,14.026 0.138,28.962 0,43.202 0.262,0.324 0.669,0.152 0.993,0.166 11.123,0.283 23.184,-0.213 34.589,0 0.001,7.336 0.001,14.667 0.001,22.011 z"
   id="path40"
   style="fill:#ffffff" />
		<path
   d="m 93.92,184.938 c 0.131,-0.606 0.642,-23.184 -0.338,-25.659 -0.166,-0.428 -1.138,-2.993 -1.31,-3.131 -0.048,-0.042 0.028,-0.276 0,-0.331 -0.007,-0.014 -0.145,0.014 -0.166,0 -0.055,-0.048 -0.131,-0.441 -0.166,-0.503 -0.228,-0.345 -0.248,-0.455 -0.497,-0.662 -0.055,-0.042 0.042,-0.269 0,-0.317 -0.241,-0.331 -0.793,-0.676 -1.158,-1.007 -0.2,-0.172 -0.249,-0.303 -0.503,-0.49 -0.166,-0.131 -0.317,-0.221 -0.49,-0.338 -0.29,-0.193 -0.552,-0.145 -0.828,-0.317 -0.324,-0.228 -1.027,-0.297 -1.655,-0.338 -1.758,-0.117 -11.599,0.007 -15.557,0.166 -0.193,4.358 -0.131,32.879 -0.338,36.741 0.621,0.49 1.042,1.172 1.497,1.814 2.303,0.069 5.062,-0.166 7.778,-0.166 2.875,0 5.834,0.29 8.109,0 0.007,0 -0.007,-0.145 0,-0.159 0.028,-0.028 0.283,0 0.331,0 0.269,-0.028 0.366,-0.007 0.497,-0.166 0.035,-0.048 0.435,0 0.49,0 0.166,-0.014 0.117,-0.152 0.166,-0.159 0.448,-0.152 0.669,-0.145 0.834,-0.338 0.041,-0.042 0.269,0.035 0.331,0 0.021,-0.014 -0.021,-0.152 0,-0.166 0.042,-0.048 0.269,0.042 0.331,0 0.228,-0.152 0.4,-0.545 0.49,-0.662 0.055,-0.062 0.283,0.048 0.338,0 0.138,-0.138 0.152,-0.414 0.331,-0.662 0.09,-0.118 0.317,-0.118 0.331,-0.338 0.014,-0.187 0.11,-0.069 0.166,-0.159 0.255,-0.421 0.482,-1.007 0.655,-1.49 0.131,-0.352 0.228,-0.745 0.331,-0.828 0.041,-0.031 0,-0.279 0,-0.335 z m 7.951,27.474 c -0.414,0.428 0.021,2.241 0.166,3.151 0.069,0.414 0.096,0.917 0.159,1.324 0.014,0.014 0.166,0.027 0.172,0.172 0.006,0.145 -0.028,0.338 0,0.49 0.041,0.241 0.131,0.29 0.166,0.489 0.145,0.89 0.172,1.807 0.331,2.648 0.173,0.89 0.352,1.704 0.497,2.49 0.228,1.213 0.572,2.434 0.828,3.641 0.104,0.469 3.117,16.584 3.476,18.37 0.717,3.572 1.441,7.158 2.151,10.751 0.172,0.882 0.483,1.8 0.655,2.655 0.207,0.965 0.31,1.869 0.503,2.813 0.365,1.745 0.786,3.538 1.158,5.296 0.193,0.924 0.311,1.89 0.49,2.82 0.104,0.462 0.255,0.869 0.338,1.317 0.083,0.42 0.076,0.903 0.166,1.324 0.007,0.021 0.159,0.021 0.166,0.166 0.035,0.697 0.324,1.655 0.497,2.483 0.179,0.855 0.331,3.082 0.497,3.965 -0.538,0.172 -0.828,-0.373 -1.324,0 -1.034,0.303 -17.922,1.097 -19.371,0 -0.365,-0.979 -0.414,-3.662 -0.655,-4.799 -0.124,-0.573 -0.2,-0.828 -0.331,-1.49 -0.007,-0.048 0.035,-0.296 0,-0.324 -0.014,-0.014 -0.166,0.014 -0.166,0 -0.193,-0.827 -0.29,-2.006 -0.497,-2.979 0,0.007 -0.145,-0.083 -0.172,-0.166 -0.124,-0.496 -0.186,-1.145 -0.324,-1.82 -0.096,-0.469 -0.276,-0.958 -0.331,-1.497 -0.048,-0.441 -0.062,-0.482 -0.166,-0.986 -0.007,-0.055 0.035,-0.304 0,-0.331 -0.021,-0.014 -0.165,0.007 -0.165,0 -0.193,-0.834 -0.283,-1.958 -0.497,-2.979 0,0.014 -0.145,-0.076 -0.166,-0.166 -0.124,-0.49 -0.193,-1.159 -0.338,-1.827 -0.104,-0.524 -0.269,-0.938 -0.324,-1.49 -0.076,-0.731 -0.303,-1.4 -0.497,-2.31 -0.069,-0.331 -0.11,-0.724 -0.166,-0.993 -0.248,-1.165 -0.552,-2.517 -0.828,-3.965 -0.027,-0.166 -0.138,-0.262 -0.165,-0.503 -0.076,-0.745 -0.304,-1.414 -0.497,-2.317 -0.097,-0.469 -0.276,-0.959 -0.331,-1.497 -0.076,-0.731 -0.304,-1.572 -0.497,-2.476 -0.104,-0.497 -0.179,-0.952 -0.331,-1.49 -0.014,-0.062 0.042,-0.303 0,-0.331 -0.166,-0.131 -0.276,-0.717 -0.331,-0.993 -0.124,-0.621 -0.193,-1.262 -0.338,-1.986 -0.021,-0.151 -0.131,-0.262 -0.166,-0.496 -0.069,-0.704 -0.296,-1.572 -0.489,-2.49 -0.104,-0.489 -0.18,-0.944 -0.331,-1.489 -0.014,-0.055 0.041,-0.296 0,-0.324 -0.166,-0.138 -0.276,-0.724 -0.331,-1 -0.117,-0.565 -0.193,-1.262 -0.331,-1.979 -0.028,-0.159 -0.138,-0.255 -0.166,-0.497 -0.069,-0.683 -0.311,-1.613 -0.503,-2.482 -0.117,-0.572 -0.193,-0.834 -0.324,-1.489 -0.014,-0.048 0.035,-0.304 0,-0.331 -0.166,-0.138 -0.276,-0.724 -0.331,-0.986 -0.145,-0.758 -0.262,-1.662 -0.497,-2.489 -0.014,-0.062 0.042,-0.296 0,-0.331 -0.165,-0.138 -0.283,-0.724 -0.331,-0.993 -0.11,-0.6 -0.187,-1.296 -0.338,-1.986 -0.125,-0.614 -0.193,-0.855 -0.331,-1.49 -0.007,-0.055 0.034,-0.303 0,-0.331 -0.007,-0.014 -0.152,0.007 -0.159,0 -0.2,-0.849 -0.311,-1.945 -0.497,-2.972 -0.683,-0.249 -1.572,-0.373 -2.482,-0.503 -0.117,-0.021 -0.586,0.076 -0.669,0 -0.379,-0.386 -4.807,0.248 -4.958,0.331 -0.117,0.076 -0.228,0.255 -0.331,0.338 -0.055,0.027 -0.296,0.103 -0.331,0.151 -0.545,0.8 -0.331,2.517 -0.331,4.476 0,2.993 -0.648,52.622 -0.669,55.608 -0.007,0.979 0.207,2.565 -0.324,3.469 -1.372,0.296 -16.522,0.338 -17.212,0 -0.269,-0.386 -0.972,0.303 -1.331,0 -0.6,-0.055 -0.91,0.09 -1.482,0 0.069,-1.089 0.414,-3.496 0.497,-4.627 0.214,-2.958 0,-138.296 0,-142.654 0,-0.986 -0.159,-2.145 0,-2.821 0.097,-0.427 50.071,-0.51 51.802,0.49 0.083,0.055 -0.021,0.159 0.166,0.179 0.255,0.007 0.531,0.304 0.827,0.483 0.228,0.152 0.51,0.42 0.821,0.662 0.372,0.29 0.862,0.559 1.166,0.841 0.71,0.627 1.296,1.434 1.986,2.151 0.345,0.338 0.855,0.634 1.159,0.986 0.041,0.055 -0.055,0.283 0,0.331 0.269,0.214 0.544,0.462 0.827,0.834 0.09,0.104 0.262,0.221 0.331,0.317 0.042,0.062 -0.055,0.29 0,0.338 0.138,0.11 0.483,0.193 0.497,0.49 0,0.069 0.283,0.275 0.331,0.338 0.131,0.151 0.159,0.393 0.331,0.668 0.062,0.09 0.159,-0.034 0.166,0.152 0,0.042 -0.021,0.145 0,0.166 0.062,0.11 0.276,0.241 0.331,0.338 0.034,0.055 -0.048,0.29 0,0.324 0.021,0.021 0.151,-0.014 0.166,0 0.034,0.062 -0.048,0.296 0,0.338 0.021,0.014 0.158,-0.014 0.165,0 0.028,0.055 -0.048,0.29 0,0.331 0.214,0.172 0.462,0.938 0.662,1.482 0.745,2.021 1.4,4.22 1.655,6.627 0.166,0.042 0.414,42.72 0,44.851 -0.297,1.51 -0.704,2.952 -1.159,4.296 -0.097,0.29 -0.062,0.531 -0.166,0.834 -0.021,0.055 -0.159,-0.007 -0.172,0.166 0,0.042 0.021,0.125 0,0.166 -0.338,0.862 -0.952,2.462 -1.482,3.476 -0.055,0.11 -0.097,0.214 -0.166,0.331 -0.124,0.193 -0.042,0.407 -0.166,0.662 -0.035,0.076 -0.304,0.104 -0.338,0.172 -0.117,0.255 -0.048,0.441 -0.159,0.655 -0.042,0.083 -0.159,-0.021 -0.166,0.166 -0.014,0.235 -0.317,0.359 -0.331,0.662 -0.021,0.331 -0.579,1.062 -0.828,1.49 -0.441,0.765 -0.917,1.544 -1.324,2.31 -0.627,0.29 -0.958,0.896 -1.49,1.324 -0.055,0.048 -0.283,-0.055 -0.331,0 -0.117,0.145 -0.255,0.483 -0.496,0.662 -0.138,0.117 -0.359,0.076 -0.497,0.172 -0.11,0.083 -0.214,0.228 -0.331,0.331 -0.048,0.035 -0.117,0.311 -0.172,0.331 -0.214,0.097 -0.386,0.104 -0.655,0.338 -0.276,0.221 -0.4,0.435 -0.662,0.655 -0.29,0.241 -0.414,0.441 -0.662,0.662 -0.131,0.118 -0.379,0.041 -0.496,0.159 z"
   id="path42"
   style="fill:#ffffff" />
	</g>
	<g
   id="g44">
	</g>
</g>
</svg>