<svg xmlns="http://www.w3.org/2000/svg" xmlns:xlink="http://www.w3.org/1999/xlink" version="1.1" x="0px" y="0px" viewBox="0 0 96 120" enable-background="new 0 0 96 96" xml:space="preserve"><path d="M61.418,7.5c-14.932,0-27.081,12.148-27.081,27.081c0,7.287,2.898,13.906,7.595,18.778l-8.807,8.809l-2.615-2.615  c-0.195-0.195-0.512-0.195-0.707,0L7.646,81.711c-0.195,0.195-0.195,0.512,0,0.707l5.936,5.936c0.094,0.094,0.221,0.146,0.354,0.146  s0.26-0.053,0.354-0.146l22.158-22.158c0.094-0.094,0.146-0.221,0.146-0.354s-0.053-0.26-0.146-0.354l-2.614-2.613l8.807-8.808  c4.873,4.697,11.491,7.596,18.778,7.596c14.933,0,27.082-12.148,27.082-27.082C88.5,19.649,76.351,7.5,61.418,7.5z M35.386,65.842  L13.935,87.293l-5.229-5.229l21.451-21.451L35.386,65.842z M61.418,60.663c-14.381,0-26.081-11.7-26.081-26.082  S47.037,8.5,61.418,8.5C75.8,8.5,87.5,20.2,87.5,34.582S75.8,60.663,61.418,60.663z"/><text x="0" y="111" fill="#000000" font-size="5px" font-weight="bold" font-family="'Helvetica Neue', Helvetica, Arial-Unicode, Arial, Sans-serif">Created by balyanbinmalkan</text><text x="0" y="116" fill="#000000" font-size="5px" font-weight="bold" font-family="'Helvetica Neue', Helvetica, Arial-Unicode, Arial, Sans-serif">from the Noun Project</text></svg>