<svg xmlns:dc="http://purl.org/dc/elements/1.1/" xmlns:cc="http://creativecommons.org/ns#" xmlns:rdf="http://www.w3.org/1999/02/22-rdf-syntax-ns#" xmlns:svg="http://www.w3.org/2000/svg" xmlns="http://www.w3.org/2000/svg" xmlns:sodipodi="http://sodipodi.sourceforge.net/DTD/sodipodi-0.dtd" xmlns:inkscape="http://www.inkscape.org/namespaces/inkscape" version="1.1" x="0px" y="0px" viewBox="0 0 100 125"><g transform="translate(0,-952.36218)"><path style="color:#000000;font-style:normal;font-variant:normal;font-weight:normal;font-stretch:normal;font-size:medium;line-height:normal;font-family:sans-serif;text-indent:0;text-align:start;text-decoration:none;text-decoration-line:none;text-decoration-style:solid;text-decoration-color:#000000;letter-spacing:normal;word-spacing:normal;text-transform:none;direction:ltr;block-progression:tb;writing-mode:lr-tb;baseline-shift:baseline;text-anchor:start;white-space:normal;clip-rule:nonzero;display:inline;overflow:visible;visibility:visible;opacity:1;isolation:auto;mix-blend-mode:normal;color-interpolation:sRGB;color-interpolation-filters:linearRGB;solid-color:#000000;solid-opacity:1;fill:#000000;fill-opacity:1;fill-rule:nonzero;stroke:none;stroke-width:5;stroke-linecap:round;stroke-linejoin:round;stroke-miterlimit:4;stroke-dasharray:none;stroke-dashoffset:0;stroke-opacity:1;color-rendering:auto;image-rendering:auto;shape-rendering:auto;text-rendering:auto;enable-background:accumulate" d="m 50,957.36219 c -24.823202,0 -45,20.1768 -45,45.00001 0,24.8232 20.176798,45 45,45 24.823203,0 45,-20.1768 45,-45 0,-24.82321 -20.176797,-45.00001 -44.999999,-45.00001 z m 0,5 c 22.121003,0 40,17.879 40,40.00001 0,22.121 -17.878997,40 -39.999999,40 -22.121002,0 -40.000001,-17.879 -40.000001,-40 0,-22.12101 17.878999,-40.00001 40.000001,-40.00001 z"/></g><path style="" d="m 50,20 c -2.77,0 -5,2.23 -5,5 l 0,6.355469 A 10,10 0 0 1 50,30 10,10 0 0 1 55,31.349609 L 55,25 c 0,-2.77 -2.23,-5 -5,-5 z m 5,28.644531 A 10,10 0 0 1 50,50 10,10 0 0 1 45,48.650391 L 45,75 c 0,2.77 2.23,5 5,5 2.77,0 5,-2.23 5,-5 l 0,-26.355469 z" fill="#000000" fill-opacity="1" stroke="none"/><path style="" d="m 30,20 c -2.77,0 -5,2.23 -5,5 l 0,16.355469 A 10,10 0 0 1 30,40 10,10 0 0 1 35,41.349609 L 35,25 c 0,-2.77 -2.23,-5 -5,-5 z m 5,38.644531 A 10,10 0 0 1 30,60 10,10 0 0 1 25,58.650391 L 25,75 c 0,2.77 2.23,5 5,5 2.77,0 5,-2.23 5,-5 l 0,-16.355469 z" fill="#000000" fill-opacity="1" stroke="none"/><circle style="" cx="50" cy="40" r="5" fill="#000000" fill-opacity="1" stroke="none"/><circle style="" cx="30" cy="50" r="5" fill="#000000" fill-opacity="1" stroke="none"/><path style="" d="m 70,80 c 2.77,0 5,-2.23 5,-5 l 0,-6.355469 A 10,10 0 0 1 70,70 10,10 0 0 1 65,68.650391 L 65,75 c 0,2.77 2.23,5 5,5 z M 65,51.355469 A 10,10 0 0 1 70,50 10,10 0 0 1 75,51.349609 L 75,25 c 0,-2.77 -2.23,-5 -5,-5 -2.77,0 -5,2.23 -5,5 l 0,26.355469 z" fill="#000000" fill-opacity="1" stroke="none"/><circle style="" cx="-70" cy="-60" r="5" transform="scale(-1,-1)" fill="#000000" fill-opacity="1" stroke="none"/><text x="0" y="115" fill="#000000" font-size="5px" font-weight="bold" font-family="'Helvetica Neue', Helvetica, Arial-Unicode, Arial, Sans-serif">Created by Gonzalo Bravo</text><text x="0" y="120" fill="#000000" font-size="5px" font-weight="bold" font-family="'Helvetica Neue', Helvetica, Arial-Unicode, Arial, Sans-serif">from the Noun Project</text></svg>