<svg xmlns="http://www.w3.org/2000/svg" xmlns:xlink="http://www.w3.org/1999/xlink" version="1.1" x="0px" y="0px" viewBox="0 0 512 640" enable-background="new 0 0 512 512" xml:space="preserve"><g><path d="M2,2v65.5v16.4v262.2h82.4C88.7,437.2,163.9,510,256,510s167.3-72.8,171.6-163.9H510V83.9V67.5V2H2z M256,493.6   c-21.7,0-44.6-29.5-56.7-78.2c17.7,2.9,36.7,4.5,56.7,4.5s39-1.6,56.7-4.5C300.6,464.1,277.7,493.6,256,493.6z M256,403.5   c-22,0-42.2-1.9-60.3-5.2c-3.3-18.1-5.2-38.3-5.2-60.3s1.9-42.2,5.2-60.3c18.1-3.3,38.3-5.2,60.3-5.2s42.2,1.9,60.3,5.2   c3.3,18.1,5.2,38.3,5.2,60.3s-1.9,42.2-5.2,60.3C298.2,401.5,278,403.5,256,403.5z M178.5,394.6c-48.7-12.1-78.2-34.9-78.2-56.7   c0-21.7,29.5-44.6,78.2-56.7c-2.9,17.7-4.5,36.7-4.5,56.7C174.1,357.9,175.7,376.9,178.5,394.6z M333.5,281.2   c48.7,12.1,78.2,34.9,78.2,56.7c0,21.7-29.5,44.6-78.2,56.7c2.9-17.7,4.5-36.7,4.5-56.7C337.9,318,336.3,298.9,333.5,281.2z    M330.1,263.8c-7.2-32.3-18.9-58.8-33.6-76c53.3,14.4,95.2,56.3,109.6,109.6C388.9,282.7,362.4,271,330.1,263.8z M312.7,260.5   C295,257.6,276,256,256,256s-39,1.6-56.7,4.5c12.1-48.7,34.9-78.2,56.7-78.2S300.6,211.8,312.7,260.5z M181.9,263.8   c-32.3,7.2-58.8,18.9-76,33.6c14.4-53.3,56.3-95.2,109.6-109.6C200.8,205,189.1,231.5,181.9,263.8z M105.9,378.4   c17.2,14.7,43.8,26.4,76,33.6c7.2,32.3,18.9,58.8,33.6,76C162.2,473.7,120.3,431.7,105.9,378.4z M296.5,488.1   c14.7-17.2,26.4-43.8,33.6-76c32.3-7.2,58.8-18.9,76-33.6C391.7,431.7,349.8,473.7,296.5,488.1z M493.6,329.7h-66   c-4.3-91.1-79.5-163.9-171.6-163.9S88.7,238.7,84.4,329.7h-66V83.9h475.2V329.7z M18.4,67.5V18.4h475.2v49.2H18.4z"/><rect x="34.8" y="34.8" width="16.4" height="16.4"/><rect x="67.5" y="34.8" width="16.4" height="16.4"/><rect x="100.3" y="34.8" width="16.4" height="16.4"/><rect x="288.8" y="34.8" width="188.5" height="16.4"/></g><text x="0" y="527" fill="#000000" font-size="5px" font-weight="bold" font-family="'Helvetica Neue', Helvetica, Arial-Unicode, Arial, Sans-serif">Created by Icon Fair</text><text x="0" y="532" fill="#000000" font-size="5px" font-weight="bold" font-family="'Helvetica Neue', Helvetica, Arial-Unicode, Arial, Sans-serif">from the Noun Project</text></svg>