<svg xmlns="http://www.w3.org/2000/svg" xmlns:xlink="http://www.w3.org/1999/xlink" version="1.1" x="0px" y="0px" viewBox="0 0 64 80" style="enable-background:new 0 0 64 64;" xml:space="preserve"><g><path d="M37,10H5v8h32V10z M35,16H7v-4h28V16z"/><path d="M29,38c2.757,0,5-2.243,5-5s-2.243-5-5-5s-5,2.243-5,5S26.243,38,29,38z M29,30c1.654,0,3,1.346,3,3s-1.346,3-3,3   s-3-1.346-3-3S27.346,30,29,30z"/><path d="M34,45c0-2.757-2.243-5-5-5s-5,2.243-5,5s2.243,5,5,5S34,47.757,34,45z M29,48c-1.654,0-3-1.346-3-3s1.346-3,3-3   s3,1.346,3,3S30.654,48,29,48z"/><path d="M37,49c-2.757,0-5,2.243-5,5s2.243,5,5,5s5-2.243,5-5S39.757,49,37,49z M37,57c-1.654,0-3-1.346-3-3s1.346-3,3-3   s3,1.346,3,3S38.654,57,37,57z"/><path d="M55.512,37.422l1.467-15.158C56.992,22.119,57,21.976,57,21.831V19.5c0-1.431-0.684-2.693-1.728-3.518   C56.291,15.201,57,13.927,57,12c0-1.156-0.257-2.192-0.765-3.08C55.416,7.485,55,6.05,55,4.652V1.382l-1.447,0.724   C53.285,2.239,47,5.446,47,11c0,2.394,1.085,4.193,2.499,5.171C48.586,16.995,48,18.175,48,19.5v2.388   c0,0.096,0.003,0.192,0.009,0.289l0.855,13.255c-1.122-0.735-1.908-1.955-2.074-3.354c-0.011-0.099-0.023-0.181-0.037-0.26   c-0.703-3.756-2.83-6.94-5.753-9.056V6c0-2.757-2.243-5-5-5H6C3.243,1,1,3.243,1,6v44c0,2.757,2.243,5,5,5h14.604   c3.009,4.795,8.329,8,14.396,8h14.5C56.944,63,63,56.944,63,49.5C63,44.385,60.035,39.683,55.512,37.422z M49,11   c0-2.869,2.387-5.054,4.001-6.202c0.027,1.702,0.531,3.422,1.498,5.114C54.831,10.494,55,11.196,55,12c0,2.479-1.632,3-3,3   C50.558,15,49,13.471,49,11z M52.093,51.991C52.062,51.992,52.032,52,52,52c-0.021,0-0.041-0.006-0.063-0.006L50.066,23H53v-2h-3   v-1.5c0-1.379,1.121-2.5,2.5-2.5s2.5,1.121,2.5,2.5v2.331c0,0.08-0.004,0.161-0.012,0.24L52.093,51.991z M54.543,47.438   C54.832,47.9,55,48.432,55,49c0,0.785-0.31,1.495-0.805,2.03L54.543,47.438z M49.625,47.221l0.251,3.895   C49.335,50.573,49,49.825,49,49C49,48.338,49.237,47.729,49.625,47.221z M6,3h30c1.654,0,3,1.346,3,3H3C3,4.346,4.346,3,6,3z M6,53   c-1.654,0-3-1.346-3-3v-3h15.051c0.04,0.678,0.114,1.346,0.231,2H15v2h3.753c0.212,0.688,0.479,1.352,0.773,2H6z M18,36H7v-4   h11.231C18.089,32.814,18,33.646,18,34.5V36z M18.724,30H5v8h13v7H3V8h36v13.55c-0.642-0.323-1.31-0.597-2-0.822V20H5v8h14.557   C19.233,28.642,18.951,29.308,18.724,30z M25.188,22c-1.732,1.018-3.232,2.381-4.409,4H7v-4H25.188z M49.5,61H35   c-8.271,0-15-6.729-15-15V34.5C20,27.607,25.607,22,32.5,22c6.015,0,11.183,4.283,12.284,10.172l0.02,0.138   c0.294,2.477,1.95,4.562,4.209,5.423l0.45,6.981C47.944,45.615,47,47.253,47,49c0,2.757,2.243,5,5,5s5-2.243,5-5   c0-1.646-0.843-3.188-2.21-4.116l0.513-5.305C58.77,41.62,61,45.405,61,49.5C61,55.841,55.841,61,49.5,61z"/></g><text x="0" y="79" fill="#000000" font-size="5px" font-weight="bold" font-family="'Helvetica Neue', Helvetica, Arial-Unicode, Arial, Sans-serif">Created by Eucalyp</text><text x="0" y="84" fill="#000000" font-size="5px" font-weight="bold" font-family="'Helvetica Neue', Helvetica, Arial-Unicode, Arial, Sans-serif">from the Noun Project</text></svg>