<svg xmlns="http://www.w3.org/2000/svg" xmlns:xlink="http://www.w3.org/1999/xlink" version="1.1" x="0px" y="0px" viewBox="0 0 100 125" style="enable-background:new 0 0 100 100;" xml:space="preserve"><path d="M76.3,40.7c9.8,0,17.8-8,17.8-17.8S86.1,5,76.3,5c-9.8,0-17.8,8-17.8,17.8c0,3.4,1,6.5,2.6,9.2L34.9,51.1  c-3-3.6-7.5-5.8-12.6-5.8c-9.1,0-16.5,7.4-16.5,16.5s7.4,16.5,16.5,16.5c6,0,11.2-3.2,14.1-8l21.4,8.5c-0.4,1.2-0.6,2.5-0.6,3.8  c0,6.8,5.6,12.4,12.4,12.4C76.5,95,82,89.4,82,82.6c0-6.8-5.6-12.4-12.4-12.4c-4.4,0-8.3,2.4-10.5,5.9l-21.4-8.5  c0.7-1.8,1.1-3.8,1.1-5.8c0-3-0.8-5.8-2.2-8.2l26.2-19.1C66,38.3,70.9,40.7,76.3,40.7z"/><text x="0" y="115" fill="#000000" font-size="5px" font-weight="bold" font-family="'Helvetica Neue', Helvetica, Arial-Unicode, Arial, Sans-serif">Created by Lara </text><text x="0" y="120" fill="#000000" font-size="5px" font-weight="bold" font-family="'Helvetica Neue', Helvetica, Arial-Unicode, Arial, Sans-serif">from the Noun Project</text></svg>