<svg xmlns:dc="http://purl.org/dc/elements/1.1/" xmlns:cc="http://creativecommons.org/ns#" xmlns:rdf="http://www.w3.org/1999/02/22-rdf-syntax-ns#" xmlns:svg="http://www.w3.org/2000/svg" xmlns="http://www.w3.org/2000/svg" xmlns:sodipodi="http://sodipodi.sourceforge.net/DTD/sodipodi-0.dtd" xmlns:inkscape="http://www.inkscape.org/namespaces/inkscape" version="1.1" x="0px" y="0px" viewBox="0 0 100 125"><g transform="translate(0,-952.36218)"><path style="text-indent:0;text-transform:none;direction:ltr;block-progression:tb;baseline-shift:baseline;color:#000000;enable-background:accumulate;" d="m 50.03125,967.36227 c -2.34689,4.6549 -4.69993,9.3061 -7.03125,13.9688 l 4,0 0,35.01843 -4,-2.1122 0,-18.93753 c 1.19698,-0.9135 2,-2.3155 2,-3.9375 0,-3.0128 -2,-5.0128 -5,-5 -3,-0.013 -5,1.9872 -5,4.9998 0,1.622 0.80302,3.024 2,3.9375 l 0,22.06253 10,4.9872 0,6.044 c -1.19955,0.9135 -2,2.3448 -2,3.9688 0,2.7614 2.23858,5 5,5 2.76142,0 5,-2.2386 5,-5 0,-1.624 -0.80045,-3.0553 -2,-3.9688 l 0,-9.125 c 0,0 10,-5.919 10,-5.9062 l 0,-20.00003 2,0 c 0,-3.3333 0,-6.6667 0,-10 -3.36797,0 -7.03476,0 -10,0 0,3.368 0,7.0348 0,10 l 2,0 0,16.96883 -4,2.125 0,-31.09383 4,0 c -2.3196,-4.6685 -4.64912,-9.3313 -6.96875,-13.9998 z" fill="#000000" fill-opacity="1" stroke="none" marker="none" visibility="visible" display="inline" overflow="visible"/></g><text x="0" y="115" fill="#000000" font-size="5px" font-weight="bold" font-family="'Helvetica Neue', Helvetica, Arial-Unicode, Arial, Sans-serif">Created by AFY Studio</text><text x="0" y="120" fill="#000000" font-size="5px" font-weight="bold" font-family="'Helvetica Neue', Helvetica, Arial-Unicode, Arial, Sans-serif">from the Noun Project</text></svg>