<svg xmlns="http://www.w3.org/2000/svg" xmlns:xlink="http://www.w3.org/1999/xlink" version="1.1" x="0px" y="0px" viewBox="0 0 100 125" enable-background="new 0 0 100 100" xml:space="preserve"><g display="none"><g display="inline"><circle cx="26" cy="39.992" r="8"/><polygon points="17.996,52 18,72 24,72 28,72 34,72 34,51.993   "/></g><g display="inline"><polyline points="33,61.228 51,35.081 44.999,35.081 29,55.075   "/><polyline points="19,61.228 1,35.081 7.001,35.081 23,55.075   "/></g><g display="inline"><path fill="#000000" d="M2.24,65.765c5.682-1.489,6.634,5.902,12.508,5.902s5.874-6,11.748-6c5.873,0,5.873,6,11.745,6    c5.874,0,5.873-6,11.747-6c5.876,0,5.876,6,11.752,6c5.874,0,5.874-6,11.748-6c5.878,0,5.878,6,11.756,6s6.826-7.387,12.514-5.903    c1.682,0.439-4.093,1.954-5.342,3.162c-1.247,1.205,2.924,5.519,1.677,6.724c-1.248,1.207-5.419-3.107-6.667-1.9    c-1.25,1.208,2.92,5.522,1.67,6.73c-1.25,1.208-5.42-3.105-6.67-1.896c-1.251,1.208,2.92,5.522,1.669,6.731    c-1.252,1.21-5.423-3.104-6.675-1.893c-1.253,1.21,2.024,7.04,0.34,7.48C74.496,91.756,73.627,85,70.253,85s-3.374,6-6.748,6    s-3.374-6-6.747-6c-3.375,0-3.375,6-6.749,6c-3.372,0-3.372-6-6.745-6c-3.376,0-3.376,6-6.752,6c-3.378,0-3.378-6-6.756-6    s-4.245,6.756-7.514,5.903c-1.682-0.439,1.594-6.268,0.344-7.475c-1.246-1.206-5.417,3.108-6.663,1.903    c-1.249-1.207,2.921-5.521,1.673-6.728c-1.25-1.208-5.42,3.106-6.67,1.897s2.92-5.522,1.67-6.731s-5.42,3.106-6.671,1.897    c-1.253-1.211,2.924-5.502,1.68-6.722C5.188,66.578,0.555,66.207,2.24,65.765z"/><path fill="#000000" stroke="#FFFFFF" stroke-width="7" stroke-miterlimit="10" d="M2.24,65.765    c5.682-1.489,6.634,5.902,12.508,5.902s5.874-6,11.748-6c5.873,0,5.873,6,11.745,6c5.874,0,5.873-6,11.747-6    c5.876,0,5.876,6,11.752,6c5.874,0,5.874-6,11.748-6c5.878,0,5.878,6,11.756,6s6.826-7.387,12.514-5.903    c1.682,0.439-4.093,1.954-5.342,3.162c-1.247,1.205,2.924,5.519,1.677,6.724c-1.248,1.207-5.419-3.107-6.667-1.9    c-1.25,1.208,2.92,5.522,1.67,6.73c-1.25,1.208-5.42-3.105-6.67-1.896c-1.251,1.208,2.92,5.522,1.669,6.731    c-1.252,1.21-5.423-3.104-6.675-1.893c-1.253,1.21,2.024,7.04,0.34,7.48C74.496,91.756,73.627,85,70.253,85s-3.374,6-6.748,6    s-3.374-6-6.747-6c-3.375,0-3.375,6-6.749,6c-3.372,0-3.372-6-6.745-6c-3.376,0-3.376,6-6.752,6c-3.378,0-3.378-6-6.756-6    s-4.245,6.756-7.514,5.903c-1.682-0.439,1.594-6.268,0.344-7.475c-1.246-1.206-5.417,3.108-6.663,1.903    c-1.249-1.207,2.921-5.521,1.673-6.728c-1.25-1.208-5.42,3.106-6.67,1.897s2.92-5.522,1.67-6.731s-5.42,3.106-6.671,1.897    c-1.253-1.211,2.924-5.502,1.68-6.722C5.188,66.578,0.555,66.207,2.24,65.765z"/></g><g display="inline"><path fill="none" stroke="#000000" stroke-width="5" stroke-miterlimit="10" d="M3,61.667c5.874,0,5.874,6,11.748,6    s5.874-6,11.748-6c5.873,0,5.873,6,11.745,6c5.874,0,5.873-6,11.747-6c5.876,0,5.876,6,11.752,6c5.874,0,5.874-6,11.748-6    c5.878,0,5.878,6,11.756,6s5.878-6,11.756-6"/></g><circle display="inline" fill="none" stroke="#000000" stroke-width="12" stroke-miterlimit="10" cx="74" cy="38" r="12"/><g display="inline"><circle fill="#000000" stroke="#FFFFFF" stroke-width="5" stroke-miterlimit="10" stroke-dasharray="12.5631,12.5631" cx="74" cy="38" r="12"/></g></g><g><g><circle cx="26" cy="39.992" r="8"/><path d="M89.336,62.917c-1.448,1.478-2.287,2.25-4.092,2.25s-2.644-0.771-4.092-2.25c-1.551-1.583-3.675-3.75-7.664-3.75    c-3.988,0-6.11,2.168-7.66,3.751c-1.447,1.478-2.286,2.249-4.088,2.249c-1.803,0-2.643-0.771-4.09-2.249    c-1.55-1.583-3.673-3.75-7.662-3.75c-3.988,0-6.11,2.168-7.66,3.751c-1.446,1.478-2.285,2.249-4.087,2.249    c-1.801,0-2.64-0.771-4.085-2.249c-0.05-0.051-0.105-0.106-0.156-0.158v-2.986l17-24.694h-6.001L31.465,51.994l-10.926,0.005    L7.001,35.081H1l16.998,24.69v3.972c-0.998,0.934-1.824,1.424-3.25,1.424c-1.802,0-2.641-0.771-4.088-2.249    C9.11,61.335,6.988,59.167,3,59.167v5c1.802,0,2.641,0.771,4.088,2.249c1.55,1.583,3.672,3.751,7.66,3.751s6.11-2.168,7.66-3.751    c1.447-1.478,2.286-2.249,4.088-2.249s2.64,0.771,4.087,2.249c1.549,1.583,3.671,3.751,7.658,3.751c3.988,0,6.11-2.168,7.66-3.751    c1.446-1.478,2.285-2.249,4.087-2.249c1.803,0,2.643,0.771,4.09,2.249c1.55,1.583,3.673,3.75,7.662,3.75    c3.988,0,6.11-2.168,7.66-3.751c1.447-1.478,2.286-2.249,4.088-2.249c1.805,0,2.644,0.771,4.092,2.25    c1.551,1.583,3.675,3.75,7.664,3.75s6.113-2.167,7.664-3.75c1.448-1.478,2.287-2.25,4.092-2.25v-5    C93.011,59.167,90.887,61.334,89.336,62.917z"/></g><path d="M74,20c-9.925,0-18,8.075-18,18s8.075,18,18,18s18-8.075,18-18S83.925,20,74,20z M81.209,25.416l-2.486,4.338   c-2.881-1.651-6.631-1.638-9.494,0.029l-2.516-4.32C71.091,22.912,76.806,22.892,81.209,25.416z M66.765,50.568   c-4.471-2.578-7.255-7.382-7.265-12.539l5-0.01c0.007,3.378,1.832,6.527,4.763,8.217L66.765,50.568z M74,44c-3.309,0-6-2.691-6-6   s2.691-6,6-6s6,2.691,6,6S77.309,44,74,44z M81.262,50.553l-2.508-4.326C81.682,44.53,83.5,41.378,83.5,38l5-0.049V38   C88.5,43.155,85.727,47.965,81.262,50.553z"/></g><text x="0" y="115" fill="#000000" font-size="5px" font-weight="bold" font-family="'Helvetica Neue', Helvetica, Arial-Unicode, Arial, Sans-serif">Created by Miguel C Balandrano</text><text x="0" y="120" fill="#000000" font-size="5px" font-weight="bold" font-family="'Helvetica Neue', Helvetica, Arial-Unicode, Arial, Sans-serif">from the Noun Project</text></svg>