<svg xmlns="http://www.w3.org/2000/svg" xmlns:xlink="http://www.w3.org/1999/xlink" version="1.1" x="0px" y="0px" viewBox="0 0 40 50" enable-background="new 0 0 40 40" xml:space="preserve"><g><path fill="#000000" d="M10.7,30.11H0.756c-0.553,0-1-0.447-1-1V1c0-0.553,0.447-1,1-1h28.111c0.553,0,1,0.447,1,1v10.14   c0,0.553-0.447,1-1,1s-1-0.447-1-1V2H1.756v26.11H10.7c0.553,0,1,0.447,1,1S11.253,30.11,10.7,30.11z"/><path fill="#000000" d="M38.812,40.25H10.7c-0.553,0-1-0.447-1-1V29.11c0-0.553,0.447-1,1-1h17.167V11.14c0-0.553,0.447-1,1-1   h9.944c0.553,0,1,0.447,1,1v28.11C39.812,39.803,39.364,40.25,38.812,40.25z M11.7,38.25h26.111V12.14h-7.944V29.11   c0,0.553-0.447,1-1,1H11.7V38.25z"/></g><text x="0" y="55" fill="#000000" font-size="5px" font-weight="bold" font-family="'Helvetica Neue', Helvetica, Arial-Unicode, Arial, Sans-serif">Created by Gabriella Cinque</text><text x="0" y="60" fill="#000000" font-size="5px" font-weight="bold" font-family="'Helvetica Neue', Helvetica, Arial-Unicode, Arial, Sans-serif">from the Noun Project</text></svg>