<?xml version="1.0" encoding="UTF-8" standalone="no"?>
<svg
   xmlns:dc="http://purl.org/dc/elements/1.1/"
   xmlns:cc="http://creativecommons.org/ns#"
   xmlns:rdf="http://www.w3.org/1999/02/22-rdf-syntax-ns#"
   xmlns:svg="http://www.w3.org/2000/svg"
   xmlns="http://www.w3.org/2000/svg"
   id="svg4950"
   xml:space="preserve"
   enable-background="new 0 0 100 100"
   viewBox="0 0 100 125"
   y="0px"
   x="0px"
   version="1.1"><metadata
     id="metadata4956"><rdf:RDF><cc:Work
         rdf:about=""><dc:format>image/svg+xml</dc:format><dc:type
           rdf:resource="http://purl.org/dc/dcmitype/StillImage" /><dc:title></dc:title></cc:Work></rdf:RDF></metadata><defs
     id="defs4954" /><g
     transform="translate(-135.07109,1.1848341)"
     id="g4800"><g
       id="g4760"><path
         id="path4758"
         d="m 211.229,4.937 c 10.265,0 18.616,8.351 18.616,18.616 v 52.894 c 0,10.265 -8.351,18.616 -18.616,18.616 h -52.894 c -10.265,0 -18.616,-8.351 -18.616,-18.616 V 23.553 c 0,-10.265 8.351,-18.616 18.616,-18.616 h 52.894 m 0,-3 h -52.894 c -11.938,0 -21.616,9.678 -21.616,21.616 v 52.894 c 0,11.938 9.678,21.616 21.616,21.616 h 52.894 c 11.938,0 21.616,-9.678 21.616,-21.616 V 23.553 c 0,-11.938 -9.678,-21.616 -21.616,-21.616 z" /></g><line
       style="fill:none;stroke:#000000;stroke-width:0.25;stroke-miterlimit:10"
       id="line4762"
       y2="1.25"
       x2="233.532"
       y1="98.75"
       x1="136.032"
       stroke-miterlimit="10" /><line
       style="fill:none;stroke:#000000;stroke-width:0.25;stroke-miterlimit:10"
       id="line4764"
       y2="98.75"
       x2="233.532"
       y1="1.25"
       x1="136.032"
       stroke-miterlimit="10" /><g
       id="g4772"><line
         style="fill:none;stroke:#000000;stroke-width:0.25;stroke-miterlimit:10"
         id="line4766"
         y2="67.75"
         x2="231.923"
         y1="67.75"
         x1="137.64101"
         stroke-miterlimit="10" /><line
         style="fill:none;stroke:#000000;stroke-width:0.25;stroke-miterlimit:10"
         id="line4768"
         y2="50"
         x2="231.923"
         y1="50"
         x1="137.64101"
         stroke-miterlimit="10" /><line
         style="fill:none;stroke:#000000;stroke-width:0.25;stroke-miterlimit:10"
         id="line4770"
         y2="32.25"
         x2="231.923"
         y1="32.25"
         x1="137.64101"
         stroke-miterlimit="10" /></g><g
       id="g4780"><line
         style="fill:none;stroke:#000000;stroke-width:0.25;stroke-miterlimit:10"
         id="line4774"
         y2="2.859"
         x2="202.532"
         y1="97.140999"
         x1="202.532"
         stroke-miterlimit="10" /><line
         style="fill:none;stroke:#000000;stroke-width:0.25;stroke-miterlimit:10"
         id="line4776"
         y2="2.859"
         x2="184.782"
         y1="97.140999"
         x1="184.782"
         stroke-miterlimit="10" /><line
         style="fill:none;stroke:#000000;stroke-width:0.25;stroke-miterlimit:10"
         id="line4778"
         y2="2.859"
         x2="167.032"
         y1="97.140999"
         x1="167.032"
         stroke-miterlimit="10" /></g><g
       id="g4786"><line
         style="fill:none;stroke:#000000;stroke-width:0.25;stroke-miterlimit:10"
         id="line4782"
         y2="1.937"
         x2="226.532"
         y1="98.063004"
         x1="226.532"
         stroke-miterlimit="10" /><line
         style="fill:none;stroke:#000000;stroke-width:0.25;stroke-miterlimit:10"
         id="line4784"
         y2="1.937"
         x2="143.032"
         y1="98.063004"
         x1="143.032"
         stroke-miterlimit="10" /></g><g
       id="g4792"><line
         style="fill:none;stroke:#000000;stroke-width:0.25;stroke-miterlimit:10"
         id="line4788"
         y2="8.25"
         x2="136.71899"
         y1="8.25"
         x1="232.845"
         stroke-miterlimit="10" /><line
         style="fill:none;stroke:#000000;stroke-width:0.25;stroke-miterlimit:10"
         id="line4790"
         y2="91.75"
         x2="136.71899"
         y1="91.75"
         x1="232.845"
         stroke-miterlimit="10" /></g><circle
       style="fill:none;stroke:#000000;stroke-width:0.25;stroke-miterlimit:10"
       id="circle4794"
       r="41.700001"
       cy="50"
       cx="184.782"
       stroke-miterlimit="10" /><circle
       style="fill:none;stroke:#000000;stroke-width:0.25;stroke-miterlimit:10"
       id="circle4796"
       r="25.162001"
       cy="50"
       cx="184.782"
       stroke-miterlimit="10" /><circle
       style="fill:none;stroke:#000000;stroke-width:0.25;stroke-miterlimit:10"
       id="circle4798"
       r="17.75"
       cy="50"
       cx="184.782"
       stroke-miterlimit="10" /></g></svg>