<svg xmlns="http://www.w3.org/2000/svg" xmlns:xlink="http://www.w3.org/1999/xlink" version="1.1" x="0px" y="0px" viewBox="0 0 96 120.00125" enable-background="new 0 0 96 96.001" xml:space="preserve"><g display="none"><g display="inline" opacity="0.2"><g><path fill="#000000" stroke="#EC2227" stroke-width="0.5" stroke-miterlimit="10" d="M24.959,77.043     c0,3.331-2.727,6.058-6.057,6.058h-72.885c-3.33,0-6.057-2.727-6.057-6.058V4.157c0-3.331,2.727-6.057,6.057-6.057h72.885     c3.33,0,6.057,2.726,6.057,6.057V77.043z"/><path fill="#000000" stroke="#EC2227" stroke-width="0.5" stroke-miterlimit="10" d="M-44.895,87.101     c-3.074,0-5.59-2.564-5.59-5.703V-0.198c0-3.136,2.516-5.701,5.59-5.701H9.645c3.074,0,5.588,2.565,5.588,5.701v81.596     c0,3.139-2.514,5.703-5.588,5.703H-44.895z"/><path fill="#000000" stroke="#EC2227" stroke-width="0.5" stroke-miterlimit="10" d="M-58.367,73.392     c-3.176,0-5.773-2.486-5.773-5.529V13.149c0-3.04,2.598-5.527,5.773-5.527H23.08c3.176,0,5.773,2.487,5.773,5.527v54.713     c0,3.043-2.598,5.529-5.773,5.529H-58.367z"/></g><circle fill="#000000" stroke="#EC2227" stroke-width="0.5" stroke-miterlimit="10" cx="-17.634" cy="40.507" r="19.362"/><path fill="#000000" stroke="#EC2227" stroke-width="0.5" stroke-miterlimit="10" d="M28.865,40.507c0,25.68-20.82,46.5-46.498,46.5    c-25.682,0-46.5-20.82-46.5-46.5c0-25.683,20.818-46.5,46.5-46.5C8.045-5.993,28.865,14.824,28.865,40.507z"/><line fill="#000000" stroke="#EC2227" stroke-width="0.5" stroke-miterlimit="10" x1="-65.625" y1="-7.485" x2="30.357" y2="88.499"/><line fill="#000000" stroke="#EC2227" stroke-width="0.5" stroke-miterlimit="10" x1="30.357" y1="-7.485" x2="-65.625" y2="88.499"/></g></g><g><rect x="36.239" y="65.258" width="23.521" height="12.12"/><rect x="18.623" y="30.192" width="23.521" height="12.12"/><circle cx="23.02" cy="14.148" r="1.442"/><circle cx="14.782" cy="14.148" r="1.442"/><rect x="18.623" y="47.726" width="58.755" height="12.119"/><circle cx="31.257" cy="14.148" r="1.442"/><path d="M83.296,24.274H12.705v59.021h70.591V24.274z M17.123,28.692h26.521v15.12H17.123V28.692z M61.261,78.878H34.739v-15.12   h26.521V78.878z M78.878,61.345H17.123V46.226h61.755V61.345z M78.878,43.813H52.356v-15.12h26.521V43.813z"/><rect x="53.856" y="30.192" width="23.521" height="12.12"/><path d="M80.813,6.251H15.183c-4.926,0-8.933,4.007-8.933,8.932v74.568h83.501V15.183C89.751,10.258,85.741,6.251,80.813,6.251z    M31.257,11.206c1.623,0,2.943,1.319,2.943,2.941c0,1.623-1.32,2.943-2.943,2.943c-1.622,0-2.941-1.32-2.941-2.943   C28.315,12.525,29.635,11.206,31.257,11.206z M23.02,11.206c1.622,0,2.942,1.319,2.942,2.941c0,1.623-1.32,2.943-2.942,2.943   s-2.942-1.32-2.942-2.943C20.077,12.525,21.397,11.206,23.02,11.206z M14.782,11.206c1.622,0,2.942,1.319,2.942,2.941   c0,1.623-1.32,2.943-2.942,2.943s-2.942-1.32-2.942-2.943C11.84,12.525,13.16,11.206,14.782,11.206z M84.796,84.796H11.205V22.774   h73.591V84.796z"/></g><text x="0" y="111.001" fill="#000000" font-size="5px" font-weight="bold" font-family="'Helvetica Neue', Helvetica, Arial-Unicode, Arial, Sans-serif">Created by ahmad</text><text x="0" y="116.001" fill="#000000" font-size="5px" font-weight="bold" font-family="'Helvetica Neue', Helvetica, Arial-Unicode, Arial, Sans-serif">from the Noun Project</text></svg>