<svg xmlns="http://www.w3.org/2000/svg" xmlns:xlink="http://www.w3.org/1999/xlink" version="1.1" x="0px" y="0px" viewBox="0 0 388 286.65625" style="enable-background:new 0 0 388 229.325;" xml:space="preserve"><g><path d="M383.391,205.293v-0.002l-0.009,0.007c-0.462,0.269-6.957,4.021-19.633,4.025c-6.44,0.016-13.257-2.096-20.342-4.357   c-7.085-2.238-14.433-4.627-22.157-4.643c-7.727,0.016-15.076,2.404-22.16,4.643c-7.082,2.262-13.902,4.373-20.342,4.357   c-6.44,0.016-13.257-2.096-20.339-4.357c-7.084-2.238-14.434-4.627-22.16-4.643c-7.727,0.016-15.075,2.404-22.158,4.643   c-7.084,2.262-13.902,4.373-20.342,4.357c-6.44,0.016-13.26-2.096-20.342-4.357c-3.37-1.064-6.802-2.156-10.303-3.018v-3.805   c2.78,0.736,5.609,1.621,8.485,2.538c7.085,2.24,14.434,4.628,22.16,4.644c7.724-0.016,15.073-2.403,22.158-4.644   c7.083-2.26,13.901-4.372,20.342-4.356c6.439-0.016,13.257,2.097,20.34,4.356c7.085,2.24,14.434,4.628,22.16,4.644   c7.724-0.016,15.073-2.403,22.158-4.644c7.082-2.26,13.901-4.372,20.342-4.356c6.439-0.016,13.257,2.097,20.34,4.356   c7.085,2.24,14.434,4.628,22.16,4.644c0.006,0,0.014,0,0.021,0c14.798,0,22.465-4.726,22.837-4.968   c1.398-0.889,1.812-2.743,0.923-4.141c-0.889-1.399-2.741-1.813-4.141-0.925l-0.009,0.006c-0.461,0.269-6.955,4.021-19.631,4.025   c-6.441,0.016-13.26-2.097-20.342-4.358c-7.085-2.238-14.434-4.626-22.158-4.642c-7.726,0.016-15.075,2.403-22.16,4.642   c-7.083,2.262-13.901,4.374-20.34,4.358c-6.441,0.016-13.26-2.097-20.342-4.358c-7.085-2.238-14.434-4.626-22.158-4.642   c-7.726,0.016-15.075,2.403-22.16,4.642c-7.083,2.262-13.901,4.374-20.34,4.358c-6.441,0.016-13.26-2.097-20.342-4.358   c-3.37-1.064-6.802-2.155-10.303-3.017v-6.551V122.97H40v43.928H0v62.427h163.105v-21.182c2.781,0.736,5.61,1.621,8.485,2.54   c7.084,2.238,14.434,4.627,22.16,4.642c7.724-0.015,15.073-2.403,22.158-4.642c7.084-2.263,13.902-4.373,20.342-4.358   c6.44-0.015,13.257,2.096,20.342,4.358c7.084,2.238,14.433,4.627,22.157,4.642c7.727-0.015,15.076-2.403,22.16-4.642   c7.082-2.263,13.902-4.373,20.342-4.358c6.44-0.015,13.257,2.096,20.339,4.358c7.085,2.238,14.434,4.627,22.16,4.642   c0.006,0,0.014,0,0.021,0c14.798,0,22.467-4.727,22.838-4.967c1.399-0.89,1.813-2.744,0.924-4.142   C386.643,204.816,384.79,204.403,383.391,205.293z"/><g><ellipse transform="matrix(0.6318 -0.7751 0.7751 0.6318 34.4356 178.8613)" cx="205.497" cy="53.182" rx="22.496" ry="22.493"/><path d="M160.501,34.823c1.303,0,2.581,0.251,3.794,0.75c5.102,2.093,7.548,7.946,5.457,13.047l-0.049,0.133    c-0.075,0.181-0.163,0.417-0.284,0.734c-0.247,0.668-0.623,1.714-1.082,3.111c-0.699,2.113-1.696,5.344-2.779,9.488    c3.966-0.289,7.511-1.837,9.723-4.875c5.177-7.114,5.22-24.179-6.46-34.341c-16.143-13.882-28.76-18.967-49.02-22.26    C103.705-2.535,98.03,7.073,94.695,15.61c-0.253,0.647-0.487,1.267-0.704,1.867c-0.246,0.584-0.451,1.182-0.604,1.793    c-0.986,3.229-1.103,5.74,0.612,7.943c0.341,0.802,0.767,1.58,1.289,2.32c0.08,0.116,0.731,1.071,1.707,2.835    c3.152,5.669,9.28,19.177,9.259,37.025c-0.008,9.946-1.836,21.293-7.216,33.884c-2.716,6.348,0.228,13.695,6.575,16.411    c1.604,0.686,3.271,1.012,4.913,1.012c4.852,0,9.468-2.843,11.499-7.586h-0.002c6.748-15.752,9.24-30.655,9.233-43.721    c-0.003-13.05-2.441-24.239-5.363-32.991c9.662,3.659,15.803,9.813,21.258,17.209c2.167-7.742,3.918-12.136,4.096-12.574    C152.794,37.258,156.427,34.823,160.501,34.823z"/><path d="M148.045,120.246c0.11,0.005,0.219,0.007,0.328,0.007c4.27,0,7.814-3.375,7.985-7.681    c0.813-20.367,3.759-36.701,6.475-47.868c0.217-0.894,0.432-1.742,0.646-2.569c1.119-4.339,2.164-7.762,2.957-10.16    c0.472-1.429,0.856-2.497,1.111-3.188c0.129-0.345,0.226-0.599,0.288-0.75c0.06-0.157,0.069-0.174,0.066-0.174    c1.678-4.089-0.276-8.762-4.363-10.439c-4.087-1.676-8.761,0.276-10.437,4.365c-0.109,0.27-2.086,5.135-4.462,13.89    c-3.257,11.999-7.267,31.317-8.266,56.256C140.195,116.347,143.63,120.07,148.045,120.246z"/></g></g><text x="0" y="244.325" fill="#000000" font-size="5px" font-weight="bold" font-family="'Helvetica Neue', Helvetica, Arial-Unicode, Arial, Sans-serif">Created by Gan Khoon Lay</text><text x="0" y="249.325" fill="#000000" font-size="5px" font-weight="bold" font-family="'Helvetica Neue', Helvetica, Arial-Unicode, Arial, Sans-serif">from the Noun Project</text></svg>