<svg xmlns="http://www.w3.org/2000/svg" xmlns:xlink="http://www.w3.org/1999/xlink" version="1.1" x="0px" y="0px" viewBox="0 0 100 100" enable-background="new 0 0 100 100" xml:space="preserve"><path d="M15.614,84.176l0.163,0.083c0.041,0.02,0.113,0.06,0.184,0.101c0.294,0.126,0.633,0.202,0.983,0.216l0.157-0.002  l6.836,0.004c0.778,0,1.511-0.302,2.061-0.849c0.548-0.547,0.85-1.275,0.849-2.049c0-1.6-1.31-2.899-2.92-2.899h-3.953l0.001-17.43  c0.015-0.279,0.001-0.526-0.041-0.731c-0.147-0.905-0.623-1.634-1.321-2.078l-0.341-0.273l-6.337-6.338l7.045-7.051  c0.355-0.316,0.616-0.68,0.776-1.079c0.076-0.181,0.106-0.324,0.141-0.466l0.038-0.134c0.036-0.216,0.054-0.53,0.042-0.796  l0.002-17.671h3.952c1.637,0,2.918-1.232,2.918-2.806c0-0.769-0.298-1.487-0.841-2.022c-0.548-0.54-1.283-0.837-2.069-0.837  l-6.873,0.042c-0.364,0-0.724,0.071-1.077,0.21c-0.097,0.059-0.164,0.098-0.232,0.134l-0.155,0.079  c-0.062,0.03-0.125,0.058-0.181,0.094c-0.112,0.076-0.224,0.182-0.336,0.287l-0.145,0.124c-0.085,0.092-0.181,0.211-0.272,0.343  l-0.073,0.104c-0.068,0.116-0.127,0.238-0.185,0.361l-0.061,0.12c-0.034,0.093-0.053,0.192-0.078,0.288  c-0.022,0.092-0.053,0.188-0.085,0.284c-0.022,0.095-0.052,0.201-0.084,0.307c-0.011,0.03-0.006-0.006-0.002-0.045  c-0.021,0.207-0.067,0.385-0.112,0.524l0.084,19.137l-8.226,8.274c-0.554,0.555-0.849,1.308-0.833,2.124l0.001,0.05l-0.001,0.051  c-0.025,0.811,0.28,1.575,0.858,2.152l8.202,8.275l-0.085,18.979c0.047,0.144,0.092,0.321,0.112,0.527  c0.005,0.061,0.017,0.122,0.029,0.183c0.039,0.094,0.072,0.186,0.098,0.277c0.035,0.13,0.064,0.243,0.1,0.346  c0.032,0.059,0.061,0.116,0.087,0.175c0.047,0.104,0.102,0.214,0.165,0.321l0.103,0.152c0.085,0.12,0.169,0.225,0.252,0.313  c0.051,0.041,0.099,0.082,0.146,0.125c0.108,0.102,0.214,0.204,0.337,0.286C15.483,84.114,15.549,84.144,15.614,84.176z"></path><path d="M94.986,51.784c0.025-0.909-0.279-1.674-0.857-2.252l-8.199-8.273l0.085-18.979c-0.048-0.144-0.093-0.324-0.112-0.533  c-0.005-0.055-0.017-0.116-0.029-0.177c-0.042-0.102-0.076-0.201-0.104-0.301c-0.029-0.112-0.059-0.221-0.095-0.325  c-0.034-0.062-0.065-0.125-0.093-0.188c-0.053-0.115-0.109-0.225-0.167-0.323l-0.09-0.13c-0.078-0.111-0.166-0.222-0.257-0.318  c-0.051-0.041-0.099-0.082-0.145-0.125c-0.109-0.102-0.219-0.207-0.346-0.291c-0.07-0.046-0.142-0.077-0.211-0.111l-0.123-0.062  c-0.064-0.033-0.145-0.078-0.224-0.124c-0.271-0.115-0.608-0.189-0.959-0.203l-0.159,0.002l-6.836-0.004  c-0.778,0-1.511,0.302-2.061,0.85c-0.549,0.546-0.851,1.273-0.85,2.047c0,1.599,1.31,2.899,2.921,2.899h3.951l-0.001,17.433  c-0.015,0.276-0.001,0.522,0.041,0.728c0.146,0.905,0.624,1.634,1.32,2.078l0.342,0.273l6.338,6.337l-7.045,7.052  c-0.355,0.317-0.616,0.68-0.775,1.078c-0.075,0.178-0.105,0.319-0.14,0.462l-0.04,0.142c-0.036,0.216-0.054,0.533-0.042,0.789  l-0.003,17.676h-3.951c-1.637,0-2.919,1.232-2.919,2.806c-0.001,0.769,0.298,1.486,0.842,2.022c0.546,0.539,1.28,0.836,2.065,0.837  l6.875-0.042c0.364,0,0.725-0.07,1.074-0.209l0.398-0.218c0.062-0.031,0.127-0.06,0.186-0.097c0.096-0.067,0.214-0.176,0.333-0.285  l0.135-0.117c0.087-0.094,0.184-0.213,0.273-0.343l0.074-0.105c0.067-0.116,0.126-0.238,0.184-0.361l0.06-0.117  c0.036-0.099,0.056-0.203,0.082-0.306c0.021-0.084,0.05-0.176,0.083-0.269c0.023-0.101,0.053-0.203,0.084-0.307  c0.012-0.027,0.005,0.013,0.001,0.059c0.021-0.216,0.068-0.398,0.115-0.54L85.93,62.186l8.226-8.274  C94.709,53.357,95.003,52.603,94.986,51.784z"></path><path d="M66.554,7.476c-0.353-0.285-0.886-0.627-1.405-0.627l-0.226-0.009L45.272,5c-0.046,0.007-0.101,0.018-0.156,0.026  c-0.048,0.008-0.096,0.015-0.144,0.022c-0.144,0.053-0.279,0.093-0.413,0.12c-0.12,0.023-0.233,0.049-0.339,0.083  c-0.054,0.021-0.114,0.055-0.175,0.085l-0.355,0.166c-0.123,0.066-0.248,0.166-0.373,0.264l-0.14,0.103  C43.105,5.935,43,6.045,42.879,6.187l-0.072,0.083c-0.082,0.113-0.16,0.245-0.222,0.353l-0.072,0.121  c-0.055,0.124-0.088,0.229-0.124,0.331c-0.02,0.058-0.045,0.121-0.072,0.185c-0.002,0.023-0.007,0.059-0.013,0.094l-0.028,0.178  c-0.014,0.083-0.033,0.174-0.053,0.265l-6.729,73.171c-0.126,0.853,0.097,1.672,0.63,2.304l8.846,10.516  c0.035,0.055,0.066,0.112,0.106,0.164C45.638,94.621,46.451,95,47.316,95c0,0,0,0,0,0c0.692,0,1.339-0.235,1.87-0.683l10.687-8.99  c0.11-0.093,0.229-0.218,0.364-0.382l0.066-0.081c0.369-0.5,0.559-1.035,0.59-1.61l5.165-56.225l0.048-0.172  c0.058-0.208,0.089-0.368,0.101-0.505c0.011-0.131,0.008-0.28-0.01-0.478l-0.016-0.179l1.445-15.707  C67.71,9.032,67.309,8.089,66.554,7.476z M55.346,79.945l-13.793-1.194l4.708-51.219l13.79,1.197L55.346,79.945z M60.581,22.924  L46.79,21.73L47.762,11.2l13.788,1.197L60.581,22.924z"></path></svg>