<svg xmlns="http://www.w3.org/2000/svg" xmlns:xlink="http://www.w3.org/1999/xlink" version="1.1" x="0px" y="0px" viewBox="0 0 512 640" enable-background="new 0 0 512 512" xml:space="preserve"><g><path d="M506.7,244.2c-2.1-1.5-4.7-1.9-7.2-1.1l-61,20.5L410.1,9.1c-0.4-4-3.8-7.1-7.9-7.1h-75.6c-4,0-7.4,3-7.9,7.1l-27.9,249.7   l-70.2,21.4L198.7,83.9c-0.4-4-3.8-7.1-7.9-7.1h-57c-4,0-7.4,3-7.9,7.1l-20.4,182.8L7.2,302.8C4.1,304,2,306.9,2,310.3v191.8   c0,4.4,3.6,7.9,7.9,7.9h492.1c4.4,0,7.9-3.6,7.9-7.9V250.6C510,248,508.8,245.6,506.7,244.2z M395.1,17.9l3.8,34.2h-69.1l3.8-34.2   H395.1z M307.4,253.7L328.1,68h72.6l22.4,200.7l-70.2,23.5v-41.6c0-2.5-1.2-4.9-3.2-6.4c-0.9-0.7-1.9-1-3-1.3   c-0.3-0.1-0.5-0.1-0.8-0.1c-0.3,0-0.6-0.1-0.9-0.1c-0.8,0-1.6,0.1-2.3,0.3L307.4,253.7z M183.7,92.7l2.4,21.9h-47.7l2.4-21.9H183.7   z M136.7,130.4h51.2l17.2,154.4l-25.2,7.7v-41.9c0-2.6-1.3-5-3.4-6.5c-0.6-0.4-1.3-0.7-2-1c-0.2-0.1-0.4-0.1-0.6-0.2   c-0.5-0.1-1-0.2-1.6-0.2c-0.1,0-0.2-0.1-0.4-0.1c-0.1,0-0.2,0-0.3,0.1c-0.8,0-1.7,0.1-2.5,0.4l-47.1,17.3L136.7,130.4z    M494.1,494.1H17.9V315.8L164.1,262v41.3c0,2.5,1.2,4.9,3.2,6.4c0.9,0.7,1.9,1,3,1.3c0.3,0.1,0.5,0.1,0.8,0.1   c0.3,0,0.6,0.1,0.9,0.1c0.8,0,1.6-0.1,2.3-0.3L337,261.3v42c0,2.6,1.2,5,3.3,6.4c0.6,0.4,1.3,0.8,2,1c0.2,0.1,0.5,0.1,0.7,0.2   c0.5,0.1,1,0.2,1.5,0.2c0.2,0,0.3,0.1,0.5,0.1c0.1,0,0.2,0,0.3,0c0.7,0,1.5-0.1,2.2-0.4c0,0,0,0,0,0l146.6-49.2V494.1z"/><path d="M146.2,385.7H64.3c-4.4,0-7.9,3.6-7.9,7.9v57.4c0,4.4,3.5,7.9,7.9,7.9h81.8c4.4,0,7.9-3.6,7.9-7.9v-57.4   C154.1,389.2,150.5,385.7,146.2,385.7z M138.2,443.1h-66v-41.6h66V443.1z"/><path d="M296.9,385.7h-81.8c-4.4,0-7.9,3.6-7.9,7.9v57.4c0,4.4,3.6,7.9,7.9,7.9h81.8c4.4,0,7.9-3.6,7.9-7.9v-57.4   C304.8,389.2,301.3,385.7,296.9,385.7z M289,443.1h-66v-41.6h66V443.1z"/><path d="M365.8,385.7c-4.4,0-7.9,3.6-7.9,7.9v57.4c0,4.4,3.6,7.9,7.9,7.9h81.8c4.4,0,7.9-3.6,7.9-7.9v-57.4c0-4.4-3.6-7.9-7.9-7.9   H365.8z M439.7,443.1h-66v-41.6h66V443.1z"/></g><text x="0" y="527" fill="#000000" font-size="5px" font-weight="bold" font-family="'Helvetica Neue', Helvetica, Arial-Unicode, Arial, Sans-serif">Created by Creative Stall</text><text x="0" y="532" fill="#000000" font-size="5px" font-weight="bold" font-family="'Helvetica Neue', Helvetica, Arial-Unicode, Arial, Sans-serif">from the Noun Project</text></svg>