<svg xmlns:x="http://ns.adobe.com/Extensibility/1.0/" xmlns:i="http://ns.adobe.com/AdobeIllustrator/10.0/" xmlns:graph="http://ns.adobe.com/Graphs/1.0/" xmlns="http://www.w3.org/2000/svg" xmlns:xlink="http://www.w3.org/1999/xlink" version="1.1" x="0px" y="0px" viewBox="0 0 64 80" enable-background="new 0 0 64 64" xml:space="preserve"><metadata><sfw xmlns="http://ns.adobe.com/SaveForWeb/1.0/"><slices/><sliceSourceBounds y="-8160" x="-8165" width="16389" height="16384" bottomLeftOrigin="true"/></sfw></metadata><g><g><path d="M36,12H12c-1.104,0-2,0.896-2,2v4c0,1.104,0.896,2,2,2s2-0.896,2-2v-2h8v32h-2c-1.104,0-2,0.896-2,2s0.896,2,2,2h8    c1.104,0,2-0.896,2-2s-0.896-2-2-2h-2V16h8v2c0,1.104,0.896,2,2,2s2-0.896,2-2v-4C38,12.896,37.104,12,36,12z"/><path d="M50.586,44.586L50,45.172V18.828l0.586,0.586C50.977,19.805,51.488,20,52,20s1.023-0.195,1.414-0.586    c0.781-0.781,0.781-2.047,0-2.828l-4-4c-0.781-0.781-2.047-0.781-2.828,0l-4,4c-0.781,0.781-0.781,2.047,0,2.828    c0.781,0.781,2.047,0.781,2.828,0L46,18.828v26.344l-0.586-0.586c-0.781-0.781-2.047-0.781-2.828,0s-0.781,2.047,0,2.828l4,4    C46.977,51.805,47.488,52,48,52s1.023-0.195,1.414-0.586l4-4c0.781-0.781,0.781-2.047,0-2.828S51.367,43.805,50.586,44.586z"/></g></g><text x="0" y="79" fill="#000000" font-size="5px" font-weight="bold" font-family="'Helvetica Neue', Helvetica, Arial-Unicode, Arial, Sans-serif">Created by Ralf Schmitzer</text><text x="0" y="84" fill="#000000" font-size="5px" font-weight="bold" font-family="'Helvetica Neue', Helvetica, Arial-Unicode, Arial, Sans-serif">from the Noun Project</text></svg>