<svg xmlns="http://www.w3.org/2000/svg" xmlns:xlink="http://www.w3.org/1999/xlink" version="1.1" x="0px" y="0px" viewBox="0 0 24 30" enable-background="new 0 0 24 24" xml:space="preserve"><g><path d="M3.167,23.9h17.667c0.221,0,0.4-0.179,0.4-0.4v-23c0-0.221-0.18-0.4-0.4-0.4H10.386c-0.052,0-0.104,0.011-0.153,0.031   c-0.043,0.018-0.08,0.045-0.113,0.075c-0.005,0.005-0.012,0.006-0.017,0.011l-7.22,7.22C2.877,7.444,2.875,7.452,2.868,7.459   C2.84,7.492,2.814,7.526,2.797,7.567C2.777,7.616,2.766,7.668,2.766,7.72V23.5C2.766,23.721,2.946,23.9,3.167,23.9z M20.433,23.1   H3.567V7.901C5.631,6.01,8.852,7.548,8.885,7.563C9.037,7.637,9.217,7.61,9.339,7.492C9.46,7.375,9.496,7.195,9.427,7.041   C9.412,7.007,7.956,3.643,10.565,0.9h9.868V23.1z M8.449,3.003C8.056,4.41,8.228,5.716,8.427,6.525   C7.662,6.274,6.454,6.009,5.221,6.231L8.449,3.003z"/><polygon points="6.757,13.258 6.047,13.258 6.047,11.626 4.889,11.626 4.889,16.072 6.047,16.072 6.047,14.242 6.757,14.242    6.757,16.072 7.915,16.072 7.915,11.626 6.757,11.626  "/><polygon points="8.332,12.61 9.204,12.61 9.204,16.072 10.362,16.072 10.362,12.61 11.234,12.61 11.234,11.626 8.332,11.626  "/><polygon points="12.691,16.072 12.691,12.759 12.703,12.759 13.32,16.072 14.154,16.072 14.771,12.759 14.783,12.759    14.783,16.072 15.867,16.072 15.867,11.626 14.211,11.626 13.744,14.261 13.732,14.261 13.264,11.626 11.607,11.626 11.607,16.072     "/><polygon points="19.111,15.126 17.685,15.126 17.685,11.626 16.526,11.626 16.526,11.626 16.526,16.072 19.111,16.072  "/></g><text x="0" y="39" fill="#000000" font-size="5px" font-weight="bold" font-family="'Helvetica Neue', Helvetica, Arial-Unicode, Arial, Sans-serif">Created by Atif Arshad</text><text x="0" y="44" fill="#000000" font-size="5px" font-weight="bold" font-family="'Helvetica Neue', Helvetica, Arial-Unicode, Arial, Sans-serif">from the Noun Project</text></svg>