<svg xmlns="http://www.w3.org/2000/svg" xmlns:xlink="http://www.w3.org/1999/xlink" version="1.1" x="0px" y="0px" viewBox="0 0 32 40" enable-background="new 0 0 32 32" xml:space="preserve"><g display="none"><rect x="-2.5" y="-85.505" display="inline" fill="#000000" width="402" height="205.25"/></g><g><g><polygon points="21.426,0 3.811,0 3.811,13.075 4.811,13.075 4.811,1 21.012,1 27.189,7.187 27.189,31 4.811,31 4.811,28.282     3.811,28.282 3.811,32 28.189,32 28.189,6.773   "/><polygon points="1.804,21.348 3.423,21.348 3.423,25.12 4.766,25.12 4.766,16.22 3.423,16.22 3.423,19.999 1.804,19.999     1.804,16.22 0.461,16.22 0.461,25.12 1.804,25.12   "/><polygon points="7.272,25.12 8.615,25.12 8.615,17.57 10.035,17.57 10.035,16.22 5.845,16.22 5.845,17.57 7.272,17.57   "/><polygon points="11.115,16.214 11.115,25.12 12.457,25.12 12.457,19.538 13.757,25.12 14.837,25.12 16.001,19.523 16.001,25.12     17.344,25.12 17.344,16.214 15.493,16.214 14.292,22.611 13.041,16.214   "/><polygon points="18.544,25.12 22.201,25.12 22.201,23.785 19.886,23.785 19.886,16.22 18.544,16.22   "/></g></g><g display="none"><g display="inline"><polygon points="3.72,0 3.72,13.169 5.72,13.169 5.72,2 20.62,2 26.28,7.684 26.28,30 5.72,30 5.72,27.886 3.72,27.886 3.72,32     28.28,32 28.28,6.858 21.45,0   "/><polygon points="1.804,21.348 3.423,21.348 3.423,25.12 4.766,25.12 4.766,16.22 3.423,16.22 3.423,19.999 1.804,19.999     1.804,16.22 0.461,16.22 0.461,25.12 1.804,25.12   "/><polygon points="8.615,25.12 8.615,17.57 10.035,17.57 10.035,16.22 5.845,16.22 5.845,17.57 7.272,17.57 7.272,25.12   "/><polygon points="17.344,25.12 17.344,16.214 15.493,16.214 14.292,22.611 13.041,16.214 11.115,16.214 11.115,25.12 12.457,25.12     12.457,19.538 13.757,25.12 14.837,25.12 16.001,19.523 16.001,25.12   "/><polygon points="18.544,16.22 18.544,25.12 22.201,25.12 22.201,23.785 19.886,23.785 19.886,16.22   "/></g></g><g display="none"><g display="inline"><g><path d="M1.804,21.348v3.771H0.461V16.22h1.343v3.778h1.619V16.22h1.342v8.899H3.423v-3.771H1.804z"/><path d="M7.272,17.57H5.845v-1.35h4.19v1.35h-1.42v7.55H7.272V17.57z"/><path d="M12.457,25.12h-1.342v-8.906h1.926l1.251,6.397l1.201-6.397h1.851v8.906h-1.343v-5.597l-1.164,5.597h-1.08l-1.3-5.582     V25.12z"/><path d="M22.201,25.12h-3.657V16.22h1.342v7.564h2.315V25.12z"/></g></g><g display="inline"><polygon points="21.45,0 3.72,0 3.72,13.169 4.72,13.169 4.72,13.169 4.72,13.173 25.156,13.173 25.156,27.882 4.72,27.882     4.72,27.886 3.72,27.886 3.72,32 28.28,32 28.28,6.857   "/></g></g><g display="none"><g display="inline"><polygon points="21.322,0.25 4.061,0.25 4.061,13.075 4.561,13.075 4.561,0.75 21.115,0.75 27.439,7.084 27.439,31.25     4.561,31.25 4.561,28.282 4.061,28.282 4.061,31.75 27.939,31.75 27.939,6.877   "/><polygon points="1.804,21.348 3.423,21.348 3.423,25.12 4.766,25.12 4.766,16.22 3.423,16.22 3.423,19.999 1.804,19.999     1.804,16.22 0.461,16.22 0.461,25.12 1.804,25.12   "/><polygon points="8.615,17.57 10.035,17.57 10.035,16.22 5.845,16.22 5.845,17.57 7.272,17.57 7.272,25.12 8.615,25.12   "/><polygon points="11.115,16.214 11.115,25.12 12.457,25.12 12.457,19.538 13.757,25.12 14.837,25.12 16.001,19.523 16.001,25.12     17.344,25.12 17.344,16.214 15.493,16.214 14.292,22.611 13.041,16.214   "/><polygon points="18.544,25.12 22.201,25.12 22.201,23.785 19.886,23.785 19.886,16.22 18.544,16.22   "/></g></g><g display="none"><path display="inline" fill="#000000" stroke="#414752" stroke-miterlimit="10" d="M4.311,28.282l0,3.218h23.378V6.98L21.218,0.5   H4.311v12.575"/><g display="inline"><text transform="matrix(1 0 0 1 -1.702309e-04 25.1195)" fill="#000000" font-family="'Bebas'" font-size="10px">HTML</text></g></g><text x="0" y="47" fill="#000000" font-size="5px" font-weight="bold" font-family="'Helvetica Neue', Helvetica, Arial-Unicode, Arial, Sans-serif">Created by AlfredoCreates.com/Icons</text><text x="0" y="52" fill="#000000" font-size="5px" font-weight="bold" font-family="'Helvetica Neue', Helvetica, Arial-Unicode, Arial, Sans-serif">from the Noun Project</text></svg>