<svg xmlns="http://www.w3.org/2000/svg" data-name="Layer 1" viewBox="0 0 100 125" x="0px" y="0px"><title>data, server, database, globe, cloud</title><path d="M70.38,18.67l-.54,0-1.35.07-.64-.71a23.86,23.86,0,0,0-40.4,8L27,27.36H25.54l-.25,0h0A15.32,15.32,0,0,0,24.56,58a27,27,0,0,1,50.67-.57,19.67,19.67,0,0,0-4.85-38.72ZM48,24.67A14.68,14.68,0,0,0,33.33,39.33h-4A18.69,18.69,0,0,1,48,20.67ZM78.67,49A14.69,14.69,0,0,0,64,34.33v-4A18.7,18.7,0,0,1,82.67,49Z"/><path d="M60.8,55A59,59,0,0,1,62,65H72.91a22.88,22.88,0,0,0-3.3-10Z"/><path d="M50,44c-1.78,0-3.94,2.51-5.56,7H55.56C53.94,46.51,51.78,44,50,44Z"/><path d="M30.39,79H39.2A59,59,0,0,1,38,69H27.09A22.88,22.88,0,0,0,30.39,79Z"/><path d="M42,65H58a52,52,0,0,0-1.23-10H43.27A52,52,0,0,0,42,65Z"/><path d="M57.28,88.81A23,23,0,0,0,66.5,83H59.77A28.05,28.05,0,0,1,57.28,88.81Z"/><path d="M59.77,51H66.5a23,23,0,0,0-9.22-5.81A28.05,28.05,0,0,1,59.77,51Z"/><path d="M72.91,69H62A59,59,0,0,1,60.8,79h8.81A22.88,22.88,0,0,0,72.91,69Z"/><path d="M27.09,65H38A59,59,0,0,1,39.2,55H30.39A22.88,22.88,0,0,0,27.09,65Z"/><path d="M40.23,83H33.5a23,23,0,0,0,9.22,5.81A28.05,28.05,0,0,1,40.23,83Z"/><path d="M40.23,51a28.05,28.05,0,0,1,2.49-5.81A23,23,0,0,0,33.5,51Z"/><path d="M50,90c1.78,0,3.94-2.51,5.56-7H44.44C46.06,87.49,48.22,90,50,90Z"/><path d="M43.27,79H56.73A52,52,0,0,0,58,69H42A52,52,0,0,0,43.27,79Z"/><text x="0" y="115" fill="#000000" font-size="5px" font-weight="bold" font-family="'Helvetica Neue', Helvetica, Arial-Unicode, Arial, Sans-serif">Created by Bernar  Novalyi</text><text x="0" y="120" fill="#000000" font-size="5px" font-weight="bold" font-family="'Helvetica Neue', Helvetica, Arial-Unicode, Arial, Sans-serif">from the Noun Project</text></svg>