<svg xmlns="http://www.w3.org/2000/svg" viewBox="0 0 100 125" x="0px" y="0px"><path d="m35.380859 65.757812v10.609376c0 1.097583-.646591 1.863972-1.447265 1.652343-.666347-.176124-1.5904-1.933035-3.978516-1.791015-2.388115.142019-3.615235 2.394105-3.615234 4.15039 0 1.756284 1.227119 4.006418 3.615234 4.148438 2.388116.14202 3.31217-1.61294 3.978516-1.789063.800677-.211628 1.447265.537174 1.447265 1.634766v10.625h29.240235v-10.669922c0-.19297-.230678-.245883-.34961-.146484-.184992.154607-.266119.221988-.636718.490234-.7412.536488-1.889276 1.078243-3.369141.990234-1.537773-.09144-2.773526-.901157-3.542969-1.917968-.769445-1.016821-1.142578-2.22224-1.142578-3.365235 0-1.143003.373133-2.350375 1.142578-3.367187.769443-1.016812 2.005196-1.826519 3.542969-1.917969 1.479865-.088 2.627941.453744 3.369141.990234.370599.268245.451726.333673.636718.488282.118932.0994.34961.048485.34961-.144532v-10.669922h-10.91211c-1.01844 0-1.713948.598831-1.517578 1.341797.16343.618314 1.791946 1.475417 1.660156 3.691407-.13177 2.21599-2.219969 3.355468-3.849609 3.355468-1.62965 0-3.719782-1.139478-3.851562-3.355468-.13178-2.21599 1.498689-3.073093 1.662109-3.691407.19637-.742966-.516716-1.341796-1.535156-1.341797z"/><path d="m19.621094 26.339844c-1.756283 0-4.006413 1.227116-4.148438 3.615234-.142024 2.388116 1.614894 3.312169 1.791016 3.978516.211627.800677-.539131 1.447265-1.636719 1.447265h-10.6249999v29.240235h10.6699219c.192959 0 .245885-.230677.146484-.34961-.154613-.184994-.22199-.266116-.490234-.636718-.536489-.741198-1.078248-1.889274-.990234-3.369141.09147-1.537773.901161-2.773524 1.917968-3.542969 1.016819-.769446 2.224195-1.140625 3.367188-1.140625 1.143004 0 2.348426.371179 3.365234 1.140625 1.016819.769445 1.826521 2.005196 1.917969 3.542969.088 1.479867-.45374 2.627943-.990234 3.369141-.268244.370602-.333652.451739-.488282.636718-.09943.118948-.048436.34961.144532.34961h10.669922v-10.91211c0-1.01844-.598831-1.713948-1.341797-1.517578-.618314.16343-1.475417 1.7939-3.691407 1.66211-2.21599-.13177-3.355468-2.221923-3.355468-3.851563 0-1.62965 1.139478-3.719782 3.355468-3.851562 2.21599-.13178 3.073093 1.498689 3.691407 1.662109.742966.19637 1.341796-.514763 1.341797-1.533203v-10.898438h-10.609376c-1.097576 0-1.863971-.646592-1.652343-1.447265.176121-.666348 1.933039-1.5904 1.791015-3.978516-.142013-2.388118-2.394108-3.615235-4.15039-3.615234z"/><path d="m19.622395 56.716559c-1.75627 0-4.007665 1.228998-4.149689 3.617114-.142013 2.388118 1.614398 3.311374 1.79052 3.977718.211627.800677-.537593 1.446567-1.635181 1.446567h-10.6252623v29.242042h29.2420113v-10.671042c0-.192969-.230566-.245032-.349503-.145629-.184989.154604-.267384.221343-.637986.489587-.741204.536493-1.888992 1.078276-3.368857.99027-1.537766-.09144-2.772769-.901312-3.542216-1.918127-.769439-1.016814-1.142827-2.223081-1.142827-3.366079 0-1.143002.373388-2.349265 1.142827-3.366081.769447-1.016815 2.00445-1.826679 3.542216-1.918126 1.479865-.088 2.627653.453778 3.368857.990271.370602.268243.452996.334982.637986.489585.118936.0994.349503.04734.349503-.145626v-10.671045h-10.610013c-1.097577 0-1.864849-.645894-1.653216-1.446567.176128-.666349 1.933942-1.5896 1.791906-3.977718-.142013-2.388116-2.394793-3.617114-4.151076-3.617114z"/><path d="m5 5.0025867v29.2420413h10.671042c.192958 0 .245019-.230567.145617-.349506-.1546-.184986-.221338-.267388-.489582-.637988-.536489-.7412-1.078274-1.888988-.99026-3.368855.09146-1.537773.9013-2.772769 1.918126-3.542219 1.016812-.769439 2.223074-1.142832 3.366067-1.142832 1.143004 0 2.349271.373386 3.366079 1.142832 1.016819.769443 1.826679 2.004446 1.918126 3.542219.08801 1.479867-.453771 2.627655-.990272 3.368855-.268245.3706-.334964.453015-.489582.637988-.09943.118952-.04732.349506.145629.349506h10.671034v-10.610018c0-1.097578.645894-1.864848 1.446569-1.653219.666347.176127 1.589598 1.933933 3.977713 1.791913 2.388115-.142021 3.617113-2.394801 3.617113-4.151082 0-1.756283-1.228998-4.007675-3.617113-4.149697-2.388115-.142013-3.311367 1.614401-3.977713 1.790526-.800676.21163-1.446569-.537603-1.446569-1.63519v-10.6252743z" overflow="visible"/><path d="m65.757812 65.754747v10.611023c0 1.09758-.64659 1.863925-1.447265 1.652296-.666348-.176125-1.588447-1.93494-3.976563-1.792917-2.388115.142021-3.617187 2.395942-3.617187 4.152224 0 1.756281 1.229072 4.008249 3.617187 4.150272 2.388116.142014 3.310216-1.614844 3.976563-1.790965.800676-.211631 1.447265.537132 1.447265 1.634719v10.626648h29.242188l-.002-29.2433h-10.669922c-.19297 0-.245886.228712-.146484.347646.154608.184986.221994.268054.490234.638653.53649.741199 1.078212 1.889186.990234 3.369044-.09142 1.537775-.901158 2.771477-1.917968 3.540915-1.01682.769448-2.222235 1.144498-3.365235 1.144498-1.143 0-2.350377-.37505-3.367187-1.144498-1.01681-.769438-1.826519-2.003139-1.917969-3.540915-.088-1.479857.453738-2.627842.990234-3.369044.268244-.370596.335627-.453666.490235-.638653.0994-.118934.0484-.347646-.144531-.347646z" overflow="visible"/><path d="m35.376953 5.0019531v10.6699219c0 .192969.230677.245883.349609.146484.184993-.154608.268073-.221988.638672-.490234.7412-.536489 1.889271-1.078242 3.369141-.990234 1.53777.09144 2.773529.901157 3.542969 1.917968.76945 1.016821 1.140625 2.222239 1.140625 3.365235 0 1.143003-.371175 2.350375-1.140625 3.367187-.76944 1.016812-2.005199 1.826519-3.542969 1.917969-1.47987.088-2.627941-.453744-3.369141-.990234-.370599-.268245-.453679-.333673-.638672-.488282-.118932-.0994-.349609-.048485-.349609.144532v10.669922h10.898438c1.01844 0 1.731526-.598831 1.535156-1.341797-.16342-.618314-1.793889-1.475417-1.662109-3.691407.131779-2.21599 2.221912-3.355468 3.851562-3.355468 1.62964 0 3.717839 1.139478 3.849609 3.355468.13179 2.21599-1.496726 3.073093-1.660156 3.691407-.19637.742966.499138 1.341797 1.517578 1.341797h10.91211v-10.609376c0-1.097584.644632-1.863972 1.445312-1.652343.66634.176124 1.592359 1.933035 3.980469 1.791015 2.38812-.14202 3.615234-2.394105 3.615234-4.15039 0-1.756284-1.227114-4.006418-3.615234-4.148438-2.38811-.14202-3.314129 1.61294-3.980469 1.789063-.80068.211629-1.445312-.537173-1.445312-1.634766v-10.6249999z"/><path d="m65.755859 35.378906v10.896485c0 1.01844.600784 1.731526 1.34375 1.535156.618314-.16342 1.475417-1.793889 3.691407-1.662109 2.21599.131779 3.355468 2.221912 3.355468 3.851562 0 1.62964-1.139478 3.717839-3.355468 3.849609-2.21599.13179-3.073093-1.496726-3.691407-1.660156-.742966-.19637-1.34375.499138-1.34375 1.517578v10.91211h10.609375c1.09758 0 1.865927.646592 1.654297 1.447265-.17612.666347-1.934989 1.5904-1.792969 3.978516.142021 2.388118 2.396064 3.615235 4.152344 3.615234 1.75629 0 4.006408-1.227116 4.148438-3.615234.14202-2.388116-1.614896-3.31217-1.791016-3.978516-.21162-.800677.539129-1.447265 1.636719-1.447265h10.625v-29.240235h-10.671875c-.19296 0-.243931.230678-.144531.34961.15461.184994.221994.266117.490234.636718.53649.741199 1.078267 1.889276.990234 3.369141-.09148 1.537775-.901168 2.773524-1.917968 3.542969-1.01682.769446-2.224198 1.140625-3.367188 1.140625-1.143 0-2.348424-.371179-3.365234-1.140625-1.01682-.769445-1.826519-2.005195-1.917969-3.542969-.088-1.479866.453739-2.627938.990234-3.369141.268245-.370597.333672-.451724.488282-.636718.0994-.118932.046535-.34961-.146485-.34961z"/><path d="m80.376963 43.28344c1.75627 0 4.00767-1.228997 4.14969-3.617114.14202-2.388117-1.614402-3.311372-1.79052-3.977717-.211622-.800676.5376-1.446568 1.63519-1.446568h10.62526v-29.242041h-29.24201v10.671042c0 .192969.23056.245032.3495.145629.18499-.154605.26738-.221343.63798-.489587.74121-.536494 1.889-1.078276 3.36886-.990271 1.53777.09144 2.77277.901313 3.54222 1.918127.76944 1.016815 1.14282 2.223081 1.14282 3.36608 0 1.143002-.37338 2.349265-1.14282 3.366081-.76945 1.016815-2.00445 1.826678-3.54222 1.918126-1.47986.088-2.62765-.453778-3.36886-.990271-.3706-.268243-.452988-.334983-.63798-.489585-.118938-.0994-.3495-.04734-.3495.145626v10.671044h10.61001c1.09758 0 1.864852.645897 1.65322 1.446568-.176128.666351-1.933935 1.589599-1.79191 3.977717.142025 2.388116 2.39479 3.617114 4.15107 3.617114z"/><text x="0" y="115" fill="#000000" font-size="5px" font-weight="bold" font-family="'Helvetica Neue', Helvetica, Arial-Unicode, Arial, Sans-serif">Created by Magicon</text><text x="0" y="120" fill="#000000" font-size="5px" font-weight="bold" font-family="'Helvetica Neue', Helvetica, Arial-Unicode, Arial, Sans-serif">from the Noun Project</text></svg>