<svg xmlns="http://www.w3.org/2000/svg" xmlns:xlink="http://www.w3.org/1999/xlink" version="1.1" preserveAspectRatio="none" x="0px" y="0px" viewBox="0 0 100 125"><defs><g id="a"><path fill="#000000" stroke="none" d=" M 36.6 10.05 L 34.85 10 Q 23.8 10 23.8 23.05 L 23.8 39.6 Q 23.8 44.95 20.1 45.7 L 19 46.25 19 53.5 19.45 53.6 Q 19.65 53.65 19.75 53.7 20 53.75 20.1 53.8 22.15 54.3 23 55.7 23.8 57.15 23.8 60.3 L 23.8 75.8 Q 23.8 83.15 26.55 86.6 29.35 90 35.3 89.95 L 38 89.95 38 82.9 35.9 82.9 Q 33.05 82.9 32.2 81.95 31.4 81 31.4 77.45 L 31.35 60.05 Q 31.35 56.45 30.55 54.4 29.8 52.4 27.6 50.15 L 29.35 48.35 30.5 46.2 31.2 43.55 31.35 24.45 Q 31.35 19.8 32.1 18.65 32.85 17.4 35.8 17.4 L 38 17.4 38 10.45 Q 37.55 10.05 36.6 10.05 M 81 53.8 L 81 46.55 80.6 46.45 Q 80.4 46.4 80.3 46.35 80.05 46.3 79.95 46.25 77.8 45.75 77 44.35 76.2 42.95 76.2 39.75 L 76.2 24.2 Q 76.2 16.85 73.45 13.45 70.7 10 64.75 10.1 L 62 10.1 62 17.1 64.15 17.1 Q 67 17.1 67.8 18.15 68.6 19.05 68.6 22.55 L 68.7 40 Q 68.7 43.35 69.45 45.65 70.3 47.65 72.45 49.95 70.3 51.75 69.5 53.9 68.7 55.9 68.7 59.8 L 68.7 75.6 Q 68.7 80.25 67.9 81.4 67.1 82.6 64.2 82.6 L 62 82.6 62 89.6 Q 62.5 89.95 63.35 89.95 L 65.1 90 Q 76.2 90 76.2 76.95 L 76.2 60.45 Q 76.2 55.1 79.95 54.4 L 81 53.8 Z"/></g></defs><g transform="matrix( 1, 0, 0, 1, 0,0) "><use xlink:href="#a"/></g><text x="0" y="115" fill="#000000" font-size="5px" font-weight="bold" font-family="'Helvetica Neue', Helvetica, Arial-Unicode, Arial, Sans-serif">Created by Kris Prepiakova</text><text x="0" y="120" fill="#000000" font-size="5px" font-weight="bold" font-family="'Helvetica Neue', Helvetica, Arial-Unicode, Arial, Sans-serif">from the Noun Project</text></svg>