<svg xmlns="http://www.w3.org/2000/svg" data-name="Your Icon" viewBox="0 0 100 125" x="0px" y="0px"><title>Gears</title><path d="M68.9,41.29a1.33,1.33,0,0,0-1.41-1l-5.32.48A16,16,0,0,0,59.32,38l.4-5.32a1.32,1.32,0,0,0-1-1.39L52,29.41a1.33,1.33,0,0,0-1.55.7l-2.38,4.83a15.26,15.26,0,0,0-3.91,1l-4.46-3a1.35,1.35,0,0,0-1.7.16L33.1,38.06a1.33,1.33,0,0,0-.16,1.69l3,4.47a15,15,0,0,0-1,4l-4.74,2.33a1.34,1.34,0,0,0-.71,1.55l1.8,6.6a1.35,1.35,0,0,0,1.39,1l5.25-.39a12.16,12.16,0,0,0,1.31,1.61,15,15,0,0,0,1.53,1.34l-.35,5.17a1.33,1.33,0,0,0,1,1.38L48,70.61a1.49,1.49,0,0,0,.36,0,1.35,1.35,0,0,0,1.19-.72L52,65.22a14.8,14.8,0,0,0,3.94-1l4.46,3A1.33,1.33,0,0,0,62.07,67L67,62.11a1.34,1.34,0,0,0,.17-1.7l-3-4.46a14.9,14.9,0,0,0,1-3.94l4.9-2.46A1.33,1.33,0,0,0,70.78,48ZM43.41,50a6.74,6.74,0,1,1,6.74,6.74A6.74,6.74,0,0,1,43.41,50Z"/><path d="M29.63,70.41A28.87,28.87,0,0,1,23,39.8l.36,1.57a2,2,0,0,0,1.95,1.55,2,2,0,0,0,.45-.05,2,2,0,0,0,1.5-2.4l-1.57-6.85a2,2,0,0,0-2.4-1.5l-6.85,1.57a2,2,0,0,0,.89,3.9L19.88,37A32.86,32.86,0,0,0,66.62,78.38l-2-3.45A28.87,28.87,0,0,1,29.63,70.41Z"/><path d="M82.63,62.4l-2.37.54A32.88,32.88,0,0,0,33.2,21.77l2.05,3.43A28.87,28.87,0,0,1,77,60.33l-.39-1.72a2,2,0,0,0-3.9.89l1.57,6.85a2,2,0,0,0,1.95,1.55,2,2,0,0,0,.45-.05l6.85-1.57a2,2,0,1,0-.89-3.9Z"/><text x="0" y="115" fill="#000000" font-size="5px" font-weight="bold" font-family="'Helvetica Neue', Helvetica, Arial-Unicode, Arial, Sans-serif">Created by Jonathan Collie</text><text x="0" y="120" fill="#000000" font-size="5px" font-weight="bold" font-family="'Helvetica Neue', Helvetica, Arial-Unicode, Arial, Sans-serif">from the Noun Project</text></svg>