<svg xmlns="http://www.w3.org/2000/svg" xmlns:xlink="http://www.w3.org/1999/xlink" version="1.1" x="0px" y="0px" viewBox="0 0 64 80" enable-background="new 0 0 64 64" xml:space="preserve"><g><g><line fill="none" stroke="#000000" stroke-width="2" stroke-miterlimit="10" x1="40" y1="51" x2="38" y2="51"/><path fill="none" stroke="#000000" stroke-width="2" stroke-miterlimit="10" d="M36,51H15c-1.1,0-2-0.9-2-2V15c0-1.1,0.9-2,2-2h34    c1.1,0,2,0.9,2,2v34c0,1.1-0.9,2-2,2h-7"/><line fill="none" stroke="#000000" stroke-width="2" stroke-miterlimit="10" x1="25" y1="17" x2="27" y2="17"/><path fill="none" stroke="#000000" stroke-width="2" stroke-miterlimit="10" d="M29,17h16c1.1,0,2,0.9,2,2v26c0,1.1-0.9,2-2,2H19    c-1.1,0-2-0.9-2-2V19c0-1.1,0.9-2,2-2h4"/><line fill="none" stroke="#000000" stroke-width="2" stroke-miterlimit="10" x1="17" y1="10" x2="17" y2="2"/><line fill="none" stroke="#000000" stroke-width="2" stroke-miterlimit="10" x1="27" y1="10" x2="27" y2="2"/><line fill="none" stroke="#000000" stroke-width="2" stroke-miterlimit="10" x1="37" y1="10" x2="37" y2="2"/><line fill="none" stroke="#000000" stroke-width="2" stroke-miterlimit="10" x1="47" y1="10" x2="47" y2="2"/><line fill="none" stroke="#000000" stroke-width="2" stroke-miterlimit="10" x1="17" y1="62" x2="17" y2="54"/><line fill="none" stroke="#000000" stroke-width="2" stroke-miterlimit="10" x1="27" y1="62" x2="27" y2="54"/><line fill="none" stroke="#000000" stroke-width="2" stroke-miterlimit="10" x1="37" y1="62" x2="37" y2="54"/><line fill="none" stroke="#000000" stroke-width="2" stroke-miterlimit="10" x1="47" y1="62" x2="47" y2="54"/><line fill="none" stroke="#000000" stroke-width="2" stroke-miterlimit="10" x1="54" y1="17" x2="62" y2="17"/><line fill="none" stroke="#000000" stroke-width="2" stroke-miterlimit="10" x1="54" y1="27" x2="62" y2="27"/><line fill="none" stroke="#000000" stroke-width="2" stroke-miterlimit="10" x1="54" y1="37" x2="62" y2="37"/><line fill="none" stroke="#000000" stroke-width="2" stroke-miterlimit="10" x1="54" y1="47" x2="62" y2="47"/><line fill="none" stroke="#000000" stroke-width="2" stroke-miterlimit="10" x1="2" y1="17" x2="10" y2="17"/><line fill="none" stroke="#000000" stroke-width="2" stroke-miterlimit="10" x1="2" y1="27" x2="10" y2="27"/><line fill="none" stroke="#000000" stroke-width="2" stroke-miterlimit="10" x1="2" y1="37" x2="10" y2="37"/><line fill="none" stroke="#000000" stroke-width="2" stroke-miterlimit="10" x1="2" y1="47" x2="10" y2="47"/><line fill="none" stroke="#000000" stroke-width="2" stroke-linejoin="round" stroke-miterlimit="10" x1="17" y1="23" x2="33" y2="23"/><circle fill="none" stroke="#000000" stroke-width="2" stroke-miterlimit="10" cx="35" cy="31" r="2"/><circle fill="none" stroke="#000000" stroke-width="2" stroke-miterlimit="10" cx="23" cy="34" r="2"/><polyline fill="none" stroke="#000000" stroke-width="2" stroke-linejoin="round" stroke-miterlimit="10" points="42,18 42,31     36,31   "/><polyline fill="none" stroke="#000000" stroke-width="2" stroke-linejoin="round" stroke-miterlimit="10" points="17,28 29,28     29,38 39,38   "/><polyline fill="none" stroke="#000000" stroke-width="2" stroke-linejoin="round" stroke-miterlimit="10" points="34,47 34,42     23,42 23,36   "/><rect x="39" y="36" fill="none" stroke="#000000" stroke-width="2" stroke-linejoin="round" stroke-miterlimit="10" width="4" height="4"/><rect x="33" y="21" fill="none" stroke="#000000" stroke-width="2" stroke-linejoin="round" stroke-miterlimit="10" width="4" height="4"/></g></g><text x="0" y="79" fill="#000000" font-size="5px" font-weight="bold" font-family="'Helvetica Neue', Helvetica, Arial-Unicode, Arial, Sans-serif">Created by Petai Jantrapoon</text><text x="0" y="84" fill="#000000" font-size="5px" font-weight="bold" font-family="'Helvetica Neue', Helvetica, Arial-Unicode, Arial, Sans-serif">from the Noun Project</text></svg>