<svg xmlns:dc="http://purl.org/dc/elements/1.1/" xmlns:cc="http://creativecommons.org/ns#" xmlns:rdf="http://www.w3.org/1999/02/22-rdf-syntax-ns#" xmlns:svg="http://www.w3.org/2000/svg" xmlns="http://www.w3.org/2000/svg" xmlns:sodipodi="http://sodipodi.sourceforge.net/DTD/sodipodi-0.dtd" xmlns:inkscape="http://www.inkscape.org/namespaces/inkscape" fill="#000000" version="1.1" x="0px" y="0px" viewBox="0 0 100 125"><path style="font-size:medium;font-style:normal;font-variant:normal;font-weight:normal;font-stretch:normal;text-indent:0;text-align:start;text-decoration:none;line-height:normal;letter-spacing:normal;word-spacing:normal;text-transform:none;direction:ltr;block-progression:tb;writing-mode:lr-tb;text-anchor:start;baseline-shift:baseline;opacity:1;color:#000000;fill:#000000;fill-opacity:1;stroke:none;stroke-width:4;marker:none;visibility:visible;display:inline;overflow:visible;enable-background:accumulate;font-family:Sans;-inkscape-font-specification:Sans" d="M 12 17 C 8.7105945 17 6 19.710594 6 23 L 6 69 A 2.0002 2.0002 0 1 0 10 69 L 10 35 L 90 35 L 90 77 C 90 78.142594 89.142594 79 88 79 L 12 79 C 10.857406 79 10 78.142594 10 77 A 2.0002 2.0002 0 1 0 6 77 C 6 80.289406 8.7105945 83 12 83 L 88 83 C 91.289406 83 94 80.289406 94 77 L 94 23 C 94 19.710594 91.289406 17 88 17 L 12 17 z M 12 21 L 30.46875 21 A 2.0002 2.0002 0 0 0 30.6875 21.0625 C 31.915596 21.248496 32.930322 21.874831 34 22.96875 C 35.069678 24.062669 36.126014 25.587589 37.28125 27.21875 C 38.163077 28.463866 39.127529 29.790528 40.28125 31 L 10 31 L 10 23 C 10 21.857406 10.857406 21 12 21 z M 37.5 21 L 88 21 C 89.142594 21 90 21.857406 90 23 L 90 31 L 48.46875 31 A 2.0002 2.0002 0 0 0 48.09375 30.96875 C 44.750132 30.607316 42.779746 28.081066 40.53125 24.90625 C 39.606845 23.601015 38.596364 22.261493 37.5 21 z M 15 24 C 13.895431 24 13 24.895431 13 26 C 13 27.104569 13.895431 28 15 28 C 16.104569 28 17 27.104569 17 26 C 17 24.895431 16.104569 24 15 24 z M 22 24 C 20.895431 24 20 24.895431 20 26 C 20 27.104569 20.895431 28 22 28 C 23.104569 28 24 27.104569 24 26 C 24 24.895431 23.104569 24 22 24 z M 29 24 C 27.895431 24 27 24.895431 27 26 C 27 27.104569 27.895431 28 29 28 C 30.104569 28 31 27.104569 31 26 C 31 24.895431 30.104569 24 29 24 z "/><text x="0" y="115" fill="#000000" font-size="5px" font-weight="bold" font-family="'Helvetica Neue', Helvetica, Arial-Unicode, Arial, Sans-serif">Created by hans draiman</text><text x="0" y="120" fill="#000000" font-size="5px" font-weight="bold" font-family="'Helvetica Neue', Helvetica, Arial-Unicode, Arial, Sans-serif">from the Noun Project</text></svg>