<svg xmlns="http://www.w3.org/2000/svg" xmlns:xlink="http://www.w3.org/1999/xlink" version="1.1" x="0px" y="0px" viewBox="0 0 100 125" enable-background="new 0 0 100 100" xml:space="preserve"><g><path d="M95.058,33.681c-0.239-0.301-0.493-0.621-0.898-1.132c0.486-1.135,0.58-2.208,0.166-3.307   c-0.115-0.306-0.17-0.676-0.121-0.995c0.267-1.723-0.284-3.335-0.623-4.975c-0.902-4.366-5.518-6.377-8.993-5.549   c-0.988,0.235-2.013,0.517-3.009,0.475c-2.813-0.119-5.609,0.047-8.415,0.157c-2.893,0.114-5.794,0.03-8.692,0.022   c-0.509-0.001-1.018-0.054-1.528-0.083c-2.795-0.161-5.61-0.599-8.379-0.4c-2.535,0.182-5.07-0.203-7.596,0.241   c-1.066,0.187-2.189,0.129-3.292-0.198c-0.716-0.212-1.521-0.149-2.287-0.162c-4.425-0.073-8.855-0.033-13.274-0.223   c-4.36-0.188-8.649,0.522-12.975,0.735c-1.042,0.051-1.994,0.458-2.826,1.073c-2.638,1.951-4.417,4.446-4.846,7.784   c-0.14,1.09-0.191,2.227-0.557,3.244c-0.464,1.285-0.109,2.459,0.076,3.682c-0.625,0.742-0.896,1.607-0.898,2.567   c-0.002,0.935,0.024,1.872-0.019,2.805c-0.12,2.628-0.295,5.254-0.395,7.883c-0.048,1.259,0.184,2.545,0.008,3.778   c-0.278,1.954-0.265,3.899-0.281,5.857c-0.015,1.852-0.222,3.703-0.219,5.554c0.003,1.747-0.146,3.496-0.125,5.225   c0.051,4.136,0.045,8.272,0.027,12.583c0.592,0.226,1.2,0.491,1.829,0.69c0.56,0.176,1.222,0.149,1.697,0.443   c0.791,0.489,1.642,0.467,2.47,0.497c1.612,0.06,3.246-0.159,4.84,0.017c1.673,0.184,3.351,0.14,5.006,0.154   c3.641,0.03,7.286,0.378,10.931,0.053c0.583-0.052,1.182,0.086,1.773,0.13c0.846,0.063,1.693,0.18,2.539,0.172   c6.128-0.056,12.255-0.126,18.383-0.22c1.018-0.016,2.06-0.054,3.045-0.281c2.774-0.64,5.588-0.529,8.364-0.333   c1.608,0.114,3.221,0.259,4.83,0.273c2.465,0.021,4.93-0.087,7.396-0.138c3.833-0.079,7.666-0.218,11.498-0.206   c1.533,0.005,2.825-0.494,4.076-1.24c0.351-0.209,0.707-0.501,0.575-1.111c-0.629-0.211-1.301-0.436-1.883-0.631   c-0.028-1.614-0.1-3.06-0.064-4.504c0.037-1.497,0.179-2.991,0.272-4.486c0.032-0.51,0.102-1.022,0.079-1.529   c-0.146-3.142-0.455-6.283-0.432-9.423c0.021-2.94,0.279-5.88,0.383-8.825c0.13-3.646,0.759-7.264,0.522-10.941   c-0.111-1.732,0.389-3.377,1.658-4.691C94.98,34.084,94.989,33.883,95.058,33.681z M91.075,39.002   c-0.343,1.838-0.427,3.685-0.414,5.551c0.008,1.183-0.175,2.366-0.266,3.55c-0.079,1.018-0.186,2.036-0.217,3.056   c-0.08,2.705-0.061,5.415-0.211,8.116c-0.075,1.354-0.103,2.685,0.006,4.039c0.1,1.251,0.047,2.527-0.068,3.78   c-0.183,2.002,0.245,4.077-0.665,5.998c0.449,1.246,0.027,2.51,0.068,3.765c0.016,0.5-0.096,1.005-0.151,1.52   c-1.793,0.542-3.563,0.688-5.345,0.656c-3.312-0.059-6.616,0.173-9.925,0.202c-1.62,0.014-3.265,0.22-4.855,0.01   c-1.873-0.247-3.735-0.197-5.601-0.248c-1.953-0.053-3.884,0.082-5.837,0.36c-2.434,0.347-4.927,0.338-7.396,0.373   c-3.918,0.056-7.838,0.025-11.757,0.024c-1.265,0-2.53-0.017-3.795-0.035c-1.94-0.027-3.882-0.02-5.82-0.103   c-1.863-0.08-3.727-0.06-5.586-0.119c-4.476-0.142-8.946-0.458-13.418-0.712c-0.251-0.014-0.498-0.103-0.691-0.145   c-1.267-0.739-1.495-1.828-1.242-3.108c0.114-0.575,0.382-1.186,0.281-1.724c-0.255-1.361-0.378-2.616,0.289-3.949   c0.292-0.584,0.051-1.472-0.052-2.207c-0.187-1.321,0.078-2.632-0.199-3.987c-0.435-2.128-0.342-4.343-0.176-6.519   c0.284-3.727,0.299-7.453,0.188-11.185c-0.03-1.017,0.077-2.042,0.17-3.059c0.092-1.002,0.353-1.961,0.116-3.018   c-0.149-0.666-0.095-1.535,0.704-2.275c1.155-0.188,2.456-0.487,3.84-0.269c3.035,0.478,6.102,0.375,9.16,0.386   c1.599,0.006,3.195-0.072,4.783,0.227c0.494,0.093,1.029,0.07,1.531-0.003c4.728-0.684,9.497-0.418,14.245-0.607   c1.674-0.067,3.355,0.059,5.031,0.01c1.613-0.046,3.239-0.1,4.83-0.341c1.691-0.256,3.352-0.59,5.049-0.119   c1.574-0.533,3.278,0.019,4.801-0.416c2.676-0.763,5.422,0.32,8.063-0.536c0.369-0.12,0.847-0.014,1.248,0.091   c2.527,0.662,5.066,0.163,7.603,0.132c3.834-0.047,7.669-0.023,11.503-0.022c0.065,0,0.13,0.101,0.445,0.362   C91.258,37.333,91.229,38.179,91.075,39.002z M90.053,33.363c-1.277,0.073-2.555,0.149-3.833,0.179   c-2.892,0.067-5.79,0.023-8.677,0.18c-2.635,0.142-5.265,0.048-7.896,0.086c-3.489,0.051-7.011-0.127-10.457,0.292   c-3.146,0.383-6.272,0.335-9.409,0.459c-0.93,0.037-1.854,0.219-2.783,0.309c-0.409,0.039-0.825,0.026-1.236,0.012   c-0.253-0.009-0.521-0.138-0.755-0.088c-1.849,0.392-3.684,0.284-5.559,0.124c-1.737-0.148-3.507,0.129-5.264,0.182   c-3.165,0.095-6.324,0.166-9.498,0.042c-3.47-0.135-6.929-0.646-10.419-0.376c-0.924,0.071-1.87-0.084-2.801-0.183   c-0.693-0.074-1.324-0.329-1.949-1.124c-0.111-4.043,0.503-8.043,3.585-11.333c1.486-0.837,3.045-1.275,4.821-1.365   c2.264-0.114,4.562-0.273,6.776-0.923c0.396-0.116,0.868-0.143,1.266-0.049c2.353,0.557,4.744,0.221,7.109,0.365   c4.573,0.279,9.159-0.132,13.715,0.273c4.412,0.392,8.817,0.185,13.225,0.239c0.505,0.006,1.009,0.122,1.515,0.166   c3.217,0.28,6.432,0.618,9.668,0.511c1.088-0.036,2.17-0.215,3.258-0.262c2.536-0.11,5.073-0.164,7.609-0.275   c0.931-0.041,1.875-0.1,2.784-0.288c1.929-0.398,1.951-0.433,4.257,0.295c1.743,1.619,2.375,3.535,2.639,5.606   c0.051,0.403-0.064,0.827-0.094,1.242c-0.102,1.441-0.374,2.895,0.358,4.051C91.679,32.904,90.989,33.31,90.053,33.363z"/><path d="M15.274,27.495c-0.092,2.926,1.077,5.028,3.14,5.684c2.385,0.758,4.613-0.117,6.259-3.049   c0.556-2.889,0.556-2.889-0.623-5.2C20.721,22.341,17,23.096,15.274,27.495z M20.523,30.951c-1.578,0.085-2.057-1.005-2.597-2.188   c0.373-1.25,0.74-2.633,2.414-2.732c1.238-0.073,1.988,0.738,2.385,2.106C22.029,29.025,21.273,29.992,20.523,30.951z"/><path d="M44.565,23.747c-0.079-0.031-0.161-0.052-0.421-0.134c-1.277,0.373-2.668,0.165-3.635,1.208   c-0.903,0.975-1.393,2.112-1.374,3.467c0.011,0.807,0.243,1.544,0.774,2.108c0.959,1.018,2.121,1.69,3.881,1.625   c0.842-0.335,1.968-0.72,3.035-1.229c0.83-0.396,1.203-1.148,1.19-2.092C47.978,25.872,47.236,24.795,44.565,23.747z M42.942,29.43   c-0.386-0.294-0.773-0.589-1.19-0.908c0.306-1.057,0.572-2.009,1.779-2.329c0.51,0.161,1.062,0.335,1.699,0.536   c0.159,0.425,0.329,0.878,0.497,1.327C44.923,28.89,43.942,29.098,42.942,29.43z"/><path d="M33.888,24.316c-2.056-0.048-3.132,0.233-4.405,1.45c-1.323,1.265-2.116,3.231-0.959,5.017   c0.499,0.771,0.898,1.63,1.715,2.121c2.521,0.426,4.45-0.737,6.358-2.189c0.208-0.587,0.431-1.215,0.615-1.733   C36.184,25.468,36.03,25.804,33.888,24.316z M34.497,29.428c-0.92,0.39-1.912,0.809-3.051,1.291   c-0.348-0.556-0.683-1.093-0.998-1.596c0.493-1.541,1.279-2.485,3.152-2.274C34.042,27.685,35.074,28.206,34.497,29.428z"/></g><text x="0" y="115" fill="#000000" font-size="5px" font-weight="bold" font-family="'Helvetica Neue', Helvetica, Arial-Unicode, Arial, Sans-serif">Created by Christopher T. Howlett</text><text x="0" y="120" fill="#000000" font-size="5px" font-weight="bold" font-family="'Helvetica Neue', Helvetica, Arial-Unicode, Arial, Sans-serif">from the Noun Project</text></svg>