<svg xmlns="http://www.w3.org/2000/svg" xmlns:xlink="http://www.w3.org/1999/xlink" version="1.1" x="0px" y="0px" viewBox="0 0 512 640" enable-background="new 0 0 512 512" xml:space="preserve"><g><path d="M144.2,2H12.2C6.5,2,2,6.5,2,12.2v487.7c0,5.6,4.5,10.2,10.2,10.2h132.1c5.6,0,10.2-4.6,10.2-10.2V12.2   C154.4,6.5,149.9,2,144.2,2z"/><path d="M322,205.2H215.4c-5.6,0-10.2,4.5-10.2,10.2v284.5c0,5.6,4.5,10.2,10.2,10.2H322c5.6,0,10.2-4.6,10.2-10.2V215.4   C332.2,209.7,327.7,205.2,322,205.2z"/><path d="M499.8,205.2H393.2c-5.6,0-10.2,4.5-10.2,10.2v284.5c0,5.6,4.5,10.2,10.2,10.2h106.7c5.6,0,10.2-4.6,10.2-10.2V215.4   C510,209.7,505.5,205.2,499.8,205.2z"/><path d="M499.8,2H215.4c-5.6,0-10.2,4.5-10.2,10.2v132.1c0,5.6,4.5,10.2,10.2,10.2h284.5c5.6,0,10.2-4.6,10.2-10.2V12.2   C510,6.5,505.5,2,499.8,2z"/></g><text x="0" y="527" fill="#000000" font-size="5px" font-weight="bold" font-family="'Helvetica Neue', Helvetica, Arial-Unicode, Arial, Sans-serif">Created by Icon Fair</text><text x="0" y="532" fill="#000000" font-size="5px" font-weight="bold" font-family="'Helvetica Neue', Helvetica, Arial-Unicode, Arial, Sans-serif">from the Noun Project</text></svg>