<svg xmlns="http://www.w3.org/2000/svg" xmlns:xlink="http://www.w3.org/1999/xlink" version="1.1" x="0px" y="0px" viewBox="0 0 100 125" style="enable-background:new 0 0 100 100;" xml:space="preserve"><path d="M92.5,5h-85C6.1,5,5,6.1,5,7.5v20C5,28.9,6.1,30,7.5,30H40v10H30c-2.2,0-3.3,2.7-1.8,4.3l20,20c1,1,2.6,1,3.5,0l20-20  c1.5-1.5,0.4-4.3-1.8-4.3H60V30h32.5c1.4,0,2.5-1.1,2.5-2.5v-20C95,6.1,93.9,5,92.5,5z M90,25H57.5c-1.4,0-2.5,1.1-2.5,2.5v15  c0,1.4,1.1,2.5,2.5,2.5H64L50,59L36,45h6.5c1.4,0,2.5-1.1,2.5-2.5v-15c0-1.4-1.1-2.5-2.5-2.5H10V10h80V25z"/><path d="M40,95h20c1.4,0,2.5-1.1,2.5-2.5v-20c0-1.4-1.1-2.5-2.5-2.5H40c-1.4,0-2.5,1.1-2.5,2.5v20C37.5,93.9,38.6,95,40,95z   M42.5,75h15v15h-15V75z"/><path d="M7.5,95h20c1.4,0,2.5-1.1,2.5-2.5v-20c0-1.4-1.1-2.5-2.5-2.5h-20C6.1,70,5,71.1,5,72.5v20C5,93.9,6.1,95,7.5,95z M10,75h15  v15H10V75z"/><path d="M92.5,70h-20c-1.4,0-2.5,1.1-2.5,2.5v20c0,1.4,1.1,2.5,2.5,2.5h20c1.4,0,2.5-1.1,2.5-2.5v-20C95,71.1,93.9,70,92.5,70z   M90,90H75V75h15V90z"/><text x="0" y="115" fill="#000000" font-size="5px" font-weight="bold" font-family="'Helvetica Neue', Helvetica, Arial-Unicode, Arial, Sans-serif">Created by Arthur Shlain</text><text x="0" y="120" fill="#000000" font-size="5px" font-weight="bold" font-family="'Helvetica Neue', Helvetica, Arial-Unicode, Arial, Sans-serif">from the Noun Project</text></svg>