<svg xmlns="http://www.w3.org/2000/svg" xmlns:xlink="http://www.w3.org/1999/xlink" version="1.1" x="0px" y="0px" viewBox="0 0 100 125" enable-background="new 0 0 100 100" xml:space="preserve"><g><path d="M14.985,76.435h24.691v-1.115v-2.233h-0.14h-5.021v-5.021h5.021h0.14v-2.232v-1.116H18.334V46.303h21.343v-1.115v-2.232   h-0.14h-5.021v-4.744h5.021h0.14V35.7v-0.837H14.985V76.435z M26.146,38.211h5.022v4.744h-5.022V38.211z M18.334,38.211h4.464   v4.744h-4.464V38.211z M26.146,68.065h5.022v5.021h-5.022V68.065z M18.334,68.065h4.464v5.021h-4.464V68.065z"/><path d="M46.373,34.863v3.348h4.883v4.744h-4.883v3.348h21.762v18.414H46.373v3.349h4.883v5.021h-4.883v3.349h38.642v-8.369v-3.349   h-3.348H71.483V46.303h10.184h3.348v-3.348v-8.092H46.373z M59.625,42.955h-5.021v-4.744h5.021V42.955z M67.996,42.955h-5.022   v-4.744h5.022V42.955z M59.625,73.086h-5.021v-5.021h5.021V73.086z M67.996,73.086h-5.022v-5.021h5.022V73.086z M79.715,68.065   h1.952v5.021h-1.952V68.065z M76.366,68.065v5.021h-4.883v-5.021H76.366z M76.366,42.955h-4.883v-4.744h4.883V42.955z    M81.667,42.955h-1.952v-4.744h1.952V42.955z"/><path d="M51.466,19.658c0-0.856-0.326-1.713-0.98-2.367c-0.653-0.654-1.51-0.98-2.366-0.98H37.932c-0.856,0-1.714,0.326-2.368,0.98   c-0.653,0.654-0.98,1.511-0.98,2.367v4.225l6.768,4.267v6.714V35.7v2.511v4.744v2.232v1.115v18.414v1.116v2.232v5.021v2.233v1.115   v7.255h3.349v-7.255v-3.349v-5.021v-3.349V46.303v-3.348v-4.744v-3.348v-6.714l6.767-4.267V19.658z"/></g><text x="0" y="115" fill="#000000" font-size="5px" font-weight="bold" font-family="'Helvetica Neue', Helvetica, Arial-Unicode, Arial, Sans-serif">Created by Fabiano Coelho</text><text x="0" y="120" fill="#000000" font-size="5px" font-weight="bold" font-family="'Helvetica Neue', Helvetica, Arial-Unicode, Arial, Sans-serif">from the Noun Project</text></svg>