<svg xmlns="http://www.w3.org/2000/svg" data-name="Layer 2" viewBox="0 0 128 160" x="0px" y="0px"><title>magician, actor, man, avatar, occupation, career, people</title><rect x="49.499" y="52.446" width="4.819" height="4.819" rx="2.205" ry="2.205" transform="translate(103.818 109.711) rotate(180)"/><rect x="73.675" y="52.446" width="4.819" height="4.819" rx="2.205" ry="2.205"/><path d="M73.263,76.223c-2.49,0-4.907-1.439-6.728-2.523A8.7,8.7,0,0,0,64,72.468,8.674,8.674,0,0,0,61.47,73.7c-2.842,1.692-7.14,4.246-10.893.846a1,1,0,0,1,.112-1.57,39.67,39.67,0,0,0,3.457-2.7c2.773-2.344,5.373-4.583,9.857-4.433,4.478-.139,7.084,2.088,9.856,4.433a39.975,39.975,0,0,0,3.457,2.7,1,1,0,0,1,.113,1.57A6.026,6.026,0,0,1,73.263,76.223ZM64,70.468c1.01,0,2.133.668,3.555,1.513,2.858,1.7,5.286,2.929,7.474,1.821-.881-.664-1.681-1.341-2.464-2-2.67-2.257-4.763-4.054-8.447-3.963a1.742,1.742,0,0,1-.236,0c-3.7-.093-5.777,1.7-8.447,3.963-.783.662-1.584,1.339-2.464,2,2.189,1.1,4.615-.118,7.473-1.82C61.869,71.136,62.992,70.468,64,70.468Z"/><path d="M46.5,56.19a1,1,0,0,1-.662-1.75,9.3,9.3,0,0,1,7.627-2.465,4.6,4.6,0,0,1,3.306,1.935,1,1,0,0,1-1.742.981,2.823,2.823,0,0,0-1.9-.945,7.214,7.214,0,0,0-5.97,1.994A1,1,0,0,1,46.5,56.19Z"/><path d="M64,65.98c-.033,0-3.29-.077-3.29-1.8a1,1,0,0,1,1.874-.487A4.53,4.53,0,0,0,64,63.98a4.465,4.465,0,0,0,1.4-.286,1,1,0,0,1,1.874.486C67.27,65.9,64.032,65.98,64,65.98Z"/><path d="M81.49,56.19a1,1,0,0,1-.662-.25,7.2,7.2,0,0,0-5.978-1.992,2.788,2.788,0,0,0-1.876.939,1,1,0,0,1-1.748-.973,4.569,4.569,0,0,1,3.286-1.936,9.293,9.293,0,0,1,7.64,2.462,1,1,0,0,1-.662,1.75Z"/><path d="M104.872,40.418c-1.172-1.71-4.328-3.186-12.606-.885.209-4.92.965-21.658,1.844-27.976.764-5.509-1.427-7.171-3.4-7.6C84.445,2.637,71.2,1.938,64.006,2h-.012c-7.173-.026-20.437.637-26.7,1.963-1.973.423-4.164,2.085-3.4,7.6.879,6.317,1.635,23.055,1.844,27.975-8.278-2.3-11.434-.827-12.606.885a3.881,3.881,0,0,0,.254,4.527c2.068,2.647,6.144,4.741,12.083,6.241.051.383.1.766.15,1.15.111.909.219,1.779.367,2.587-.109.037-.227.068-.328.11-3.406,1.383-4.706,5.332-3.235,9.826A9.209,9.209,0,0,0,36.988,70.2a7.389,7.389,0,0,0,3.262.776,6.871,6.871,0,0,0,1.248-.12,21.327,21.327,0,0,0,8.449,12.869,30.488,30.488,0,0,0,5.411,3.247,9.556,9.556,0,0,1-.538,2.943,6.463,6.463,0,0,1-1.794,2.641c-2.865.344-7.666,2.9-10.1,5.4-7.318,4.192-12.232,9.337-14.395,12.769a5.707,5.707,0,0,0-1.009,4.539c.551,2.123,2.642,3.52,4.616,4.609,1.327.728,6.388,3.228,15.8,4.828,2.393.41,4.875.723,7.373.931,2.788.242,5.713.364,8.7.364s5.9-.122,8.677-.364c2.616-.228,5.092-.54,7.36-.93,9.436-1.6,14.5-4.1,15.825-4.83,1.973-1.088,4.064-2.485,4.614-4.608a5.7,5.7,0,0,0-1.01-4.541c-2.156-3.425-7.07-8.567-14.4-12.766-2.416-2.5-7.2-5.05-10.076-5.4a6.593,6.593,0,0,1-1.812-2.655,9.495,9.495,0,0,1-.534-2.932,30.564,30.564,0,0,0,5.406-3.246,21.32,21.32,0,0,0,8.448-12.866,6.857,6.857,0,0,0,1.238.117,7.39,7.39,0,0,0,3.278-.783A9.173,9.173,0,0,0,95.57,64.86c1.472-4.5.172-8.448-3.223-9.822-.106-.044-.225-.076-.338-.115.152-.82.264-1.706.379-2.631.045-.369.1-.737.145-1.106,5.94-1.5,10.017-3.593,12.083-6.238A3.882,3.882,0,0,0,104.872,40.418ZM37.707,5.919C43.834,4.622,56.91,3.956,63.986,4h.028c7.081-.05,20.153.622,26.276,1.918.62.134,2.508.539,1.84,5.364-.955,6.861-1.739,25.141-1.893,28.9C86.69,41.554,74.6,45.89,64,45.89s-22.69-4.336-26.237-5.7c-.154-3.764-.938-22.044-1.893-28.9C35.2,6.457,37.09,6.052,37.707,5.919Zm1.712,48.726a7.622,7.622,0,0,0-1.468-.068c-.138-.755-.243-1.6-.35-2.483-.018-.142-.038-.283-.056-.425q1.011.215,2.051.4A20.434,20.434,0,0,0,39.419,54.645ZM37.87,68.408a7.171,7.171,0,0,1-3.55-4.17c-.935-2.857-.653-6.239,2.1-7.356a3.627,3.627,0,0,1,.9-.234A5.768,5.768,0,0,1,39.5,56.7c.116,1.448.238,2.815.369,4.11a5.793,5.793,0,0,0-2.746-.7,1,1,0,0,0,.076,2,4.12,4.12,0,0,1,2.984,1.514c.244,1.937.527,3.687.862,5.3A5.271,5.271,0,0,1,37.87,68.408Zm16.06,55.073c-1.793-.182-3.57-.407-5.3-.695-1.309-1.716-6.775-11.034-7.711-18.02a14.816,14.816,0,0,1,1.944-.032c.913.018,2.052.042,3.428-.015a1,1,0,0,0,.219-1.964c-1.161-.315-2.893-1.118-3.122-1.813-.035-.106.049-.61.879-1.5a20.845,20.845,0,0,1,8.022-4.709C50.983,105.952,52.026,117.462,53.93,123.481Zm-24.47-8.716a3.859,3.859,0,0,1,.766-2.972,38.36,38.36,0,0,1,11.185-10.562,2.246,2.246,0,0,0,.08.343,3,3,0,0,0,.737,1.149c-1.436-.014-2.327.049-2.9.694a1.848,1.848,0,0,0-.4,1.542c.762,5.877,4.663,13.573,6.981,17.332A48.951,48.951,0,0,1,33.1,118.124C31.6,117.294,29.822,116.162,29.46,114.765Zm26.654,8.926c-2.071-5.6-3.243-17.865-1.714-29.689a8.638,8.638,0,0,0,1.557-1.888c2.466,2.379,6.656,2.6,8.043,2.6s5.588-.218,8.052-2.6a8.567,8.567,0,0,0,1.557,1.889c1.527,11.8.35,24.075-1.723,29.7A102.9,102.9,0,0,1,56.114,123.691Zm41.668-11.9a3.859,3.859,0,0,1,.768,2.974c-.362,1.4-2.137,2.529-3.642,3.358a48.967,48.967,0,0,1-12.826,4.169c2.321-3.76,6.227-11.459,6.989-17.329a1.853,1.853,0,0,0-.4-1.546c-.575-.645-1.477-.707-2.905-.694a3.029,3.029,0,0,0,.739-1.146,2.172,2.172,0,0,0,.081-.346A38.316,38.316,0,0,1,97.782,111.791ZM83.733,99.447c.835.883.917,1.379.879,1.493-.233.691-1.965,1.5-3.125,1.815a1,1,0,0,0,.221,1.964c1.373.056,2.512.033,3.428.015a14.821,14.821,0,0,1,1.944.032c-.933,6.986-6.424,16.326-7.726,18.025-1.661.277-3.432.513-5.29.7,1.91-6.032,2.959-17.558,1.656-28.758A20.707,20.707,0,0,1,83.733,99.447ZM71.144,90.074C69.788,92,66.625,92.71,64,92.71S58.222,92,56.863,90.084a11.385,11.385,0,0,0,.444-2.3A19.54,19.54,0,0,0,64,89.139a19.51,19.51,0,0,0,6.7-1.353A11.335,11.335,0,0,0,71.144,90.074Zm5.712-7.946c-4.18,3.138-8.985,5.011-12.853,5.011s-8.673-1.873-12.855-5.011c-6.921-5.193-8.56-11.379-9.705-26.183a20.562,20.562,0,0,1,.125-3.544A147.541,147.541,0,0,0,64,53.87a147.487,147.487,0,0,0,22.415-1.464,19.951,19.951,0,0,1,.148,3.523c-.2,2.581-.417,4.886-.671,6.983a.977.977,0,0,0-.036.308C84.643,72.967,82.516,77.882,76.856,82.128Zm13.185-27.55a7.6,7.6,0,0,0-1.46.067,20.581,20.581,0,0,0-.194-2.571q1.071-.19,2.065-.4c-.016.125-.034.25-.05.375C90.291,52.947,90.183,53.809,90.041,54.578Zm3.627,9.665a7.137,7.137,0,0,1-3.53,4.16,5.262,5.262,0,0,1-3.178.507c.336-1.614.621-3.373.865-5.321A3.971,3.971,0,0,1,90.8,62.1a1.017,1.017,0,0,0,1.03-.962,1,1,0,0,0-.961-1.037,5.814,5.814,0,0,0-2.73.7c.131-1.293.253-2.657.368-4.1a5.855,5.855,0,0,1,2.186-.045,3.62,3.62,0,0,1,.893.237C94.323,58,94.605,61.378,93.668,64.243Zm9.374-20.528c-1.835,2.348-5.862,4.321-11.646,5.7-1.3.313-2.74.6-4.284.857A141.5,141.5,0,0,1,64,51.87a141.98,141.98,0,0,1-23.049-1.588c-1.494-.244-2.958-.535-4.348-.865-5.783-1.381-9.81-3.354-11.647-5.7a1.891,1.891,0,0,1-.179-2.163c.438-.643,2.583-2.513,11.688.278,2.649,1.05,15.9,6.063,27.535,6.063s24.886-5.013,27.535-6.063c9.107-2.79,11.25-.92,11.688-.278A1.894,1.894,0,0,1,103.042,43.715Z"/><path d="M72.341,102a1,1,0,0,0-.2-1.99,4.286,4.286,0,0,1-3.23-.935,12.528,12.528,0,0,1-1.557-1.476c-.946-1-1.923-2.044-3.353-2.044a3.986,3.986,0,0,0-2.792,1.458c-.176.178-.353.366-.534.559a12.634,12.634,0,0,1-1.584,1.5,4.287,4.287,0,0,1-3.23.935,1.011,1.011,0,0,0-1.095.894,1,1,0,0,0,.894,1.1,6.332,6.332,0,0,0,4.633-1.326,14.638,14.638,0,0,0,1.841-1.732c.17-.182.335-.358.494-.52.616-.616,1.014-.867,1.373-.867.565,0,1.182.655,1.9,1.414a14.176,14.176,0,0,0,1.813,1.706,6.352,6.352,0,0,0,3.92,1.361A6.9,6.9,0,0,0,72.341,102Z"/><circle cx="64.032" cy="105.063" r="1.828"/><circle cx="63.972" cy="115.563" r="1.828"/><text x="0" y="143" fill="#000000" font-size="5px" font-weight="bold" font-family="'Helvetica Neue', Helvetica, Arial-Unicode, Arial, Sans-serif">Created by Victoruler</text><text x="0" y="148" fill="#000000" font-size="5px" font-weight="bold" font-family="'Helvetica Neue', Helvetica, Arial-Unicode, Arial, Sans-serif">from the Noun Project</text></svg>