<svg xmlns="http://www.w3.org/2000/svg" xmlns:xlink="http://www.w3.org/1999/xlink" version="1.1" x="0px" y="0px" viewBox="0 0 100 125" enable-background="new 0 0 100 100" xml:space="preserve"><path d="M81.889,69.384H60.63c-1.036,0-1.875,0.839-1.875,1.875V81.89c0,1.036,0.839,1.875,1.875,1.875h21.259  c1.036,0,1.875-0.839,1.875-1.875V71.259C83.764,70.222,82.925,69.384,81.889,69.384z M80.014,80.015H62.505v-6.881h17.509V80.015z"/><path d="M39.37,83.765h10.629c1.036,0,1.875-0.839,1.875-1.875s-0.839-1.875-1.875-1.875H39.37c-1.036,0-1.875,0.839-1.875,1.875  S38.333,83.765,39.37,83.765z"/><path d="M39.37,51.875h21.26c1.036,0,1.875-0.839,1.875-1.875V28.738c0-1.036-0.839-1.875-1.875-1.875H39.37  c-1.036,0-1.875,0.839-1.875,1.875V50C37.495,51.036,38.333,51.875,39.37,51.875z M41.245,30.613h17.51v17.512h-17.51V30.613z"/><path d="M71.261,30.613h10.627c1.036,0,1.875-0.839,1.875-1.875c0-1.036-0.839-1.875-1.875-1.875H71.261  c-1.036,0-1.875,0.839-1.875,1.875C69.386,29.774,70.225,30.613,71.261,30.613z"/><path d="M71.261,41.244h10.627c1.036,0,1.875-0.839,1.875-1.875s-0.839-1.875-1.875-1.875H71.261c-1.036,0-1.875,0.839-1.875,1.875  S70.225,41.244,71.261,41.244z"/><path d="M71.261,51.875h10.627c1.036,0,1.875-0.839,1.875-1.875s-0.839-1.875-1.875-1.875H71.261c-1.036,0-1.875,0.839-1.875,1.875  S70.225,51.875,71.261,51.875z"/><path d="M39.37,73.134h10.629c1.036,0,1.875-0.839,1.875-1.875s-0.839-1.875-1.875-1.875H39.37c-1.036,0-1.875,0.839-1.875,1.875  S38.333,73.134,39.37,73.134z"/><path d="M39.37,62.506h42.519c1.036,0,1.875-0.839,1.875-1.875s-0.839-1.875-1.875-1.875H39.37c-1.036,0-1.875,0.839-1.875,1.875  S38.333,62.506,39.37,62.506z"/><path d="M92.52,5.604H28.741c-1.036,0-1.875,0.839-1.875,1.875v40.646H7.48c-1.036,0-1.875,0.839-1.875,1.875v21.259V81.89  c0,6.896,5.609,12.506,12.504,12.506c0.391,0,0.76-0.081,1.143-0.115c0.183,0.06,0.37,0.115,0.573,0.115h36.4h10.939h14.725  c6.896,0,12.506-5.61,12.506-12.506V70.801v-1.406V7.479C94.395,6.443,93.556,5.604,92.52,5.604z M26.866,53.124v18.135V81.89  c0,4.827-3.928,8.756-8.756,8.756c-4.827,0-8.754-3.929-8.754-8.756V71.259V51.875h17.51V53.124z M90.645,69.395v1.406V81.89  c0,4.827-3.929,8.756-8.756,8.756H67.163H56.225H27.017c2.22-2.258,3.599-5.347,3.599-8.756V71.259V53.124V50V19.985h60.029V69.395z   M90.645,16.235H30.616V9.354h60.029V16.235z"/><text x="0" y="115" fill="#000000" font-size="5px" font-weight="bold" font-family="'Helvetica Neue', Helvetica, Arial-Unicode, Arial, Sans-serif">Created by Christian Baptist</text><text x="0" y="120" fill="#000000" font-size="5px" font-weight="bold" font-family="'Helvetica Neue', Helvetica, Arial-Unicode, Arial, Sans-serif">from the Noun Project</text></svg>