<svg xmlns="http://www.w3.org/2000/svg" viewBox="0 0 100 125" x="0px" y="0px"><title>Artboard 11</title><g><path d="M95,56.51A44.66,44.66,0,0,1,81.8,88.3a.48.48,0,0,1-.7,0h0L75,82.15a.49.49,0,0,1,0-.69.47.47,0,0,1,.69,0l5.8,5.79a43.9,43.9,0,0,0,4.86-5.9l-2.84-1.9a.49.49,0,0,1-.14-.68.49.49,0,0,1,.68-.13l2.85,1.9a44.08,44.08,0,0,0,3.6-6.74l-7.58-3.15A.49.49,0,0,1,82.6,70a.48.48,0,0,1,.64-.26l7.59,3.14A42.92,42.92,0,0,0,93,65.57l-3.35-.67a.48.48,0,0,1-.39-.48.28.28,0,0,1,0-.09.48.48,0,0,1,.57-.39l3.35.67A44.7,44.7,0,0,0,94,57H85.77a.49.49,0,0,1,0-1H94a43.34,43.34,0,0,0-.76-7.61l-3.33.67h-.09a.49.49,0,0,1-.48-.4.31.31,0,0,1,0-.1.49.49,0,0,1,.39-.48L93,47.45a42.67,42.67,0,0,0-2.23-7.31l-7.56,3.13a.41.41,0,0,1-.19,0,.49.49,0,0,1-.18-1l7.56-3.13a44,44,0,0,0-3.62-6.73L84,34.38a.45.45,0,0,1-.27.08.47.47,0,0,1-.41-.22.43.43,0,0,1-.08-.27.48.48,0,0,1,.22-.41l2.82-1.88a44.35,44.35,0,0,0-4.86-5.89l-5.78,5.77a.45.45,0,0,1-.34.14.46.46,0,0,1-.35-.14.49.49,0,0,1,0-.69l5.78-5.78a44.46,44.46,0,0,0-5.91-4.85l-1.88,2.81a.49.49,0,0,1-.4.22.57.57,0,0,1-.28-.08.49.49,0,0,1-.21-.41.43.43,0,0,1,.08-.27L74,19.69a43.91,43.91,0,0,0-6.73-3.61l-3.13,7.56a.51.51,0,0,1-.46.31.65.65,0,0,1-.19,0,.48.48,0,0,1-.26-.64l3.13-7.56a43.22,43.22,0,0,0-7.31-2.23l-.66,3.34a.5.5,0,0,1-.49.39h-.09a.48.48,0,0,1-.4-.48s0-.06,0-.1l.67-3.33a43.34,43.34,0,0,0-7.61-.74v8.18a.49.49,0,1,1-1,0V12.54a44.19,44.19,0,0,0-7.6.75l.66,3.33s0,.07,0,.1a.48.48,0,0,1-.4.48h-.09a.5.5,0,0,1-.49-.39l-.66-3.34a43.22,43.22,0,0,0-7.31,2.23l3.13,7.56a.48.48,0,0,1-.26.64.65.65,0,0,1-.19,0,.51.51,0,0,1-.46-.31l-3.13-7.57A44,44,0,0,0,26,19.69l1.88,2.82a.43.43,0,0,1,.08.27.49.49,0,0,1-.21.41.57.57,0,0,1-.28.08.49.49,0,0,1-.4-.22l-1.89-2.81a44.14,44.14,0,0,0-5.89,4.85l5.77,5.78a.49.49,0,0,1,0,.69.46.46,0,0,1-.35.14.45.45,0,0,1-.34-.14l-5.78-5.78a44.23,44.23,0,0,0-4.85,5.9l2.81,1.88a.48.48,0,0,1,.22.41.43.43,0,0,1-.08.27.47.47,0,0,1-.41.22.45.45,0,0,1-.27-.08L13.19,32.5a44,44,0,0,0-3.62,6.73l7.56,3.13a.49.49,0,0,1-.18,1,.41.41,0,0,1-.19,0L9.2,40.14A42.67,42.67,0,0,0,7,47.45l3.34.66a.49.49,0,0,1,.39.48.31.31,0,0,1,0,.1.49.49,0,0,1-.48.4h-.09l-3.33-.67A43.34,43.34,0,0,0,6,56h8.2a.49.49,0,1,1,0,1H6a44.7,44.7,0,0,0,.73,7.61l3.35-.67a.48.48,0,0,1,.57.39.28.28,0,0,1,0,.09.48.48,0,0,1-.39.48L7,65.57a42.92,42.92,0,0,0,2.21,7.32l7.59-3.14a.48.48,0,0,1,.64.26.49.49,0,0,1-.27.64L9.55,73.8a44.08,44.08,0,0,0,3.6,6.74L16,78.64a.49.49,0,0,1,.68.13.49.49,0,0,1-.14.68l-2.84,1.9a43.9,43.9,0,0,0,4.86,5.9l5.8-5.79a.47.47,0,0,1,.69,0,.49.49,0,0,1,0,.69L18.91,88.3h0a.48.48,0,0,1-.7,0A44.89,44.89,0,0,1,5.91,47.75h0a44.76,44.76,0,0,1,2.55-8.39.06.06,0,0,1,0,0v0a45,45,0,0,1,4.12-7.69s0,0,0-.06l.06-.06a45.89,45.89,0,0,1,5.46-6.65.36.36,0,0,1,.07-.1l.1-.07A45,45,0,0,1,25,19.18s0,0,0-.05l.09,0A45,45,0,0,1,32.77,15l0,0h0a43.42,43.42,0,0,1,8.4-2.55h0a44.64,44.64,0,0,1,17.54,0h0A43.42,43.42,0,0,1,67.17,15h0l0,0a45,45,0,0,1,7.66,4.1l.09,0s0,0,0,.05a45,45,0,0,1,6.67,5.47l.1.07a.36.36,0,0,1,.07.1,45.44,45.44,0,0,1,5.46,6.66l.06.05s0,0,0,.06a45,45,0,0,1,4.12,7.69v0a.06.06,0,0,1,0,0,44.76,44.76,0,0,1,2.55,8.39h0A44.34,44.34,0,0,1,95,56.51ZM53,55.34A3.43,3.43,0,0,1,51.81,60a3.26,3.26,0,0,1-1.7.46A3.43,3.43,0,0,1,47,58.61L31.18,23.66A.5.5,0,0,1,31.4,23a.49.49,0,0,1,.65.17c3.65,5.74,7.11,11,10.45,16.08S49.3,49.6,53,55.34Zm-.83.52c-3.65-5.73-7.1-11-10.44-16C39.46,36.44,37.2,33,34.85,29.38L47.91,58.19a2.42,2.42,0,0,0,1.52,1.23,2.34,2.34,0,0,0,1.87-.22A2.48,2.48,0,0,0,52.12,55.86Z"/></g><text x="0" y="115" fill="#000000" font-size="5px" font-weight="bold" font-family="'Helvetica Neue', Helvetica, Arial-Unicode, Arial, Sans-serif">Created by Jackie Strawbridge</text><text x="0" y="120" fill="#000000" font-size="5px" font-weight="bold" font-family="'Helvetica Neue', Helvetica, Arial-Unicode, Arial, Sans-serif">from the Noun Project</text></svg>