<svg xmlns="http://www.w3.org/2000/svg" xmlns:xlink="http://www.w3.org/1999/xlink" version="1.1" x="0px" y="0px" viewBox="0 0 100 125" enable-background="new 0 0 100 100" xml:space="preserve"><g><path d="M75.385,67.488L95,55.51l-13.352-1.313l7.582-7.055l-17.803,0.984c-2.309-7.055-11.704-9.681-11.704-9.681   c0.165-1.64-0.494-5.085-1.647-10.666c-1.154-5.58-4.45-8.695-4.45-8.695C46.179,14.573,38.3,14.019,38.018,14   c0.119,0.114,0.546,0.85,2.092,4.756c2.144,5.414,1.483,14.766,1.483,14.766s-2.968-2.625-7.254-5.578   c-4.287-2.953-6.592-3.61-12.198-3.119C16.536,25.318,5,33.031,5,33.031c13.682,4.429,21.592,20.51,21.592,20.51L6.484,61.58   l21.264,7.055l-8.573,4.76l17.572,1.217c0.18,0.075,0.453,0.164,0.806,0.164c0.003,0,0.009,0,0.016,0   c1.551,4.521,2.402,5.729,2.916,6.242c2.172,2.162,9.508,4.609,10.339,4.881L51.132,86l0.31-0.102   c0.83-0.271,8.165-2.719,10.336-4.881c0.426-0.425,1.09-1.355,2.176-4.203l10.936-0.63l-4.285-2.79l14.34-4.102   C80.656,66.996,75.385,67.488,75.385,67.488z M65.082,72.706l-0.299-0.02l-0.143,0.081l-1.094-0.795l-0.425,1.283   c-0.487,1.467-0.894,2.568-1.245,3.445c-0.822,2.055-1.301,2.727-1.498,2.925c-1.487,1.481-6.908,3.511-9.247,4.3   c-2.341-0.789-7.761-2.818-9.249-4.3c-0.249-0.249-0.929-1.208-2.2-4.788c-0.169-0.477-0.346-0.988-0.536-1.561l-0.547-1.187   l-1.082,0.723l-0.292-0.107c-1.086-0.218-5.121-4.507-4.977-7.687c0.019-0.383,0.116-1.641,0.645-1.641   c0.04,0,0.071,0.023,0.11,0.028c2.076,2.805,3.873,4.081,3.873,4.081l-0.066-3.446c1.318,1.969,2.968,2.296,2.968,2.296   l-0.494-4.758c-0.167-2.461,4.451-5.086,4.451-5.086c0,3.938,0.66,11.158,0.66,11.158c3.792-7.055,12.525-12.964,12.525-12.964   c0.66,4.265-0.329,12.472-0.329,12.472c3.296-1.477,7.418-10.173,7.418-10.173c0.989,1.805-1.485,8.86-1.485,8.86l2.31-1.314   c0,1.312-0.331,2.461-0.331,2.461c0.703-0.087,2.149-1.524,3.352-2.849c0.557-0.403,1.115-0.648,1.173-0.676   c0.053-0.024,0.222-0.091,0.388-0.091c0.528,0,0.625,1.258,0.645,1.641C70.203,68.199,66.167,72.488,65.082,72.706z"/></g><text x="0" y="115" fill="#000000" font-size="5px" font-weight="bold" font-family="'Helvetica Neue', Helvetica, Arial-Unicode, Arial, Sans-serif">Created by 박한누리</text><text x="0" y="120" fill="#000000" font-size="5px" font-weight="bold" font-family="'Helvetica Neue', Helvetica, Arial-Unicode, Arial, Sans-serif">from the Noun Project</text></svg>