<svg xmlns="http://www.w3.org/2000/svg" xmlns:xlink="http://www.w3.org/1999/xlink" version="1.1" x="0px" y="0px" viewBox="0 0 100 125" enable-background="new 0 0 100 100" xml:space="preserve"><g><g><path d="M43.769,44.065c1.523,0,2.77-1.247,2.77-2.769v-8.308c0-1.523-1.247-2.77-2.77-2.77h-36C6.247,30.219,5,31.465,5,32.988    v8.308c0,1.522,1.247,2.769,2.769,2.769H43.769z M92.23,11.529H7.769C6.247,11.529,5,12.776,5,14.298v8.308    c0,1.523,1.247,2.77,2.769,2.77h60.466C56.158,52.486,36.125,67.25,8.804,75.05c-1.464,0.416-2.323,1.955-1.907,3.421l2.272,7.988    c0.416,1.466,1.957,2.323,3.421,1.907c32.66-9.241,56.969-28.529,70.641-62.991h9c1.522,0,2.77-1.247,2.77-2.77v-8.308    C95,12.776,93.753,11.529,92.23,11.529z"/></g></g><text x="0" y="115" fill="#000000" font-size="5px" font-weight="bold" font-family="'Helvetica Neue', Helvetica, Arial-Unicode, Arial, Sans-serif">Created by Jake Dunham</text><text x="0" y="120" fill="#000000" font-size="5px" font-weight="bold" font-family="'Helvetica Neue', Helvetica, Arial-Unicode, Arial, Sans-serif">from the Noun Project</text></svg>