<svg xmlns="http://www.w3.org/2000/svg" data-name="Layer 1" viewBox="0 0 100 125" x="0px" y="0px"><title>Artboard 13</title><path d="M21.83,48.55c-1.65-2.41-3.28-4.86-4.7-5.94a6,6,0,0,0-1.37.44,4.46,4.46,0,0,0-1.12.54c-.29,1.85.71,5.2,2.62,8A16.28,16.28,0,0,0,21.9,56.3l-1.46,2.59-2.05,3.71-1,1.84a23.3,23.3,0,0,0-1,2.13,18.9,18.9,0,0,0-1.32,8.86,18.27,18.27,0,0,0,2.33,7.27,16,16,0,0,0,2.7,3.43c-1.56,3.18-2.8,5.94-3.59,8-.08.2.42.67,1.1,1s1.17.47,1.29.32c1.31-1.65,2.94-4,4.75-6.75a37.48,37.48,0,0,0,9.08,5.55,43.44,43.44,0,0,0,34.53,0,37.57,37.57,0,0,0,9.1-5.54c1.8,2.76,3.43,5.08,4.73,6.73.13.17.79,0,1.45-.41s1-.76.93-.94c-.78-2.08-2-4.84-3.59-8a16,16,0,0,0,2.69-3.42,18.22,18.22,0,0,0,2.33-7.25,18.86,18.86,0,0,0-1.29-8.84,22.43,22.43,0,0,0-1-2.13l-1-1.84-2-3.7-1.49-2.63a16.55,16.55,0,0,0,4.58-4.62c1.95-2.84,3-6.22,2.7-8.08A5.49,5.49,0,0,0,84,43a5,5,0,0,0-1.22-.38c-1.41,1.1-3,3.57-4.7,6-.83,1.25-1.67,2.5-2.36,3.66a188,188,0,0,0-10.5-16.39A16.53,16.53,0,0,0,53.36,12.75c-.44-.08-.88-.13-1.32-.17,1.12-3,.88-8.39-.72-10.38a7.66,7.66,0,0,0-1.44-.07,6.28,6.28,0,0,0-1.24.07C47,4.2,46.81,9.69,48,12.66c-.5.08-1,.17-1.49.29A15.52,15.52,0,0,0,35,24.39a14.18,14.18,0,0,0-.33,4c0,.34.66.59,1.41.56s1.22-.22,1.26-.46a14.64,14.64,0,0,1,.84-3.15,14.18,14.18,0,0,1,1.91-3.28,12.32,12.32,0,0,1,7.42-4.47,12,12,0,0,1,4.84.12,11.77,11.77,0,0,1,4.51,2.19,11.47,11.47,0,0,1,0,18.11,11.76,11.76,0,0,1-4.51,2.19,12,12,0,0,1-4.83.12,12.28,12.28,0,0,1-7.4-4.46,14.15,14.15,0,0,1-1.91-3.27,14.61,14.61,0,0,1-.84-3.14c0-.27-.73-.49-1.5-.47s-1.23.26-1.25.58a14.23,14.23,0,0,0,.34,4c.12.47.27.94.43,1.42A173.43,173.43,0,0,0,24.22,52.28C23.53,51.11,22.68,49.83,21.83,48.55Zm43.7,41.25A50.87,50.87,0,0,1,50,92.38a50.92,50.92,0,0,1-15.55-2.56,65.64,65.64,0,0,1-9-3.83C29,80.23,33.21,73.13,37,66.23a15.56,15.56,0,0,0,5.23,2.06,15.72,15.72,0,0,0,5.34.22A13.39,13.39,0,0,0,48.89,74a6,6,0,0,0,1.47.09A5,5,0,0,0,51.64,74a13.36,13.36,0,0,0,1.3-5.44,15,15,0,0,0,5-.17,14.77,14.77,0,0,0,5.08-2C66.82,73.23,70.94,80.26,74.55,86A65.47,65.47,0,0,1,65.53,89.81ZM60.07,42.27a15.38,15.38,0,0,0,3.21-3.13c2.42,5.66,6.8,14.15,11.49,22.49l2.09,3.67,1,1.81c.3.57.59,1,.82,1.58a15.71,15.71,0,0,1,1.41,6.49A17.4,17.4,0,0,1,79.07,81a20.17,20.17,0,0,1-.82,1.85C71.76,70.1,61.67,52.79,55.71,44.57A16.56,16.56,0,0,0,60.07,42.27Zm-7.62,3.07c1.72,4.19,4.78,10.33,8.36,17-1.22.13-2.58.38-3.93.64s-2.77.6-4,1a12.88,12.88,0,0,0-1.3-5.17,5.91,5.91,0,0,0-1.44-.09,4.84,4.84,0,0,0-1.24.09,12.92,12.92,0,0,0-1.3,5.19c-1.28-.39-2.76-.72-4.25-1s-2.85-.57-4.13-.74c3.57-6.63,6.62-12.76,8.32-16.92A16.32,16.32,0,0,0,52.46,45.35Zm-8-1C38.48,52.49,28.27,70,21.72,82.84A20.09,20.09,0,0,1,20.9,81a17.45,17.45,0,0,1-1.06-5.82,15.75,15.75,0,0,1,1.42-6.5,7,7,0,0,1,.39-.78c.15-.27.24-.48.44-.81l1.05-1.81,2.09-3.68A255,255,0,0,0,37,38.38,15.74,15.74,0,0,0,44.41,44.36Z"/><text x="0" y="115" fill="#000000" font-size="5px" font-weight="bold" font-family="'Helvetica Neue', Helvetica, Arial-Unicode, Arial, Sans-serif">Created by Gregor Cresnar</text><text x="0" y="120" fill="#000000" font-size="5px" font-weight="bold" font-family="'Helvetica Neue', Helvetica, Arial-Unicode, Arial, Sans-serif">from the Noun Project</text></svg>