<svg xmlns="http://www.w3.org/2000/svg" xmlns:xlink="http://www.w3.org/1999/xlink" version="1.1" x="0px" y="0px" viewBox="0 0 64 80" style="enable-background:new 0 0 64 64;" xml:space="preserve"><path d="M32,20c-2.757,0-5,2.243-5,5s2.243,5,5,5s5-2.243,5-5S34.757,20,32,20z M32,28c-1.654,0-3-1.346-3-3s1.346-3,3-3  s3,1.346,3,3S33.654,28,32,28z"/><path d="M42,22l-1.537-0.041c-0.097-0.27-0.206-0.533-0.348-0.832l1.077-1.077c0.391-0.391,0.391-1.023,0-1.414l-2.828-2.829  c-0.188-0.188-0.441-0.293-0.707-0.293s-0.52,0.105-0.707,0.293l-1.119,1.056c-0.257-0.12-0.519-0.229-0.831-0.339V15  c0-0.552-0.447-1-1-1h-4c-0.553,0-1,0.448-1,1l-0.043,1.538c-0.27,0.096-0.531,0.205-0.83,0.347l-1.077-1.077  c-0.375-0.375-1.039-0.375-1.414,0l-2.828,2.829c-0.391,0.391-0.391,1.023,0,1.414l1.057,1.118c-0.121,0.257-0.23,0.521-0.34,0.832  H22c-0.553,0-1,0.448-1,1v4c0,0.552,0.447,1,1,1l1.537,0.041c0.097,0.27,0.206,0.533,0.348,0.832l-1.077,1.077  c-0.391,0.391-0.391,1.023,0,1.414l2.828,2.829c0.188,0.188,0.441,0.293,0.707,0.293s0.52-0.105,0.707-0.293l1.119-1.056  c0.257,0.12,0.519,0.229,0.831,0.339V35c0,0.552,0.447,1,1,1h4c0.553,0,1-0.448,1-1l0.043-1.538c0.27-0.096,0.531-0.205,0.83-0.347  l1.077,1.077c0.375,0.375,1.039,0.375,1.414,0l2.828-2.829c0.391-0.391,0.391-1.023,0-1.414l-1.057-1.118  c0.121-0.257,0.23-0.521,0.34-0.832H42c0.553,0,1-0.448,1-1v-4C43,22.448,42.553,22,42,22z M41,26h-0.524  c-0.854,0-1.598,0.537-1.897,1.37c-0.073,0.208-0.157,0.41-0.252,0.61c-0.375,0.799-0.228,1.705,0.375,2.307l0.37,0.37l-1.414,1.415  l-0.37-0.37c-0.595-0.595-1.521-0.746-2.308-0.375c-0.198,0.094-0.403,0.179-0.612,0.253C33.55,31.874,33,32.635,33,33.476V34h-2  v-0.524c0-0.841-0.55-1.603-1.367-1.896c-0.209-0.075-0.414-0.16-0.611-0.253c-0.785-0.37-1.713-0.221-2.309,0.374l-0.37,0.37  l-1.414-1.415l0.37-0.37c0.603-0.602,0.75-1.508,0.374-2.309c-0.094-0.198-0.178-0.4-0.252-0.611C25.122,26.537,24.378,26,23.524,26  H23v-2h0.524c0.854,0,1.598-0.537,1.897-1.37c0.073-0.208,0.157-0.41,0.252-0.61c0.375-0.799,0.228-1.705-0.375-2.307l-0.37-0.37  l1.414-1.415l0.37,0.37c0.593,0.595,1.521,0.745,2.308,0.375c0.198-0.094,0.403-0.179,0.612-0.253C30.45,18.126,31,17.365,31,16.524  V16h2v0.524c0,0.841,0.55,1.603,1.367,1.896c0.209,0.075,0.414,0.16,0.611,0.253c0.786,0.372,1.714,0.222,2.309-0.374l0.37-0.37  l1.414,1.415l-0.37,0.37c-0.603,0.602-0.75,1.508-0.374,2.309c0.094,0.198,0.178,0.4,0.252,0.611C38.878,23.463,39.622,24,40.476,24  H41V26z"/><path d="M57.305,51.723C58.336,50.806,59,49.485,59,48c0-2.757-2.243-5-5-5s-5,2.243-5,5c0,1.485,0.664,2.806,1.695,3.723  C47.93,52.984,46,55.768,46,59v2c0,0.552,0.447,1,1,1h14c0.553,0,1-0.448,1-1v-2C62,55.768,60.07,52.984,57.305,51.723z M51,48  c0-1.654,1.346-3,3-3s3,1.346,3,3s-1.346,3-3,3S51,49.654,51,48z M60,60H48v-1c0-3.309,2.691-6,6-6s6,2.691,6,6V60z"/><path d="M3,62h14c0.553,0,1-0.448,1-1v-2c0-3.232-1.93-6.016-4.695-7.277C14.336,50.806,15,49.485,15,48c0-2.757-2.243-5-5-5  s-5,2.243-5,5c0,1.485,0.664,2.806,1.695,3.723C3.93,52.984,2,55.768,2,59v2C2,61.552,2.447,62,3,62z M7,48c0-1.654,1.346-3,3-3  s3,1.346,3,3s-1.346,3-3,3S7,49.654,7,48z M4,59c0-3.309,2.691-6,6-6s6,2.691,6,6v1H4V59z"/><path d="M15,17v22c0,0.552,0.447,1,1,1h32c0.553,0,1-0.448,1-1V17c0-0.289-0.124-0.562-0.342-0.752l-16-14  c-0.377-0.33-0.939-0.33-1.316,0l-16,14C15.124,16.438,15,16.711,15,17z M17,17.454L32,4.329l15,13.125V38H17V17.454z"/><path d="M44,57c0-0.351-0.185-0.677-0.485-0.857l-5-3c-0.309-0.186-0.693-0.191-1.008-0.013C37.193,53.307,37,53.64,37,54v2h-4V46  h-2v10h-4v-2c0-0.36-0.193-0.693-0.507-0.87c-0.313-0.178-0.698-0.173-1.008,0.013l-5,3C20.185,56.323,20,56.649,20,57  s0.185,0.677,0.485,0.857l5,3C25.644,60.953,25.822,61,26,61c0.17,0,0.34-0.043,0.493-0.13C26.807,60.693,27,60.36,27,60v-2h10v2  c0,0.36,0.193,0.693,0.507,0.87C37.66,60.957,37.83,61,38,61c0.178,0,0.356-0.047,0.515-0.143l5-3C43.815,57.677,44,57.351,44,57z   M25,58.234L22.943,57L25,55.766V58.234z M39,58.234v-2.468L41.057,57L39,58.234z"/><rect x="31" y="42" width="2" height="2"/><text x="0" y="79" fill="#000000" font-size="5px" font-weight="bold" font-family="'Helvetica Neue', Helvetica, Arial-Unicode, Arial, Sans-serif">Created by Nithinan Tatah</text><text x="0" y="84" fill="#000000" font-size="5px" font-weight="bold" font-family="'Helvetica Neue', Helvetica, Arial-Unicode, Arial, Sans-serif">from the Noun Project</text></svg>