<svg xmlns="http://www.w3.org/2000/svg" xmlns:xlink="http://www.w3.org/1999/xlink" version="1.2" baseProfile="tiny" x="0px" y="0px" viewBox="0 0 100 125" xml:space="preserve"><path d="M85.9,18.9c0-0.3-0.1-0.7-0.4-0.9l-4.2-4.2c-0.2-0.2-0.6-0.4-0.9-0.4l0,0c-0.3,0-0.7,0.1-0.9,0.4L52.7,41.7L53.5,3  c0-0.3-0.1-0.7-0.4-0.9c-0.2-0.2-0.6-0.4-0.9-0.4h-6c-0.3,0-0.7,0.1-0.9,0.4C45.2,2.4,45,2.7,45,3l1,45.7l-31.6,33  c-0.5,0.5-0.5,1.3,0,1.7l1.4,1.4c0.2,0.2,0.6,0.4,0.9,0.4s0.6-0.1,0.9-0.3l28.6-27.4L47,97c0,0.7,0.6,1.2,1.2,1.2h2  c0.7,0,1.2-0.5,1.2-1.2l1-45.6l33-31.6C85.8,19.6,85.9,19.2,85.9,18.9z M71.8,29.5l-2-2l2.4-2.5l2.1,2.1L71.8,29.5z M47.8,16.1h2.9  l-0.1,3.5h-2.8L47.8,16.1z M51,4.2l-0.2,9.3h-3l-0.2-9.3H51z M24.4,74.9l21.7-22.7V54L24.4,74.9z M47.9,22.1h2.7l-1.3,63.1  L47.9,22.1z M52.6,45.4L68,29.3l1.9,1.9L52.6,47.9V45.4z M76.1,25.3L74,23.2l6.5-6.8l2.4,2.4L76.1,25.3z"/><text x="0" y="115" fill="#000000" font-size="5px" font-weight="bold" font-family="'Helvetica Neue', Helvetica, Arial-Unicode, Arial, Sans-serif">Created by Juraj Sedlák</text><text x="0" y="120" fill="#000000" font-size="5px" font-weight="bold" font-family="'Helvetica Neue', Helvetica, Arial-Unicode, Arial, Sans-serif">from the Noun Project</text></svg>