<svg xmlns="http://www.w3.org/2000/svg" xmlns:xlink="http://www.w3.org/1999/xlink" version="1.1" x="0px" y="0px" viewBox="0 0 56.9 71.125" style="enable-background:new 0 0 56.9 56.9;" xml:space="preserve"><path d="M28.4,14.8c-0.6,0-1-0.4-1-1V6c0-0.6,0.4-1,1-1s1,0.4,1,1v7.8C29.4,14.4,29,14.8,28.4,14.8z M36.7,21.3V6c0-0.6-0.4-1-1-1  s-1,0.4-1,1v14.3h-6.3c-0.6,0-1,0.4-1,1s0.4,1,1,1h7.3C36.3,22.3,36.7,21.8,36.7,21.3z M22.1,21.3V6c0-0.6-0.4-1-1-1s-1,0.4-1,1  v15.3c0,0.6,0.4,1,1,1S22.1,21.8,22.1,21.3z M51.9,21.3c0-0.6-0.4-1-1-1H43c-0.6,0-1,0.4-1,1s0.4,1,1,1h7.8  C51.4,22.3,51.9,21.8,51.9,21.3z M51.9,35.9v-7.3c0-0.6-0.4-1-1-1H43c-0.6,0-1,0.4-1,1v7.3c0,0.6,0.4,1,1,1s1-0.4,1-1v-6.3h5.8v6.3  c0,0.6,0.4,1,1,1S51.9,36.4,51.9,35.9z M14.8,21.3c0-0.6-0.4-1-1-1H6c-0.6,0-1,0.4-1,1s0.4,1,1,1h7.8C14.4,22.3,14.8,21.8,14.8,21.3  z M29.4,35.9v-7.3c0-0.6-0.4-1-1-1H6c-0.6,0-1,0.4-1,1s0.4,1,1,1h21.4v6.3c0,0.6,0.4,1,1,1S29.4,36.4,29.4,35.9z M22.1,35.9  c0-0.6-0.4-1-1-1H6c-0.6,0-1,0.4-1,1s0.4,1,1,1h15.1C21.7,36.9,22.1,36.4,22.1,35.9z M22.1,50.9v-7.7c0-0.6-0.4-1-1-1s-1,0.4-1,1  v7.7c0,0.6,0.4,1,1,1S22.1,51.4,22.1,50.9z M51.9,50.9c0-0.6-0.4-1-1-1H43c-0.6,0-1,0.4-1,1s0.4,1,1,1h7.8  C51.4,51.9,51.9,51.4,51.9,50.9z M51.9,43.2c0-0.6-0.4-1-1-1H36.7V28.6c0-0.6-0.4-1-1-1s-1,0.4-1,1v14.6c0,0.6,0.4,1,1,1h15.1  C51.4,44.2,51.9,43.7,51.9,43.2z M36.7,50.9c0-0.6-0.4-1-1-1h-6.3v-6.7c0-0.6-0.4-1-1-1s-1,0.4-1,1v7.7c0,0.6,0.4,1,1,1h7.3  C36.3,51.9,36.7,51.4,36.7,50.9z M14.8,50.9v-7.7c0-0.6-0.4-1-1-1H6c-0.6,0-1,0.4-1,1v7.7c0,0.6,0.4,1,1,1h7.8  C14.4,51.9,14.8,51.4,14.8,50.9z M7,44.2h5.8v5.7H7V44.2z M14.8,13.7V6c0-0.6-0.4-1-1-1H6C5.4,5,5,5.4,5,6v7.7c0,0.6,0.4,1,1,1h7.8  C14.4,14.7,14.8,14.2,14.8,13.7z M7,7h5.8v5.7H7V7z M51.9,13.7V6c0-0.6-0.4-1-1-1H43c-0.6,0-1,0.4-1,1v7.7c0,0.6,0.4,1,1,1h7.8  C51.4,14.7,51.9,14.2,51.9,13.7z M44,7h5.8v5.7H44V7z"/><text x="0" y="71.9" fill="#000000" font-size="5px" font-weight="bold" font-family="'Helvetica Neue', Helvetica, Arial-Unicode, Arial, Sans-serif">Created by Erin Smith</text><text x="0" y="76.9" fill="#000000" font-size="5px" font-weight="bold" font-family="'Helvetica Neue', Helvetica, Arial-Unicode, Arial, Sans-serif">from the Noun Project</text></svg>