<svg xmlns="http://www.w3.org/2000/svg" xmlns:xlink="http://www.w3.org/1999/xlink" version="1.1" x="0px" y="0px" viewBox="0 0 100 125" style="enable-background:new 0 0 100 100;" xml:space="preserve"><g><path d="M78.7040176,36.3389015h-3.7919998c-0.5522003,0-1-0.4477997-1-1c0-0.5523033,0.4477997-1,1-1h3.7919998   c0.5522995,0,1,0.4476967,1,1C79.7040176,35.8911018,79.2563171,36.3389015,78.7040176,36.3389015z"/><path d="M69.2236099,36.3389015h-3.7919998c-0.5522919,0-1-0.4477997-1-1c0-0.5523033,0.4477081-1,1-1h3.7919998   c0.5522079,0,1,0.4476967,1,1C70.2236099,35.8911018,69.7758179,36.3389015,69.2236099,36.3389015z"/><path d="M59.7436104,36.3389015h-3.7924957c-0.5522003,0-1-0.4477997-1-1c0-0.5523033,0.4477997-1,1-1h3.7924957   c0.5522041,0,1,0.4476967,1,1C60.7436104,35.8911018,60.2958145,36.3389015,59.7436104,36.3389015z"/><path d="M65.3198166,46.4911995c0-0.5522003,0.4477005-1,1-1h4.0140991c0.5522995,0,1,0.4477997,1,1c0,0.5522995-0.4477005,1-1,1   h-4.0140991C65.7675171,47.4911995,65.3198166,47.043499,65.3198166,46.4911995z"/><path d="M56.2841148,47.4911995c-0.5522003,0-1-0.4477005-1-1c0-0.5522003,0.4477997-1,1-1h4.0142021c0.5522003,0,1,0.4477997,1,1   c0,0.5522995-0.4477997,1-1,1H56.2841148z"/><path d="M75.3554153,46.4911995c0-0.5522003,0.4477997-1,1-1h4.0141983c0.5522003,0,1,0.4477997,1,1c0,0.5522995-0.4477997,1-1,1   h-4.0141983C75.803215,47.4911995,75.3554153,47.043499,75.3554153,46.4911995z"/><path d="M74.4682159,56.6436005h3.7240982c0.5522995,0,1,0.4477005,1,1c0,0.5522003-0.4477005,1-1,1h-3.7240982   c-0.5522995,0-1-0.4477997-1-1C73.4682159,57.091301,73.9159164,56.6436005,74.4682159,56.6436005z"/><path d="M65.1586151,56.6436005h3.7240982c0.5522995,0,1,0.4477005,1,1c0,0.5522003-0.4477005,1-1,1h-3.7240982   c-0.5522003,0-1-0.4477997-1-1C64.1586151,57.091301,64.6064148,56.6436005,65.1586151,56.6436005z"/><path d="M55.8490143,56.6436005h3.7237015c0.5522003,0,1,0.4477005,1,1c0,0.5522003-0.4477997,1-1,1h-3.7237015   c-0.5522003,0-1-0.4477997-1-1C54.8490143,57.091301,55.296814,56.6436005,55.8490143,56.6436005z"/><path d="M10.0136118,34.0112V58.971199c0,6.2048035,4.8439999,11.2868042,10.9473047,11.6949997v3.5565033   c0,1.6991959,2.7402,2.3022003,5.0869007,2.3022003h2.4027939v2.6650009   c-1.0470943,0.1938934-2.0483952,0.6910934-2.8563938,1.4995956c-1.0303001,1.0297012-1.5977001,2.3993988-1.5977001,3.8563995   s0.5674,2.8266983,1.5977001,3.8563995C26.6240158,89.4326019,27.9936123,90,29.4506111,90   c1.4570007,0,2.8267059-0.5673981,3.8565063-1.597702c2.1264-2.1263962,2.1264-5.5863953,0-7.7127991   c-0.8081017-0.8085022-1.8094006-1.3057022-2.8565063-1.4995956v-2.6650009h2.4024048   c2.3465958,0,5.0873985-0.6030045,5.0873985-2.3022003v-3.5565033c3.3443031-0.2237015,6.3105011-1.8432999,8.3078003-4.2930984   c4.0133018,3.4422989,8.9249001,5.584198,14.1399994,6.1960983c-0.0226974,0.0218048-0.0494995,0.0363998-0.0718994,0.0587006   c-1.7538986,1.7538986-1.7538986,4.6074982,0,6.3614044c0.2192001,0.2190933,0.4555016,0.4107971,0.7047005,0.5751953   c-1.6269989,0.885704-2.7467003,2.5904999-2.7467003,4.5698013V89c0,0.5522003,0.4477997,1,1,1h8.4449005   c0.5522003,0,1-0.4477997,1-1v-4.8656998c0-1.9793015-1.1194992-3.6839981-2.7463989-4.5697021   c0.2492981-0.164299,0.4857025-0.3562012,0.7049026-0.5752945c1.7533951-1.7539062,1.7533951-4.6075058,0-6.3614044   c-0.0223007-0.0222015-0.0490036-0.0366974-0.0716019-0.0583954C79.766716,71.024498,90.0136108,59.8100014,90.0136108,46.2411995   c0-10.2326012-5.9237976-19.552-15.1317978-23.9377003v-4.5412998c0-1.6976986-1.3495941-3.078599-3.0083008-3.078599h-7.3764954   V11c0-0.5522003-0.4477997-1-1-1s-1,0.4477997-1,1v3.6836004h-7.3770027c-1.6585999,0-3.0077972,1.3809004-3.0077972,3.078599   v4.5456009c-2.2122002,1.0536995-4.2588997,2.4039993-6.1043015,4.0268993   c-1.4197998-1.6355991-3.2765999-2.8815002-5.3951988-3.536499v-5.2499008c0-1.6346998-1.3301048-2.9647999-2.9653015-2.9647999   h-7.196804V11c0-0.5522003-0.4476948-1-1-1c-0.5521946,0-1,0.4477997-1,1v3.5834999h-7.1967945   c-1.6352043,0-2.9652996,1.3301001-2.9652996,2.9647999v5.2499008C13.5015173,24.2782993,10.0136118,28.7444992,10.0136118,34.0112   z M38.6127167,22.3771c-0.4794006-0.0597992-0.9645004-0.1007004-1.4598999-0.1007004H21.7485161   c-0.4954987,0-0.9805984,0.0409012-1.4599991,0.1007004v-4.8288002c0-0.5321999,0.433094-0.9647999,0.9652996-0.9647999h16.3935986   c0.532196,0,0.9653015,0.4326,0.9653015,0.9647999V22.3771z M72.881813,21.9377003l-18.7695961-0.0230007v-4.1525002   c0-0.5946999,0.452198-1.0785999,1.0077972-1.0785999h16.7534981c0.5560989,0,1.0083008,0.4839001,1.0083008,1.0785999V21.9377003z    M63.4970169,80.9115982c1.7769012,0,3.2221985,1.4458008,3.2221985,3.222702V88h-6.4449005v-3.8656998   C60.2743149,82.357399,61.7201157,80.9115982,63.4970169,80.9115982z M61.7304153,74.0419998   c0.9746017-0.9736023,2.5586014-0.9736023,3.5331955,0c0.9736023,0.9740982,0.9736023,2.5590973,0,3.5332031   c-0.9745941,0.9735947-2.5585938,0.9735947-3.5331955,0C60.7563171,76.6010971,60.7563171,75.016098,61.7304153,74.0419998z    M51.2631149,35.3389015c0-0.5523033-0.4477005-1-1-1h-1.3755035V34.0112c0-2.2168007-0.6291962-4.2842999-1.7016945-6.0548   c1.8499985-1.6522999,3.9165993-3.0179005,6.168499-4.0422993l20.3394012,0.0243988   c4.8470001,2.2192001,8.730896,5.9113998,11.2257004,10.4004021h-0.527504c-0.5522003,0-1,0.4476967-1,1   c0,0.5522003,0.4477997,1,1,1h1.5179977c1.2583008,2.8440971,1.9777069,5.9433975,2.0763016,9.152298h-1.5952988   c-0.5522003,0-1,0.4477997-1,1c0,0.5522995,0.4477997,1,1,1h1.5909042c-0.164505,3.2583008-0.9718018,6.3486023-2.2912064,9.152401   h-1.9124985c-0.5522003,0-1,0.4477005-1,1c0,0.5522003,0.4477997,1,1,1h0.8542023   c-4.2657013,7.2415009-12.1399994,12.1141968-21.1353989,12.1141968c-5.9519005,0-11.6436996-2.1588974-16.1105003-6.0615005   c0.952198-1.6952972,1.5010948-3.6460953,1.5010948-5.7250977v-0.3275986h1.3755035c0.5522995,0,1-0.4477997,1-1   c0-0.5522995-0.4477005-1-1-1h-1.3755035v-9.152401h1.3755035c0.5522995,0,1-0.4477005,1-1c0-0.5522003-0.4477005-1-1-1h-1.3755035   v-9.152298h1.3755035C50.8154144,36.3389015,51.2631149,35.8911018,51.2631149,35.3389015z M29.4506111,81.0917969   c0.922905,0,1.7901058,0.3594055,2.4424057,1.0117035c1.3466988,1.3467026,1.3466988,3.5381012,0,4.8847961   c-1.3047009,1.3047028-3.580101,1.3047028-4.8848,0c-0.6522999-0.6523972-1.0116997-1.5199966-1.0116997-2.4423981   s0.3593998-1.7900009,1.0116997-2.4423981C27.6606121,81.4512024,28.5278168,81.0917969,29.4506111,81.0917969z    M22.9609165,70.7061005h12.9795017v3.277298c-0.3697014,0.2217026-1.4639015,0.5415039-3.0874023,0.5415039h-6.8051987   c-1.6231003,0-2.7178001-0.3198013-3.0869007-0.5410004V70.7061005z M12.0136118,58.6436005h34.8740005v0.3275986   c0,5.3676987-4.3671951,9.7349014-9.7347946,9.7349014H21.7485161c-5.3676987,0-9.7349043-4.3672028-9.7349043-9.7349014   V58.6436005z M12.0136118,47.4911995h34.8740005v9.152401H12.0136118V47.4911995z M12.0136118,36.3389015h34.8740005v9.152298   H12.0136118V36.3389015z M12.0136118,34.0112c0-5.3675995,4.3672056-9.7348003,9.7349043-9.7348003h15.4043007   c5.3675995,0,9.7347946,4.3672009,9.7347946,9.7348003v0.3277016H12.0136118V34.0112z"/></g><text x="0" y="115" fill="#000000" font-size="5px" font-weight="bold" font-family="'Helvetica Neue', Helvetica, Arial-Unicode, Arial, Sans-serif">Created by Made by Made</text><text x="0" y="120" fill="#000000" font-size="5px" font-weight="bold" font-family="'Helvetica Neue', Helvetica, Arial-Unicode, Arial, Sans-serif">from the Noun Project</text></svg>