<svg xmlns="http://www.w3.org/2000/svg" xmlns:xlink="http://www.w3.org/1999/xlink" version="1.1" x="0px" y="0px" viewBox="0 0 100 125" style="enable-background:new 0 0 100 100;" xml:space="preserve"><g><path d="M31.4,72.71c-0.7,0-1.3-0.57-1.3-1.26s0.52-1.26,1.22-1.26h0.08c0.7,0,1.26,0.57,1.26,1.26S32.1,72.71,31.4,72.71z"/><path d="M64.46,72.71h-0.18c-0.7,0-1.26-0.57-1.26-1.26s0.57-1.26,1.26-1.26h0.18c0.7,0,1.26,0.57,1.26,1.26   S65.16,72.71,64.46,72.71z M58.95,72.71h-0.18c-0.7,0-1.26-0.57-1.26-1.26s0.57-1.26,1.26-1.26h0.18c0.7,0,1.26,0.57,1.26,1.26   S59.65,72.71,58.95,72.71z M53.44,72.71h-0.18c-0.7,0-1.26-0.57-1.26-1.26s0.57-1.26,1.26-1.26h0.18c0.7,0,1.26,0.57,1.26,1.26   S54.14,72.71,53.44,72.71z M47.93,72.71h-0.18c-0.7,0-1.26-0.57-1.26-1.26s0.57-1.26,1.26-1.26h0.18c0.7,0,1.26,0.57,1.26,1.26   S48.63,72.71,47.93,72.71z M42.42,72.71h-0.18c-0.7,0-1.26-0.57-1.26-1.26s0.57-1.26,1.26-1.26h0.18c0.7,0,1.26,0.57,1.26,1.26   S43.12,72.71,42.42,72.71z M36.91,72.71h-0.18c-0.7,0-1.26-0.57-1.26-1.26s0.57-1.26,1.26-1.26h0.18c0.7,0,1.26,0.57,1.26,1.26   S37.61,72.71,36.91,72.71z"/><path d="M69.88,72.71c-0.7,0-1.3-0.57-1.3-1.26s0.52-1.26,1.22-1.26h0.08c0.7,0,1.26,0.57,1.26,1.26S70.58,72.71,69.88,72.71z"/></g><path d="M30.1,27.98c-7.23,0-13.11,5.88-13.11,13.11c0,2.64,0.79,5.2,2.27,7.37l9.26,16.04c0.33,0.58,0.93,0.92,1.59,0.92  c0.66,0,1.26-0.34,1.59-0.92l9.28-16.09c1.38-2.56,2.23-4.67,2.23-7.31C43.21,33.87,37.33,27.98,30.1,27.98z M41.47,41.1  c0,2.27-0.77,4.17-2.02,6.49l-9.25,16.05c-0.02,0.04-0.05,0.05-0.09,0.05c-0.03,0-0.06-0.01-0.09-0.05l-9.26-16.05l-0.04-0.07  c-1.3-1.9-1.99-4.12-1.99-6.43c0-6.27,5.1-11.37,11.37-11.37C36.37,29.72,41.47,34.83,41.47,41.1z"/><path d="M29.95,34.97c-3.51,0-6.37,2.86-6.37,6.37s2.86,6.37,6.37,6.37c3.51,0,6.37-2.86,6.37-6.37S33.47,34.97,29.95,34.97z   M29.95,45.7c-2.41,0-4.37-1.96-4.37-4.37s1.96-4.37,4.37-4.37c2.41,0,4.37,1.96,4.37,4.37S32.36,45.7,29.95,45.7z"/><path d="M71.14,27.98c-7.23,0-13.11,5.88-13.11,13.11c0,2.64,0.79,5.2,2.27,7.37l9.26,16.04c0.33,0.58,0.93,0.92,1.59,0.92  c0.66,0,1.26-0.34,1.59-0.92l9.28-16.09c1.38-2.56,2.23-4.67,2.23-7.31C84.26,33.87,78.37,27.98,71.14,27.98z M82.52,41.1  c0,2.27-0.77,4.17-2.02,6.49l-9.25,16.05c-0.02,0.04-0.05,0.05-0.09,0.05c-0.03,0-0.06-0.01-0.09-0.05L61.8,47.59l-0.04-0.07  c-1.3-1.9-1.99-4.12-1.99-6.43c0-6.27,5.1-11.37,11.37-11.37C77.41,29.72,82.52,34.83,82.52,41.1z"/><path d="M71,34.97c-3.51,0-6.37,2.86-6.37,6.37s2.86,6.37,6.37,6.37s6.37-2.86,6.37-6.37S74.51,34.97,71,34.97z M71,45.7  c-2.41,0-4.37-1.96-4.37-4.37s1.96-4.37,4.37-4.37c2.41,0,4.37,1.96,4.37,4.37S73.41,45.7,71,45.7z"/><text x="0" y="115" fill="#000000" font-size="5px" font-weight="bold" font-family="'Helvetica Neue', Helvetica, Arial-Unicode, Arial, Sans-serif">Created by Megan Chown</text><text x="0" y="120" fill="#000000" font-size="5px" font-weight="bold" font-family="'Helvetica Neue', Helvetica, Arial-Unicode, Arial, Sans-serif">from the Noun Project</text></svg>