<svg xmlns="http://www.w3.org/2000/svg" xmlns:xlink="http://www.w3.org/1999/xlink" version="1.1" x="0px" y="0px" viewBox="0 0 64 80" enable-background="new 0 0 64 64" xml:space="preserve"><g><g><path d="M57.456,15.029L48.97,6.544c-0.47-0.47-1.14-0.677-1.792-0.55c-0.652,0.125-1.199,0.566-1.46,1.176l-3.079,7.184    l-2.153-2.153c-1.133-1.134-2.641-1.758-4.243-1.758s-3.11,0.624-4.243,1.758L12.2,32c-2.338,2.34-2.338,6.146,0,8.485    l2.153,2.153l-7.184,3.08c-0.61,0.261-1.05,0.808-1.176,1.46c-0.125,0.651,0.081,1.323,0.55,1.792l8.485,8.485    c0.378,0.379,0.889,0.586,1.414,0.586c0.125,0,0.252-0.012,0.378-0.036c0.651-0.125,1.198-0.566,1.46-1.176l3.079-7.185    l2.153,2.153c1.133,1.133,2.64,1.757,4.243,1.757s3.109-0.624,4.242-1.757L51.798,32c1.134-1.133,1.758-2.64,1.758-4.243    s-0.624-3.11-1.758-4.242l-2.153-2.153l7.186-3.08c0.609-0.262,1.051-0.809,1.176-1.46C58.132,16.17,57.926,15.499,57.456,15.029z     M38.241,36.242c0,1.104-0.896,2-2,2h-8c-3.308,0-6-2.691-6-5.999c0-2.702,1.795-4.993,4.255-5.742    c0.282-0.935,0.792-1.792,1.502-2.501c1.134-1.133,2.641-1.757,4.244-1.757c3.308,0,5.998,2.691,5.998,6V36.242z"/><path d="M32.243,26.242c-0.535,0-1.038,0.208-1.416,0.586c-0.377,0.377-0.585,0.879-0.585,1.414c0,0.531-0.21,1.04-0.585,1.415    c-0.375,0.375-0.884,0.586-1.415,0.586c-1.103,0-2,0.897-2,2.001c0,1.103,0.897,1.999,2,1.999h6v-6    C34.241,27.139,33.345,26.242,32.243,26.242z"/></g></g><text x="0" y="79" fill="#000000" font-size="5px" font-weight="bold" font-family="'Helvetica Neue', Helvetica, Arial-Unicode, Arial, Sans-serif">Created by Ralf Schmitzer</text><text x="0" y="84" fill="#000000" font-size="5px" font-weight="bold" font-family="'Helvetica Neue', Helvetica, Arial-Unicode, Arial, Sans-serif">from the Noun Project</text></svg>