<svg xmlns:dc="http://purl.org/dc/elements/1.1/" xmlns:cc="http://creativecommons.org/ns#" xmlns:rdf="http://www.w3.org/1999/02/22-rdf-syntax-ns#" xmlns:svg="http://www.w3.org/2000/svg" xmlns="http://www.w3.org/2000/svg" xmlns:sodipodi="http://sodipodi.sourceforge.net/DTD/sodipodi-0.dtd" xmlns:inkscape="http://www.inkscape.org/namespaces/inkscape" version="1.1" x="0px" y="0px" viewBox="0 0 792.75391 943.1003625" enable-background="new 0 0 2000 2000" xml:space="preserve"><path style="" d="m 724.95572,0.00927786 c -3.071,0.07 -6.178,0.61 -9.231,1.64700004 -161.871,54.7980001 -272.728,201.4960021 -281.209,369.0440021 l -39.426,-39.408 c -12.222,-12.222 -31.975,-12.222 -44.197,0 -12.222,12.221 -12.222,31.977 0,44.198 l 94.803,94.771 c 5.844,5.876 13.845,9.157 22.098,9.157 8.283,0 16.222,-3.281 22.097,-9.157 l 94.74,-94.771 c 12.222,-12.221 12.222,-31.977 0,-44.198 -12.221,-12.222 -31.976,-12.222 -44.197,0 l -43.502,43.523 c 6.821,-142.431 101.057,-267.281 238.826,-313.927002 16.348,-5.533 25.165,-23.318 19.6,-39.634 -4.47,-13.2830001 -17.091,-21.57100014 -30.402,-21.24500014 z M 32.633678,98.115278 c -18.129,-0.343 -31.88199991,12.628002 -32.60099991,29.851002 -0.782,17.254 12.56599991,31.85 29.85099991,32.6 l 97.053002,4.252 23.315,85.129 c 0.172,1.817 0.505,3.633 1.003,5.423 l 67.979,246.44001 11.975,43.718 c 2.389,8.607 8.165,15.381 15.485,19.283 0.738,0.394 1.49,0.76 2.258,1.094 0.749,0.326 1.512,0.622 2.286,0.889 0.02,0.01 0.04,0.02 0.07,0.02 0,0 0,0 0,0 0.742,0.253 1.495,0.475 2.255,0.672 0.06,0.02 0.119,0.04 0.181,0.05 0.604,0.154 1.22,0.269 1.835,0.386 0.23,0.04 0.455,0.106 0.687,0.145 0.743,0.124 1.494,0.212 2.246,0.282 0.09,0.01 0.188,0.03 0.282,0.03 0,0 0,0 0,0 0.854,0.07 1.711,0.109 2.577,0.109 0,0 0.02,0 0.03,0 l 420.06404,0 c 14.097,0 26.413,-9.409 30.133,-22.943 l 80.048,-290.18901 c 2.563,-9.409 0.626,-19.474 -5.249,-27.226 -5.941,-7.783 -15.132,-12.348 -24.914,-12.348 l -163.598,0 c -17.285,0 -31.257,13.972 -31.257,31.257 0,17.285 13.972,31.257 31.257,31.257 l 122.587,0 -62.826,227.67801 -372.40304,0 -62.368,-227.67801 177.08804,0 c 17.285,0 31.257,-13.972 31.257,-31.257 0,-17.285 -13.972,-31.257 -31.257,-31.257 l -194.21204,0 -24.522,-89.518 c -3.595,-13.097 -15.192,-22.349 -28.757,-22.943 L 32.633678,98.101278 Z M 335.98272,582.56629 c -47.38504,0 -85.95804,38.54 -85.95804,85.957 0,47.416 38.573,85.957 85.95804,85.957 47.449,0 85.958,-38.541 85.958,-85.957 0,-47.417 -38.509,-85.957 -85.958,-85.957 z m 260.497,0 c -47.388,0 -85.958,38.54 -85.958,85.957 0,47.416 38.57,85.957 85.958,85.957 47.447,0 85.955,-38.541 85.955,-85.957 0,-47.417 -38.508,-85.957 -85.955,-85.957 z m -260.497,62.516 c 12.94,0 23.444,10.531 23.444,23.441 0,12.909 -10.504,23.443 -23.444,23.443 -12.87704,0 -23.44304,-10.534 -23.44304,-23.443 0,-12.91 10.566,-23.441 23.44304,-23.441 z m 260.497,0 c 12.939,0 23.44,10.531 23.44,23.441 0,12.909 -10.501,23.443 -23.44,23.443 -12.879,0 -23.443,-10.534 -23.443,-23.443 0,-12.91 10.564,-23.441 23.443,-23.441 z" fill="#000000"/><text x="0" y="769.48029" fill="#000000" font-size="5px" font-weight="bold" font-family="'Helvetica Neue', Helvetica, Arial-Unicode, Arial, Sans-serif">Created by logan</text><text x="0" y="774.48029" fill="#000000" font-size="5px" font-weight="bold" font-family="'Helvetica Neue', Helvetica, Arial-Unicode, Arial, Sans-serif">from the Noun Project</text></svg>