<svg xmlns="http://www.w3.org/2000/svg" xmlns:xlink="http://www.w3.org/1999/xlink" version="1.1" x="0px" y="0px" viewBox="0 0 46 67.5" style="enable-background:new 0 0 46 54;" xml:space="preserve"><g><path style="" d="M3,14h8c1.654,0,3-1.346,3-3V3c0-1.654-1.346-3-3-3H3C1.346,0,0,1.346,0,3v8C0,12.654,1.346,14,3,14   z M2,3c0-0.551,0.449-1,1-1h8c0.551,0,1,0.449,1,1v8c0,0.551-0.449,1-1,1H3c-0.551,0-1-0.449-1-1V3z" fill="#231F20"/><path style="" d="M13,26c-0.552,0-1,0.448-1,1v4c0,0.551-0.449,1-1,1H3c-0.551,0-1-0.449-1-1v-8c0-0.551,0.449-1,1-1   h5.5c0.552,0,1-0.448,1-1s-0.448-1-1-1H3c-1.654,0-3,1.346-3,3v8c0,1.654,1.346,3,3,3h8c1.654,0,3-1.346,3-3v-4   C14,26.448,13.552,26,13,26z" fill="#231F20"/><path style="" d="M11,40H3c-1.654,0-3,1.346-3,3v8c0,1.654,1.346,3,3,3h8c1.654,0,3-1.346,3-3v-8   C14,41.346,12.654,40,11,40z M12,51c0,0.551-0.449,1-1,1H3c-0.551,0-1-0.449-1-1v-8c0-0.551,0.449-1,1-1h8c0.551,0,1,0.449,1,1V51z   " fill="#231F20"/><path style="" d="M19.5,3H33c0.553,0,1-0.448,1-1s-0.447-1-1-1H19.5c-0.552,0-1,0.448-1,1S18.948,3,19.5,3z" fill="#231F20"/><path style="" d="M19.5,8H45c0.553,0,1-0.448,1-1s-0.447-1-1-1H19.5c-0.552,0-1,0.448-1,1S18.948,8,19.5,8z" fill="#231F20"/><path style="" d="M19.5,13H41c0.553,0,1-0.448,1-1s-0.447-1-1-1H19.5c-0.552,0-1,0.448-1,1S18.948,13,19.5,13z" fill="#231F20"/><path style="" d="M19.5,23H33c0.553,0,1-0.448,1-1s-0.447-1-1-1H19.5c-0.552,0-1,0.448-1,1S18.948,23,19.5,23z" fill="#231F20"/><path style="" d="M45,26H19.5c-0.552,0-1,0.448-1,1s0.448,1,1,1H45c0.553,0,1-0.448,1-1S45.553,26,45,26z" fill="#231F20"/><path style="" d="M19.5,33H41c0.553,0,1-0.448,1-1s-0.447-1-1-1H19.5c-0.552,0-1,0.448-1,1S18.948,33,19.5,33z" fill="#231F20"/><path style="" d="M19.5,43H33c0.553,0,1-0.448,1-1s-0.447-1-1-1H19.5c-0.552,0-1,0.448-1,1S18.948,43,19.5,43z" fill="#231F20"/><path style="" d="M45,46H19.5c-0.552,0-1,0.448-1,1s0.448,1,1,1H45c0.553,0,1-0.448,1-1S45.553,46,45,46z" fill="#231F20"/><path style="" d="M41,51H19.5c-0.552,0-1,0.448-1,1s0.448,1,1,1H41c0.553,0,1-0.448,1-1S41.553,51,41,51z" fill="#231F20"/><path style="" d="M16.293,17.293L6.5,27.086l-1.793-1.793c-0.391-0.391-1.023-0.391-1.414,0   c-0.391,0.391-0.391,1.023,0,1.414l2.5,2.5C5.988,29.402,6.244,29.5,6.5,29.5c0.256,0,0.512-0.098,0.707-0.293l10.5-10.5   c0.391-0.391,0.391-1.023,0-1.414C17.316,16.902,16.684,16.902,16.293,17.293z" fill="#231F20"/></g><text x="0" y="69" fill="#000000" font-size="5px" font-weight="bold" font-family="'Helvetica Neue', Helvetica, Arial-Unicode, Arial, Sans-serif">Created by Unlimiticon</text><text x="0" y="74" fill="#000000" font-size="5px" font-weight="bold" font-family="'Helvetica Neue', Helvetica, Arial-Unicode, Arial, Sans-serif">from the Noun Project</text></svg>