<svg xmlns="http://www.w3.org/2000/svg" xmlns:xlink="http://www.w3.org/1999/xlink" version="1.1" x="0px" y="0px" viewBox="0 0 24 30" style="enable-background:new 0 0 24 24;" xml:space="preserve"><g><g><path d="M12,0C5.383,0,0,5.383,0,12c0,6.617,5.383,12,12,12c6.617,0,12-5.383,12-12C24,5.383,18.617,0,12,0z M12,22    C6.486,22,2,17.514,2,12C2,6.486,6.486,2,12,2c5.514,0,10,4.486,10,10C22,17.514,17.514,22,12,22z"/><path d="M18.142,7.01c-0.543-0.078-1.053,0.301-1.133,0.847C16.937,8.36,16.503,8.739,16,8.739c-0.504,0-0.938-0.379-1.01-0.882    c-0.079-0.546-0.585-0.93-1.133-0.847c-0.547,0.079-0.926,0.586-0.848,1.132c0.214,1.48,1.499,2.597,2.99,2.597    c1.49,0,2.775-1.116,2.989-2.597C19.067,7.596,18.688,7.089,18.142,7.01z"/><path d="M10.989,8.143c0.079-0.546-0.3-1.054-0.847-1.132c-0.541-0.076-1.053,0.3-1.132,0.847C8.936,8.368,8.511,8.739,8,8.739    c-0.503,0-0.937-0.379-1.01-0.882C6.911,7.311,6.404,6.936,5.857,7.01C5.311,7.089,4.932,7.596,5.01,8.143    C5.224,9.623,6.509,10.739,8,10.739S10.775,9.623,10.989,8.143z"/><path d="M14.552,14H9.449c-0.46,0-0.897,0.229-1.17,0.615c-0.285,0.403-0.356,0.923-0.191,1.39C8.761,17.908,10.196,19,12.024,19    c1.861,0,3.283-1.107,3.903-3.039c0.148-0.463,0.066-0.973-0.219-1.364C15.436,14.223,15.003,14,14.552,14z"/></g></g><text x="0" y="39" fill="#000000" font-size="5px" font-weight="bold" font-family="'Helvetica Neue', Helvetica, Arial-Unicode, Arial, Sans-serif">Created by ✦ Shmidt Sergey ✦</text><text x="0" y="44" fill="#000000" font-size="5px" font-weight="bold" font-family="'Helvetica Neue', Helvetica, Arial-Unicode, Arial, Sans-serif">from the Noun Project</text></svg>