<svg xmlns="http://www.w3.org/2000/svg" xmlns:xlink="http://www.w3.org/1999/xlink" version="1.1" x="0px" y="0px" viewBox="0 0 100 125" enable-background="new 0 0 100 100" xml:space="preserve"><g><g><path fill="#000000" d="M91.289,50.5c-0.358,23.023-18.727,41.391-41.75,41.75c-23.025,0.358-41.4-19.266-41.75-41.75    c-0.358-23.025,19.266-41.4,41.75-41.75C72.564,8.392,90.939,28.017,91.289,50.5c0.045,2.899,4.545,2.904,4.5,0    c-0.337-21.607-15.05-40.143-36.125-45.136c-21.066-4.99-42.896,6.426-52.079,25.668c-9.117,19.104-3.17,43.151,13.589,55.975    c17.393,13.31,41.312,12.553,58.193-1.172C89.911,77.265,95.58,63.911,95.789,50.5C95.834,47.597,91.334,47.602,91.289,50.5z"/></g></g><g><g><path fill="#000000" d="M58.166,38.25c6.777,0,13.556,0,20.334,0c2.901,0,2.901-4.5,0-4.5c-6.778,0-13.557,0-20.334,0    C55.264,33.75,55.264,38.25,58.166,38.25L58.166,38.25z"/></g></g><line fill="#000000" stroke="#231F20" stroke-width="9" x1="68.333" y1="54.333" x2="68.333" y2="37.333"/><g><g><path fill="#000000" d="M20.833,38.917c6.778,0,13.556,0,20.334,0c2.902,0,2.902-4.5,0-4.5c-6.778,0-13.556,0-20.334,0    C17.931,34.417,17.931,38.917,20.833,38.917L20.833,38.917z"/></g></g><line fill="#000000" stroke="#231F20" stroke-width="9" x1="31" y1="55" x2="31" y2="38"/><g><g><path fill="#000000" d="M40.609,74.285c0.938-1.26,3.178-3.253,4.915-4.361c5.903-3.765,11.133-0.014,14.885,4.816    c1.778,2.29,4.938-0.92,3.182-3.182c-4.341-5.589-10.238-9.353-17.394-6.929c-3.78,1.28-7.116,4.219-9.474,7.384    C34.988,74.344,38.897,76.584,40.609,74.285L40.609,74.285z"/></g></g><text x="0" y="115" fill="#000000" font-size="5px" font-weight="bold" font-family="'Helvetica Neue', Helvetica, Arial-Unicode, Arial, Sans-serif">Created by Por Suppasit</text><text x="0" y="120" fill="#000000" font-size="5px" font-weight="bold" font-family="'Helvetica Neue', Helvetica, Arial-Unicode, Arial, Sans-serif">from the Noun Project</text></svg>