<svg xmlns="http://www.w3.org/2000/svg" xmlns:xlink="http://www.w3.org/1999/xlink" version="1.1" x="0px" y="0px" viewBox="0 0 100 125" enable-background="new 0 0 100 100" xml:space="preserve"><title>Black-Pirate-Scared</title><desc>Created with Sketch.</desc><path d="M50,5C25.147,5,5,25.147,5,50c0,24.854,20.147,45,45,45c24.854,0,45-20.146,45-45C95,25.147,74.854,5,50,5z M33,50  c-3.313,0-6-2.686-6-6s2.687-6,6-6s6,2.686,6,6S36.313,50,33,50z M39,72c0-6.075,4.925-11,11-11s11,4.925,11,11H39z M73,44  c0,3.314-2.687,6-6,6s-6-2.686-6-6v-6h12V44z"/><text x="0" y="115" fill="#000000" font-size="5px" font-weight="bold" font-family="'Helvetica Neue', Helvetica, Arial-Unicode, Arial, Sans-serif">Created by stefan wetterstrand.</text><text x="0" y="120" fill="#000000" font-size="5px" font-weight="bold" font-family="'Helvetica Neue', Helvetica, Arial-Unicode, Arial, Sans-serif">from the Noun Project</text></svg>