<svg xmlns="http://www.w3.org/2000/svg" xmlns:xlink="http://www.w3.org/1999/xlink" version="1.1" x="0px" y="0px" viewBox="0 0 100 125" style="enable-background:new 0 0 100 100;" xml:space="preserve"><g><g><path d="M50,5C25.1,5,5,25.1,5,50c0,24.9,20.1,45,45,45c24.9,0,45-20.1,45-45C95,25.1,74.9,5,50,5z M65.2,65.1L51.8,78.3    c-0.6,0.6-1.3,0.9-2.1,0.9c-0.4,0-0.8-0.1-1.2-0.2c-1.1-0.5-1.8-1.6-1.8-2.8V65.9c0-1.7,1.3-3,3-3s3,1.3,3,3V69l6.2-6.1l-9.2-9    L38.3,65c-0.6,0.6-1.3,0.9-2.1,0.9c-0.8,0-1.6-0.3-2.1-0.9c-1.2-1.2-1.1-3.1,0-4.2l11.2-11L34.2,38.8c-1.2-1.2-1.2-3.1,0-4.2    c1.2-1.2,3.1-1.2,4.2,0l11.3,11l8.8-8.6l-5.8-5.6v2.4c0,1.7-1.3,3-3,3s-3-1.3-3-3v-9.5c0-1.2,0.7-2.3,1.8-2.8    c1.1-0.5,2.4-0.2,3.3,0.6l13,12.8c0.6,0.6,0.9,1.3,0.9,2.1s-0.3,1.6-0.9,2.1L53.9,49.8l11.3,11.1c0.6,0.6,0.9,1.3,0.9,2.1    S65.8,64.5,65.2,65.1z"/></g></g><text x="0" y="115" fill="#000000" font-size="5px" font-weight="bold" font-family="'Helvetica Neue', Helvetica, Arial-Unicode, Arial, Sans-serif">Created by Viktor Vorobyev</text><text x="0" y="120" fill="#000000" font-size="5px" font-weight="bold" font-family="'Helvetica Neue', Helvetica, Arial-Unicode, Arial, Sans-serif">from the Noun Project</text></svg>