<svg xmlns="http://www.w3.org/2000/svg" viewBox="0 0 48.16 90.5875" x="0px" y="0px"><title>accolade</title><g data-name="Calque 2"><g><path d="M11,1l-.42.31A9.07,9.07,0,0,0,8.48,3.86l-.14.27a10.06,10.06,0,0,0-.86,3.31c-.07.8-.16,1.71-.16,2.73V25.25a9.27,9.27,0,0,1-.55,3.48,7.53,7.53,0,0,1-1.34,2.21l-.11.11a5.79,5.79,0,0,1-1.19,1l-.23.05C0,33.06-.09,35.58,0,36.62c.15,1.32.92,3,3.8,3.52l.33.06a3.33,3.33,0,0,1,1.18.91l.21.22a6.12,6.12,0,0,1,1.2,2.12,10.48,10.48,0,0,1,.58,3.83V62.21c0,1,.08,2,.16,2.81a10.21,10.21,0,0,0,.86,3.24l.14.28a9.05,9.05,0,0,0,2.06,2.52l.42.31A7.53,7.53,0,0,0,15,72.47h4.62v-7H14.81l-.14-.2a3.12,3.12,0,0,1-.22-.87c-.06-.68-.13-1.46-.13-2.17V47.29a16.92,16.92,0,0,0-1.1-6.49,12.31,12.31,0,0,0-2.83-4.51l-.19-.2.23-.25a14.51,14.51,0,0,0,2.76-4.33,16.13,16.13,0,0,0,1.13-6.26V10.18c0-.7.06-1.38.13-2.12a3.09,3.09,0,0,1,.21-.92L14.76,7h4.88V0H15A7.45,7.45,0,0,0,11,1Z"/><path d="M44.25,32.15,44,32.09a5.73,5.73,0,0,1-1.19-1l-.11-.11a7.28,7.28,0,0,1-1.31-2.15,9.28,9.28,0,0,1-.58-3.55V10.18c0-1-.08-1.93-.15-2.71a10.16,10.16,0,0,0-.86-3.33l-.14-.28a9.07,9.07,0,0,0-2.06-2.52L37.2,1a7.45,7.45,0,0,0-4.06-1H28.52V7H33.4l.09.13a3.2,3.2,0,0,1,.22,1c.07.72.13,1.4.13,2.1V25.25A16.16,16.16,0,0,0,35,31.58a14.4,14.4,0,0,0,2.73,4.26l.23.25-.19.2A12.23,12.23,0,0,0,35,40.74a17,17,0,0,0-1.13,6.55V62.21c0,.71-.06,1.46-.13,2.17a3.14,3.14,0,0,1-.22.88l-.14.2H28.52v7h4.62a7.53,7.53,0,0,0,4.06-1.1l.42-.31a9.05,9.05,0,0,0,2.07-2.52l.14-.28A10.25,10.25,0,0,0,40.68,65c.08-.83.16-1.81.16-2.81V47.29a10.49,10.49,0,0,1,.6-3.89,6,6,0,0,1,1.18-2.06l.21-.22A3.44,3.44,0,0,1,44,40.21l.32-.06c2.87-.53,3.65-2.2,3.8-3.52C48.25,35.58,48.11,33.05,44.25,32.15Z"/></g></g><text x="0" y="87.47" fill="#000000" font-size="5px" font-weight="bold" font-family="'Helvetica Neue', Helvetica, Arial-Unicode, Arial, Sans-serif">Created by Tanguy Keryhuel</text><text x="0" y="92.47" fill="#000000" font-size="5px" font-weight="bold" font-family="'Helvetica Neue', Helvetica, Arial-Unicode, Arial, Sans-serif">from the Noun Project</text></svg>