<svg xmlns="http://www.w3.org/2000/svg" data-name="Layer 1" viewBox="0 0 100 125" x="0px" y="0px"><title>67 all</title><path d="M93,74V53a3,3,0,1,0-6,0V74a9,9,0,0,1-9,9H22a9,9,0,0,1-9-9V53a3,3,0,0,0-6,0V74A15,15,0,0,0,22,89H78A15,15,0,0,0,93,74Z"/><path d="M50,7a3,3,0,0,0-3,3V29H37.17l13,13,13-13H53V10A3,3,0,0,0,50,7Z"/><path d="M94.35,40a3,3,0,0,0-3-3H74.65A8.66,8.66,0,0,0,66,45.65V58H56L69,71,82,58H72V45.65A2.65,2.65,0,0,1,74.65,43h16.7A3,3,0,0,0,94.35,40Z"/><path d="M6,40a3,3,0,0,0,3,3H26.7a2.65,2.65,0,0,1,2.65,2.65V58h-10l13,13,13-13h-10V45.65A8.66,8.66,0,0,0,26.7,37H9A3,3,0,0,0,6,40Z"/><text x="0" y="115" fill="#000000" font-size="5px" font-weight="bold" font-family="'Helvetica Neue', Helvetica, Arial-Unicode, Arial, Sans-serif">Created by shaurya</text><text x="0" y="120" fill="#000000" font-size="5px" font-weight="bold" font-family="'Helvetica Neue', Helvetica, Arial-Unicode, Arial, Sans-serif">from the Noun Project</text></svg>