<svg xmlns="http://www.w3.org/2000/svg" xmlns:xlink="http://www.w3.org/1999/xlink" version="1.1" x="0px" y="0px" viewBox="0 0 65 81.25" enable-background="new 0 0 65 65" xml:space="preserve"><g><path d="M61.7,50.6V16.4c0-2.1-1.7-3.7-3.8-3.7H44.9c-3.2-3.1-7.4-5-12.1-5.1c-4.9-0.1-9.6,1.8-13,5.1H7c-2.1,0-3.8,1.7-3.8,3.7   v34.3h-3.5v3l2.8,3.9h60l2.8-3.9v-3H61.7z M4.8,16.4c0-1.2,1-2.2,2.3-2.2h11.4c-1.4,1.7-2.6,3.7-3.3,5.9l1.4,0.5   c2.2-7,8.9-11.7,16.2-11.5c7.4,0.2,13.8,5.4,15.6,12.5l-4.6,0l5.5,7.2l5.5-7.2l-4.9,0c-0.6-2.8-1.9-5.3-3.7-7.4H58   c1.2,0,2.3,1,2.3,2.2v34.3H4.8V16.4z M51.8,23l-2.5,3.3L46.8,23L51.8,23z M63.7,53.1l-2,2.8H3.3l-2-2.8v-1h62.5V53.1z"/><path d="M23,28.2c0.2,0.8,0.5,1.5,0.9,2.2l-1.3,2l2.9,2.9l2-1.4c0.7,0.4,1.4,0.7,2.2,0.9l0.4,2.3l4.1,0l0.4-2.3   c0.8-0.2,1.5-0.5,2.2-0.9l2,1.3l2.9-2.9l-1.4-2c0.4-0.7,0.7-1.4,0.9-2.2l2.3-0.4l0-4.1l-2.3-0.4c-0.2-0.8-0.5-1.5-0.9-2.2l1.3-2   l-2.9-2.9l-2,1.4c-0.7-0.4-1.4-0.7-2.2-0.9l-0.4-2.3l-4.1,0l-0.4,2.3c-0.8,0.2-1.5,0.5-2.2,0.9l-2-1.3L22.5,19l1.4,2   c-0.4,0.7-0.7,1.4-0.9,2.2l-2.3,0.4l0,4.1L23,28.2z M24.3,24.5l0.1-0.5c0.2-0.9,0.6-1.8,1.1-2.6l0.3-0.4l-1.2-1.7l1.1-1.1l1.8,1.2   l0.4-0.3c0.8-0.5,1.7-0.9,2.6-1.1l0.5-0.1l0.4-2.1l1.6,0l0.4,2.1l0.5,0.1c0.9,0.2,1.8,0.6,2.6,1.1l0.4,0.3l1.7-1.2l1.1,1.1   l-1.2,1.8l0.3,0.4c0.5,0.8,0.9,1.7,1.1,2.6l0.1,0.5l2.1,0.4l0,1.6L40,26.8l-0.1,0.5c-0.2,1-0.6,1.8-1.1,2.6l-0.3,0.4l1.2,1.7   l-1.1,1.1L36.9,32l-0.4,0.3c-0.8,0.5-1.7,0.9-2.6,1.1l-0.5,0.1L33,35.6l-1.6,0L31,33.5l-0.5-0.1c-0.9-0.2-1.8-0.6-2.6-1.1L27.4,32   l-1.7,1.2l-1.1-1.1l1.2-1.8L25.5,30c-0.5-0.8-0.9-1.7-1.1-2.6l-0.1-0.5l-2.1-0.4l0-1.6L24.3,24.5z"/><path d="M32.1,30.8L32.1,30.8c2.9,0,5.2-2.4,5.2-5.2c0-2.8-2.3-5.2-5.2-5.2c-2.9,0-5.2,2.4-5.2,5.2C27,28.5,29.3,30.8,32.1,30.8z    M32.1,22c2,0,3.7,1.6,3.7,3.7c0,2-1.6,3.7-3.7,3.7l0,0.8v-0.8c-2,0-3.7-1.6-3.7-3.7C28.4,23.6,30.1,22,32.1,22z"/><path d="M32.2,42.2c-7.4-0.2-13.8-5.4-15.6-12.5l4.6,0l-5.5-7.2l-5.5,7.2l4.9,0c1.8,7.9,8.9,13.8,17.1,14c0.2,0,0.3,0,0.5,0   c7.8,0,14.8-5.1,17.2-12.5l-1.4-0.5C46.2,37.6,39.6,42.4,32.2,42.2z M15.7,24.9l2.5,3.2l-5,0L15.7,24.9z"/></g><text x="0" y="80" fill="#000000" font-size="5px" font-weight="bold" font-family="'Helvetica Neue', Helvetica, Arial-Unicode, Arial, Sans-serif">Created by Creative Stall</text><text x="0" y="85" fill="#000000" font-size="5px" font-weight="bold" font-family="'Helvetica Neue', Helvetica, Arial-Unicode, Arial, Sans-serif">from the Noun Project</text></svg>