<svg xmlns="http://www.w3.org/2000/svg" xmlns:xlink="http://www.w3.org/1999/xlink" version="1.1" x="0px" y="0px" viewBox="0 0 100 125" enable-background="new 0 0 100 100" xml:space="preserve"><g><g><path d="M211.229,4.937c10.265,0,18.616,8.351,18.616,18.616v52.894c0,10.265-8.351,18.616-18.616,18.616h-52.894    c-10.265,0-18.616-8.351-18.616-18.616V23.553c0-10.265,8.351-18.616,18.616-18.616H211.229 M211.229,1.937h-52.894    c-11.938,0-21.616,9.678-21.616,21.616v52.894c0,11.938,9.678,21.616,21.616,21.616h52.894c11.938,0,21.616-9.678,21.616-21.616    V23.553C232.845,11.615,223.167,1.937,211.229,1.937L211.229,1.937z"/></g><line fill="none" stroke="#000000" stroke-width="0.25" stroke-miterlimit="10" x1="136.032" y1="98.75" x2="233.532" y2="1.25"/><line fill="none" stroke="#000000" stroke-width="0.25" stroke-miterlimit="10" x1="136.032" y1="1.25" x2="233.532" y2="98.75"/><g><line fill="none" stroke="#000000" stroke-width="0.25" stroke-miterlimit="10" x1="137.641" y1="67.75" x2="231.923" y2="67.75"/><line fill="none" stroke="#000000" stroke-width="0.25" stroke-miterlimit="10" x1="137.641" y1="50" x2="231.923" y2="50"/><line fill="none" stroke="#000000" stroke-width="0.25" stroke-miterlimit="10" x1="137.641" y1="32.25" x2="231.923" y2="32.25"/></g><g><line fill="none" stroke="#000000" stroke-width="0.25" stroke-miterlimit="10" x1="202.532" y1="97.141" x2="202.532" y2="2.859"/><line fill="none" stroke="#000000" stroke-width="0.25" stroke-miterlimit="10" x1="184.782" y1="97.141" x2="184.782" y2="2.859"/><line fill="none" stroke="#000000" stroke-width="0.25" stroke-miterlimit="10" x1="167.032" y1="97.141" x2="167.032" y2="2.859"/></g><g><line fill="none" stroke="#000000" stroke-width="0.25" stroke-miterlimit="10" x1="226.532" y1="98.063" x2="226.532" y2="1.937"/><line fill="none" stroke="#000000" stroke-width="0.25" stroke-miterlimit="10" x1="143.032" y1="98.063" x2="143.032" y2="1.937"/></g><g><line fill="none" stroke="#000000" stroke-width="0.25" stroke-miterlimit="10" x1="232.845" y1="8.25" x2="136.719" y2="8.25"/><line fill="none" stroke="#000000" stroke-width="0.25" stroke-miterlimit="10" x1="232.845" y1="91.75" x2="136.719" y2="91.75"/></g><circle fill="none" stroke="#000000" stroke-width="0.25" stroke-miterlimit="10" cx="184.782" cy="50" r="41.7"/><circle fill="none" stroke="#000000" stroke-width="0.25" stroke-miterlimit="10" cx="184.782" cy="50" r="25.162"/><circle fill="none" stroke="#000000" stroke-width="0.25" stroke-miterlimit="10" cx="184.782" cy="50" r="17.75"/></g><g><path d="M74.404,7.495c9.981,0,18.101,8.12,18.101,18.101v48.808c0,9.981-8.12,18.101-18.101,18.101H25.596   c-9.981,0-18.101-8.12-18.101-18.101V25.596c0-9.981,8.12-18.101,18.101-18.101H74.404 M74.404,5.65H25.596   C14.58,5.65,5.65,14.58,5.65,25.596v48.808c0,11.016,8.93,19.946,19.946,19.946h48.808c11.016,0,19.946-8.93,19.946-19.946V25.596   C94.35,14.58,85.42,5.65,74.404,5.65L74.404,5.65z"/></g><g><rect x="49.861" y="-13.501" transform="matrix(0.7055 0.7087 -0.7087 0.7055 50.1624 -20.7102)" width="0.277" height="127.002"/></g><g><rect x="-13.502" y="49.862" transform="matrix(0.7071 0.7071 -0.7071 0.7071 50.0002 -20.7104)" width="127.003" height="0.276"/></g><g><g><rect x="6.58" y="66.21" width="86.84" height="0.277"/></g><g><rect x="6.58" y="49.862" width="86.84" height="0.276"/></g><g><rect x="6.58" y="33.513" width="86.84" height="0.276"/></g></g><g><g><rect x="66.21" y="6.58" width="0.277" height="86.84"/></g><g><rect x="49.861" y="6.58" width="0.277" height="86.84"/></g><g><rect x="33.512" y="6.58" width="0.277" height="86.84"/></g></g><g><g><rect x="88.316" y="5.73" width="0.277" height="88.539"/></g><g><rect x="11.407" y="5.73" width="0.277" height="88.539"/></g></g><g><g><rect x="5.73" y="11.407" width="88.539" height="0.276"/></g><g><rect x="5.73" y="88.316" width="88.539" height="0.277"/></g></g><g><path d="M50,88.547c-21.255,0-38.547-17.293-38.547-38.547S28.745,11.453,50,11.453S88.547,28.745,88.547,50   S71.255,88.547,50,88.547z M50,11.729c-21.103,0-38.27,17.168-38.27,38.27c0,21.103,17.168,38.27,38.27,38.27   S88.27,71.103,88.27,50C88.27,28.897,71.103,11.729,50,11.729z"/></g><g><path d="M50,73.314c-12.855,0-23.315-10.459-23.315-23.315S37.144,26.686,50,26.686S73.314,37.144,73.314,50   S62.855,73.314,50,73.314z M50,26.962c-12.703,0-23.038,10.335-23.038,23.038c0,12.703,10.334,23.038,23.038,23.038   S73.037,62.703,73.037,50C73.037,37.297,62.703,26.962,50,26.962z"/></g><g><path d="M50,66.487c-9.091,0-16.488-7.396-16.488-16.488S40.909,33.513,50,33.513S66.487,40.909,66.487,50S59.091,66.487,50,66.487   z M50,33.789c-8.939,0-16.21,7.272-16.21,16.211c0,8.939,7.271,16.21,16.21,16.21S66.21,58.939,66.21,50   C66.21,41.061,58.939,33.789,50,33.789z"/></g><g><path d="M136.82-8.521c0.468,0.288,1.151,0.528,1.871,0.528c1.067,0,1.691-0.563,1.691-1.379c0-0.755-0.433-1.187-1.523-1.607   c-1.319-0.468-2.135-1.151-2.135-2.291c0-1.259,1.043-2.195,2.614-2.195c0.827,0,1.428,0.192,1.787,0.396l-0.288,0.852   c-0.264-0.144-0.804-0.384-1.535-0.384c-1.104,0-1.523,0.66-1.523,1.211c0,0.755,0.492,1.127,1.607,1.559   c1.367,0.528,2.063,1.188,2.063,2.375c0,1.248-0.924,2.327-2.831,2.327c-0.779,0-1.631-0.228-2.062-0.516L136.82-8.521z"/><path d="M144.079-14.722v1.667h1.512v0.803h-1.512v3.13c0,0.72,0.204,1.127,0.792,1.127c0.275,0,0.479-0.036,0.611-0.072   l0.048,0.792c-0.203,0.084-0.527,0.144-0.936,0.144c-0.491,0-0.887-0.156-1.139-0.444c-0.3-0.312-0.408-0.828-0.408-1.511v-3.167   h-0.899v-0.803h0.899v-1.392L144.079-14.722z"/><path d="M146.78-11.244c0-0.684-0.013-1.271-0.049-1.811h0.924l0.036,1.139h0.048c0.264-0.779,0.899-1.271,1.607-1.271   c0.12,0,0.204,0.012,0.3,0.036v0.996c-0.108-0.024-0.216-0.036-0.36-0.036c-0.743,0-1.271,0.564-1.415,1.355   c-0.023,0.144-0.048,0.312-0.048,0.492v3.094h-1.043V-11.244z"/><path d="M155.838-10.2c0,2.146-1.487,3.082-2.891,3.082c-1.571,0-2.782-1.151-2.782-2.986c0-1.943,1.271-3.082,2.878-3.082   C154.71-13.187,155.838-11.976,155.838-10.2z M151.232-10.141c0,1.271,0.731,2.231,1.763,2.231c1.008,0,1.763-0.947,1.763-2.255   c0-0.983-0.491-2.23-1.738-2.23C151.771-12.395,151.232-11.244,151.232-10.141z"/><path d="M158.216-10.392h0.024c0.144-0.204,0.348-0.456,0.516-0.66l1.703-2.003h1.271l-2.242,2.387l2.555,3.418h-1.283   l-2.003-2.782l-0.54,0.6v2.183h-1.043v-8.515h1.043V-10.392z"/><path d="M163.388-9.96c0.024,1.427,0.936,2.015,1.991,2.015c0.756,0,1.211-0.132,1.607-0.3l0.18,0.756   c-0.372,0.168-1.008,0.36-1.931,0.36c-1.787,0-2.854-1.176-2.854-2.927s1.031-3.13,2.723-3.13c1.895,0,2.398,1.667,2.398,2.734   c0,0.216-0.024,0.384-0.036,0.492H163.388z M166.482-10.716c0.012-0.671-0.276-1.715-1.463-1.715c-1.067,0-1.535,0.983-1.619,1.715   H166.482z"/><path d="M175.494-7.466c-0.276,0.144-0.888,0.336-1.668,0.336c-1.751,0-2.89-1.188-2.89-2.962c0-1.787,1.223-3.083,3.118-3.083   c0.623,0,1.175,0.156,1.463,0.3l-0.24,0.815c-0.251-0.144-0.647-0.275-1.223-0.275c-1.331,0-2.051,0.983-2.051,2.194   c0,1.343,0.863,2.171,2.015,2.171c0.6,0,0.995-0.156,1.295-0.288L175.494-7.466z"/><path d="M181.913-10.2c0,2.146-1.487,3.082-2.891,3.082c-1.571,0-2.782-1.151-2.782-2.986c0-1.943,1.271-3.082,2.878-3.082   C180.785-13.187,181.913-11.976,181.913-10.2z M177.307-10.141c0,1.271,0.731,2.231,1.763,2.231c1.008,0,1.763-0.947,1.763-2.255   c0-0.983-0.491-2.23-1.738-2.23C177.847-12.395,177.307-11.244,177.307-10.141z"/><path d="M183.248-11.484c0-0.6-0.013-1.091-0.049-1.571h0.936l0.061,0.959h0.023c0.288-0.552,0.96-1.091,1.919-1.091   c0.804,0,2.051,0.479,2.051,2.47v3.466h-1.055v-3.346c0-0.936-0.349-1.715-1.344-1.715c-0.695,0-1.235,0.492-1.415,1.079   c-0.048,0.132-0.072,0.312-0.072,0.492v3.49h-1.055V-11.484z"/><path d="M189.764-8.33c0.312,0.204,0.863,0.42,1.392,0.42c0.768,0,1.127-0.384,1.127-0.863c0-0.504-0.3-0.78-1.079-1.068   c-1.044-0.372-1.535-0.947-1.535-1.643c0-0.935,0.756-1.703,2.003-1.703c0.588,0,1.104,0.167,1.427,0.359l-0.264,0.768   c-0.228-0.144-0.647-0.335-1.188-0.335c-0.623,0-0.971,0.36-0.971,0.792c0,0.479,0.348,0.695,1.103,0.983   c1.008,0.384,1.523,0.888,1.523,1.751c0,1.02-0.791,1.739-2.171,1.739c-0.636,0-1.223-0.156-1.631-0.396L189.764-8.33z"/><path d="M195.931-14.722v1.667h1.512v0.803h-1.512v3.13c0,0.72,0.204,1.127,0.792,1.127c0.275,0,0.479-0.036,0.611-0.072   l0.048,0.792c-0.203,0.084-0.527,0.144-0.936,0.144c-0.491,0-0.887-0.156-1.139-0.444c-0.3-0.312-0.408-0.828-0.408-1.511v-3.167   H194v-0.803h0.899v-1.392L195.931-14.722z"/><path d="M198.632-11.244c0-0.684-0.013-1.271-0.049-1.811h0.924l0.036,1.139h0.048c0.264-0.779,0.899-1.271,1.607-1.271   c0.12,0,0.204,0.012,0.3,0.036v0.996c-0.108-0.024-0.216-0.036-0.36-0.036c-0.743,0-1.271,0.564-1.415,1.355   c-0.023,0.144-0.048,0.312-0.048,0.492v3.094h-1.043V-11.244z"/><path d="M207.412-8.833c0,0.6,0.013,1.127,0.049,1.583h-0.936l-0.061-0.947h-0.023c-0.276,0.468-0.888,1.079-1.919,1.079   c-0.912,0-2.003-0.503-2.003-2.542v-3.394h1.055v3.214c0,1.104,0.336,1.847,1.296,1.847c0.707,0,1.199-0.492,1.391-0.959   c0.061-0.156,0.097-0.348,0.097-0.54v-3.562h1.055V-8.833z"/><path d="M213.306-7.466c-0.276,0.144-0.888,0.336-1.668,0.336c-1.751,0-2.89-1.188-2.89-2.962c0-1.787,1.223-3.083,3.118-3.083   c0.623,0,1.175,0.156,1.463,0.3l-0.239,0.815c-0.252-0.144-0.648-0.275-1.224-0.275c-1.331,0-2.051,0.983-2.051,2.194   c0,1.343,0.863,2.171,2.015,2.171c0.6,0,0.995-0.156,1.295-0.288L213.306-7.466z"/><path d="M215.971-14.722v1.667h1.512v0.803h-1.512v3.13c0,0.72,0.204,1.127,0.792,1.127c0.275,0,0.479-0.036,0.611-0.072   l0.048,0.792c-0.203,0.084-0.527,0.144-0.936,0.144c-0.491,0-0.887-0.156-1.139-0.444c-0.3-0.312-0.408-0.828-0.408-1.511v-3.167   h-0.899v-0.803h0.899v-1.392L215.971-14.722z"/><path d="M219.847-14.686c0.012,0.36-0.252,0.648-0.672,0.648c-0.371,0-0.636-0.288-0.636-0.648c0-0.372,0.276-0.66,0.66-0.66   C219.595-15.346,219.847-15.058,219.847-14.686z M218.672-7.25v-5.805h1.055v5.805H218.672z"/><path d="M226.732-10.2c0,2.146-1.487,3.082-2.891,3.082c-1.571,0-2.782-1.151-2.782-2.986c0-1.943,1.271-3.082,2.878-3.082   C225.604-13.187,226.732-11.976,226.732-10.2z M222.127-10.141c0,1.271,0.731,2.231,1.763,2.231c1.008,0,1.763-0.947,1.763-2.255   c0-0.983-0.491-2.23-1.738-2.23C222.666-12.395,222.127-11.244,222.127-10.141z"/><path d="M228.067-11.484c0-0.6-0.013-1.091-0.049-1.571h0.936l0.061,0.959h0.023c0.288-0.552,0.96-1.091,1.919-1.091   c0.804,0,2.051,0.479,2.051,2.47v3.466h-1.055v-3.346c0-0.936-0.348-1.715-1.344-1.715c-0.695,0-1.235,0.492-1.415,1.079   c-0.048,0.132-0.072,0.312-0.072,0.492v3.49h-1.055V-11.484z"/></g><g><path d="M10.918-15.333h4.354v0.875h-3.31v2.687h3.059v0.863h-3.059v3.658h-1.044V-15.333z"/><path d="M17.59-14.686c0.012,0.36-0.252,0.648-0.672,0.648c-0.371,0-0.636-0.288-0.636-0.648c0-0.372,0.276-0.66,0.66-0.66   C17.338-15.346,17.59-15.058,17.59-14.686z M16.415-7.25v-5.805h1.055v5.805H16.415z"/><path d="M19.223-15.765h1.055v8.515h-1.055V-15.765z"/><path d="M22.055-15.765h1.055v8.515h-1.055V-15.765z"/><path d="M31.568-7.466C31.292-7.322,30.681-7.13,29.9-7.13c-1.751,0-2.89-1.188-2.89-2.962c0-1.787,1.223-3.083,3.118-3.083   c0.623,0,1.175,0.156,1.463,0.3l-0.239,0.815c-0.252-0.144-0.648-0.275-1.224-0.275c-1.331,0-2.051,0.983-2.051,2.194   c0,1.343,0.863,2.171,2.015,2.171c0.6,0,0.995-0.156,1.295-0.288L31.568-7.466z"/><path d="M37.987-10.2c0,2.146-1.487,3.082-2.891,3.082c-1.571,0-2.782-1.151-2.782-2.986c0-1.943,1.271-3.082,2.878-3.082   C36.859-13.187,37.987-11.976,37.987-10.2z M33.382-10.141c0,1.271,0.731,2.231,1.763,2.231c1.008,0,1.763-0.947,1.763-2.255   c0-0.983-0.491-2.23-1.738-2.23C33.921-12.395,33.382-11.244,33.382-10.141z"/><path d="M39.322-11.484c0-0.6-0.013-1.091-0.049-1.571h0.936l0.061,0.959h0.023c0.288-0.552,0.96-1.091,1.919-1.091   c0.804,0,2.051,0.479,2.051,2.47v3.466h-1.055v-3.346c0-0.936-0.348-1.715-1.344-1.715c-0.695,0-1.235,0.492-1.415,1.079   c-0.048,0.132-0.072,0.312-0.072,0.492v3.49h-1.055V-11.484z"/><path d="M45.838-8.33c0.312,0.204,0.863,0.42,1.392,0.42c0.768,0,1.127-0.384,1.127-0.863c0-0.504-0.3-0.78-1.079-1.068   c-1.044-0.372-1.535-0.947-1.535-1.643c0-0.935,0.756-1.703,2.003-1.703c0.588,0,1.104,0.167,1.427,0.359l-0.264,0.768   c-0.228-0.144-0.647-0.335-1.188-0.335c-0.623,0-0.971,0.36-0.971,0.792c0,0.479,0.348,0.695,1.103,0.983   c1.008,0.384,1.523,0.888,1.523,1.751c0,1.02-0.791,1.739-2.171,1.739c-0.636,0-1.223-0.156-1.631-0.396L45.838-8.33z"/><path d="M52.005-14.722v1.667h1.512v0.803h-1.512v3.13c0,0.72,0.204,1.127,0.792,1.127c0.275,0,0.479-0.036,0.611-0.072   l0.048,0.792C53.253-7.19,52.929-7.13,52.521-7.13c-0.491,0-0.887-0.156-1.139-0.444c-0.3-0.312-0.408-0.828-0.408-1.511v-3.167   h-0.899v-0.803h0.899v-1.392L52.005-14.722z"/><path d="M54.706-11.244c0-0.684-0.013-1.271-0.049-1.811h0.924l0.036,1.139h0.048c0.264-0.779,0.899-1.271,1.607-1.271   c0.12,0,0.203,0.012,0.3,0.036v0.996c-0.108-0.024-0.216-0.036-0.36-0.036c-0.743,0-1.271,0.564-1.415,1.355   c-0.023,0.144-0.048,0.312-0.048,0.492v3.094h-1.043V-11.244z"/><path d="M63.486-8.833c0,0.6,0.013,1.127,0.049,1.583H62.6l-0.061-0.947h-0.023c-0.276,0.468-0.888,1.079-1.919,1.079   c-0.912,0-2.003-0.503-2.003-2.542v-3.394h1.055v3.214c0,1.104,0.336,1.847,1.296,1.847c0.707,0,1.199-0.492,1.391-0.959   c0.061-0.156,0.097-0.348,0.097-0.54v-3.562h1.055V-8.833z"/><path d="M69.38-7.466c-0.276,0.144-0.888,0.336-1.668,0.336c-1.751,0-2.89-1.188-2.89-2.962c0-1.787,1.223-3.083,3.118-3.083   c0.623,0,1.175,0.156,1.463,0.3l-0.24,0.815c-0.251-0.144-0.647-0.275-1.223-0.275c-1.331,0-2.051,0.983-2.051,2.194   c0,1.343,0.863,2.171,2.015,2.171c0.6,0,0.995-0.156,1.295-0.288L69.38-7.466z"/><path d="M72.045-14.722v1.667h1.512v0.803h-1.512v3.13c0,0.72,0.204,1.127,0.792,1.127c0.275,0,0.479-0.036,0.611-0.072   l0.048,0.792C73.293-7.19,72.969-7.13,72.561-7.13c-0.491,0-0.887-0.156-1.139-0.444c-0.3-0.312-0.408-0.828-0.408-1.511v-3.167   h-0.899v-0.803h0.899v-1.392L72.045-14.722z"/><path d="M75.921-14.686c0.012,0.36-0.252,0.648-0.672,0.648c-0.371,0-0.636-0.288-0.636-0.648c0-0.372,0.276-0.66,0.66-0.66   C75.669-15.346,75.921-15.058,75.921-14.686z M74.746-7.25v-5.805h1.055v5.805H74.746z"/><path d="M82.807-10.2c0,2.146-1.487,3.082-2.891,3.082c-1.571,0-2.782-1.151-2.782-2.986c0-1.943,1.271-3.082,2.878-3.082   C81.679-13.187,82.807-11.976,82.807-10.2z M78.201-10.141c0,1.271,0.731,2.231,1.763,2.231c1.008,0,1.763-0.947,1.763-2.255   c0-0.983-0.491-2.23-1.738-2.23C78.74-12.395,78.201-11.244,78.201-10.141z"/><path d="M84.142-11.484c0-0.6-0.013-1.091-0.049-1.571h0.936l0.061,0.959h0.023c0.288-0.552,0.96-1.091,1.919-1.091   c0.804,0,2.051,0.479,2.051,2.47v3.466h-1.055v-3.346c0-0.936-0.349-1.715-1.344-1.715c-0.695,0-1.235,0.492-1.415,1.079   c-0.048,0.132-0.072,0.312-0.072,0.492v3.49h-1.055V-11.484z"/></g><text x="0" y="115" fill="#000000" font-size="5px" font-weight="bold" font-family="'Helvetica Neue', Helvetica, Arial-Unicode, Arial, Sans-serif">Created by Dimitry Sunseifer</text><text x="0" y="120" fill="#000000" font-size="5px" font-weight="bold" font-family="'Helvetica Neue', Helvetica, Arial-Unicode, Arial, Sans-serif">from the Noun Project</text></svg>