<svg xmlns="http://www.w3.org/2000/svg" data-name="Layer 1" viewBox="0 0 100 125" x="0px" y="0px"><title>Artboard 5</title><path d="M2.24,32.43V28.82A3.27,3.27,0,0,1,4.95,25.6l4.25-.75a22.08,22.08,0,0,1,2.2-5.3L8.91,16a3.27,3.27,0,0,1,.37-4.19l2.55-2.55A3.27,3.27,0,0,1,16,8.91l3.54,2.48a22,22,0,0,1,5.3-2.2l.75-4.25a3.27,3.27,0,0,1,3.22-2.71h3.61a3.27,3.27,0,0,1,3.22,2.71L36.4,9.2a22,22,0,0,1,5.3,2.2l3.54-2.48a3.27,3.27,0,0,1,4.19.37L52,11.83A3.27,3.27,0,0,1,52.34,16l-2.48,3.54a22.08,22.08,0,0,1,1.77,4,10,10,0,0,0-2.05,4.51l-.34,2-1.06.44-1.63-1.14a10,10,0,0,0-5.75-1.82c-.32,0-.63.06-.95.09A9.71,9.71,0,1,0,27.6,39.84a10,10,0,0,0,1.77,6.71l1.14,1.63c-.15.35-.3.7-.44,1.05l-2,.34a10,10,0,0,0-4.51,2.05,22.11,22.11,0,0,1-4-1.77L16,52.34A3.27,3.27,0,0,1,11.83,52L9.28,49.43a3.27,3.27,0,0,1-.37-4.19L11.4,41.7a22,22,0,0,1-2.2-5.3l-4.25-.75A3.27,3.27,0,0,1,2.24,32.43Zm45.43,4.88a27.94,27.94,0,0,1,6.72-2.79l.95-5.4a4.15,4.15,0,0,1,4.09-3.43H64a4.15,4.15,0,0,1,4.09,3.43l.95,5.4a28,28,0,0,1,6.73,2.79l4.49-3.15a4.15,4.15,0,0,1,5.32.46l3.24,3.24a4.15,4.15,0,0,1,.46,5.32l-3.15,4.49a28,28,0,0,1,2.79,6.73l5.4.95a4.15,4.15,0,0,1,3.43,4.09V64a4.15,4.15,0,0,1-3.43,4.09l-5.4.95a28,28,0,0,1-2.79,6.72l3.15,4.49a4.15,4.15,0,0,1-.46,5.32l-3.24,3.24a4.15,4.15,0,0,1-5.32.46l-4.49-3.15a28,28,0,0,1-6.73,2.79l-.95,5.4A4.15,4.15,0,0,1,64,97.76H59.44a4.15,4.15,0,0,1-4.09-3.43l-.95-5.4a28,28,0,0,1-6.72-2.79l-4.49,3.15a4.15,4.15,0,0,1-5.32-.46l-3.24-3.24a4.15,4.15,0,0,1-.46-5.32l3.15-4.49a28,28,0,0,1-2.79-6.72l-5.4-.95A4.15,4.15,0,0,1,25.69,64V59.43a4.15,4.15,0,0,1,3.43-4.09l5.4-.95a28,28,0,0,1,2.79-6.72l-3.15-4.49a4.15,4.15,0,0,1,.46-5.32l3.24-3.24a4.15,4.15,0,0,1,5.32-.46ZM52,64.8l2.11,2.12,2.28,2.29a3.22,3.22,0,0,0,4.56,0l2.29-2.27,8.19-8.15a3.23,3.23,0,0,0,0-4.56h0a3.22,3.22,0,0,0-4.56,0l-8.19,8.15-2.11-2.12a3.23,3.23,0,0,0-4.56,0h0A3.23,3.23,0,0,0,52,64.8Z"/><text x="0" y="115" fill="#000000" font-size="5px" font-weight="bold" font-family="'Helvetica Neue', Helvetica, Arial-Unicode, Arial, Sans-serif">Created by Gregor Cresnar</text><text x="0" y="120" fill="#000000" font-size="5px" font-weight="bold" font-family="'Helvetica Neue', Helvetica, Arial-Unicode, Arial, Sans-serif">from the Noun Project</text></svg>