<svg xmlns="http://www.w3.org/2000/svg" xmlns:xlink="http://www.w3.org/1999/xlink" version="1.1" x="0px" y="0px" viewBox="0 0 100 125" enable-background="new 0 0 100 100" xml:space="preserve"><g><path d="M90.125,19.5H9.875c-1.856,0-3.375,1.519-3.375,3.375v54.25c0,1.856,1.519,3.375,3.375,3.375h80.25   c1.856,0,3.375-1.519,3.375-3.375v-54.25C93.5,21.019,91.981,19.5,90.125,19.5z M28.78,33.517l-12.883,6.726v-2.859   c0-0.216,0.054-0.417,0.162-0.601c0.108-0.184,0.287-0.335,0.536-0.455l5.897-3.038c0.509-0.249,1.066-0.444,1.673-0.585   c-0.607-0.141-1.165-0.335-1.673-0.585l-5.897-3.021c-0.249-0.13-0.428-0.285-0.536-0.463s-0.162-0.376-0.162-0.593v-2.859   l12.883,6.709V33.517z"/></g><text x="0" y="115" fill="#000000" font-size="5px" font-weight="bold" font-family="'Helvetica Neue', Helvetica, Arial-Unicode, Arial, Sans-serif">Created by Souvik Maity</text><text x="0" y="120" fill="#000000" font-size="5px" font-weight="bold" font-family="'Helvetica Neue', Helvetica, Arial-Unicode, Arial, Sans-serif">from the Noun Project</text></svg>