<svg xmlns="http://www.w3.org/2000/svg" xmlns:xlink="http://www.w3.org/1999/xlink" version="1.1" preserveAspectRatio="none" x="0px" y="0px" viewBox="0 0 100 125"><defs><g id="a"><path fill="#000000" stroke="none" d=" M 92.15 7.85 Q 88.5666015625 4.272265625 83.5 4.25 78.433203125 4.2720703125 74.85 7.85 L 50 32.7 25.15 7.85 Q 21.5666015625 4.2720703125 16.5 4.25 11.4333984375 4.272265625 7.85 7.85 4.272265625 11.4333984375 4.25 16.5 4.2720703125 21.5666015625 7.85 25.15 L 32.7 50 7.85 74.85 Q 4.2720703125 78.433203125 4.25 83.5 4.272265625 88.5666015625 7.85 92.15 11.4333984375 95.727734375 16.5 95.7 21.5666015625 95.727734375 25.15 92.15 L 50 67.3 74.85 92.15 Q 78.433203125 95.727734375 83.5 95.7 88.5666015625 95.727734375 92.15 92.15 95.727734375 88.5666015625 95.7 83.5 95.727734375 78.433203125 92.15 74.85 L 67.3 50 92.15 25.15 Q 95.727734375 21.5666015625 95.7 16.5 95.727734375 11.4333984375 92.15 7.85 Z"/></g></defs><g transform="matrix( 1, 0, 0, 1, 0,0) "><use xlink:href="#a"/></g><text x="0" y="115" fill="#000000" font-size="5px" font-weight="bold" font-family="'Helvetica Neue', Helvetica, Arial-Unicode, Arial, Sans-serif">Created by Veronika Krpciarova</text><text x="0" y="120" fill="#000000" font-size="5px" font-weight="bold" font-family="'Helvetica Neue', Helvetica, Arial-Unicode, Arial, Sans-serif">from the Noun Project</text></svg>